<svg width="632" height="632" viewBox="0 0 632 632" fill="none" xmlns="http://www.w3.org/2000/svg">
<g opacity="0.4">
<path d="M391.513 193.127L388.3 201.99C388.201 202.262 388.171 202.554 388.212 202.841C388.253 203.127 388.364 203.399 388.535 203.632C388.707 203.866 388.933 204.053 389.194 204.178C389.455 204.302 389.743 204.361 390.032 204.347L394.664 204.163C395.171 204.138 395.576 203.923 395.88 203.52L401.692 195.851C401.942 195.523 402.271 195.364 402.677 195.372L419.233 195.996C419.803 196.011 420.043 196.299 419.952 196.859L415.916 222.899C415.885 223.095 415.903 223.296 415.968 223.484C416.033 223.672 416.143 223.842 416.289 223.977C416.434 224.113 416.611 224.211 416.803 224.262C416.995 224.314 417.197 224.317 417.391 224.273L421.301 223.341C421.854 223.211 422.197 222.869 422.328 222.316C423.096 219.081 425.025 217.734 428.116 218.274C428.609 218.358 428.927 218.155 429.07 217.667C429.476 216.192 429.416 214.714 428.891 213.233C428.732 212.808 428.718 212.38 428.849 211.948C429.702 209.102 431.581 207.833 434.486 208.14C434.741 208.169 434.999 208.131 435.236 208.03C435.472 207.929 435.678 207.769 435.834 207.565C435.99 207.361 436.09 207.12 436.125 206.866C436.161 206.612 436.129 206.352 436.035 206.114C434.618 202.555 435.539 199.568 438.799 197.153C439.146 196.895 439.53 196.786 439.951 196.826C450.226 197.636 459.341 198.468 467.521 192.525C470.52 190.359 471.443 187.608 467.814 185.358C458.943 179.867 451.172 180.374 439.904 181.897C439.454 181.96 439.089 181.814 438.808 181.459C437.604 179.974 436.475 178.465 435.42 176.93C433.554 174.223 437.142 172.128 435.049 169.901C434.729 169.558 434.339 169.42 433.878 169.488C430.841 169.926 428.872 168.625 427.973 165.586C427.876 165.254 427.901 164.932 428.05 164.62C428.676 163.26 428.756 161.89 428.291 160.508C428.123 160.011 427.772 159.753 427.239 159.733L424.228 159.631C423.684 159.617 423.274 159.376 422.999 158.91C421.035 155.644 418.489 150.78 414.846 153.064C414.542 153.25 414.427 153.518 414.501 153.867L420.112 182.332C420.132 182.435 420.131 182.541 420.107 182.643C420.083 182.746 420.038 182.841 419.974 182.925C419.91 183.008 419.83 183.077 419.737 183.126C419.645 183.176 419.543 183.205 419.438 183.212L403.668 184.313C403.148 184.351 402.723 184.166 402.392 183.758C398.893 179.462 396.044 173.023 389.336 174.885C387.978 175.263 387.551 176.11 388.057 177.428L391.757 187.029C391.799 187.138 391.815 187.256 391.803 187.372C391.791 187.489 391.752 187.602 391.69 187.701C391.627 187.801 391.541 187.886 391.44 187.948C391.339 188.01 391.225 188.049 391.107 188.061C389.388 188.22 386.068 188.032 385.461 190.061C385.412 190.218 385.399 190.384 385.422 190.547C385.445 190.711 385.504 190.867 385.594 191.006C385.684 191.145 385.804 191.262 385.944 191.351C386.085 191.439 386.244 191.496 386.409 191.518L390.865 192.067C391.524 192.15 391.74 192.503 391.513 193.127Z" fill="#84BD00"/>
<path d="M328.549 335.002C329.653 332.462 331.028 330.612 331.62 330.869C332.211 331.126 331.795 333.393 330.691 335.933C329.586 338.473 328.211 340.324 327.62 340.067C327.029 339.81 327.444 337.542 328.549 335.002Z" fill="#84BD00"/>
<path d="M332.182 325.517C333.932 325.814 333.424 317.218 331.232 316.015C330.653 315.691 330.403 315.862 330.484 316.527L331.479 324.79C331.535 325.212 331.769 325.454 332.182 325.517Z" fill="#84BD00"/>
<path d="M319.79 346.385C322.029 344.765 324.13 343.848 324.484 344.337C324.839 344.827 323.312 346.537 321.073 348.157C318.835 349.777 316.734 350.694 316.38 350.204C316.025 349.715 317.552 348.005 319.79 346.385Z" fill="#84BD00"/>
<path d="M373.832 188.813C371.095 188.549 368.924 187.848 368.982 187.247C369.04 186.645 371.305 186.371 374.042 186.635C376.779 186.898 378.95 187.6 378.892 188.201C378.834 188.802 376.569 189.076 373.832 188.813Z" fill="#84BD00"/>
<path d="M325.074 307.594C323.335 305.544 322.291 303.572 322.741 303.19C323.192 302.808 324.967 304.161 326.705 306.211C328.444 308.261 329.488 310.233 329.038 310.615C328.587 310.997 326.813 309.644 325.074 307.594Z" fill="#84BD00"/>
<path d="M286.795 418.938L284.609 425.827C284.451 426.325 283.919 426.601 283.421 426.443L283.304 426.406C282.806 426.248 282.53 425.716 282.688 425.218L284.873 418.328C285.031 417.83 285.563 417.554 286.062 417.712L286.179 417.75C286.677 417.908 286.953 418.44 286.795 418.938Z" fill="#84BD00"/>
<path d="M277.833 435.562C279.186 433.161 280.691 431.444 281.194 431.728C281.696 432.011 281.007 434.187 279.654 436.588C278.301 438.989 276.797 440.706 276.294 440.423C275.791 440.14 276.48 437.964 277.833 435.562Z" fill="#84BD00"/>
<path d="M305.776 351.406C303.14 351.044 301.072 350.245 301.158 349.619C301.243 348.994 303.45 348.779 306.087 349.141C308.723 349.502 310.791 350.301 310.705 350.927C310.62 351.552 308.413 351.767 305.776 351.406Z" fill="#84BD00"/>
<path d="M288.59 403.547L288.208 410.839C288.18 411.361 287.735 411.762 287.213 411.734L287.115 411.729C286.593 411.702 286.192 411.257 286.219 410.735L286.601 403.443C286.629 402.921 287.074 402.52 287.596 402.548L287.694 402.553C288.216 402.58 288.617 403.025 288.59 403.547Z" fill="#84BD00"/>
<path d="M269.045 447.707C270.845 445.692 272.658 444.375 273.093 444.764C273.529 445.153 272.421 447.102 270.621 449.116C268.82 451.13 267.007 452.447 266.572 452.058C266.137 451.669 267.244 449.721 269.045 447.707Z" fill="#84BD00"/>
<path d="M285.255 392.069C284.792 389.359 284.883 387.083 285.458 386.984C286.034 386.886 286.876 389.003 287.339 391.713C287.802 394.423 287.711 396.7 287.136 396.798C286.56 396.897 285.718 394.779 285.255 392.069Z" fill="#84BD00"/>
<path d="M358.773 188.782C356.033 189.008 353.771 188.702 353.722 188.1C353.672 187.498 355.854 186.827 358.594 186.602C361.334 186.376 363.595 186.682 363.645 187.284C363.694 187.886 361.513 188.557 358.773 188.782Z" fill="#84BD00"/>
<path d="M257.802 457.917C259.996 456.317 262.057 455.407 262.405 455.884C262.753 456.362 261.257 458.045 259.062 459.645C256.868 461.245 254.808 462.155 254.46 461.678C254.112 461.201 255.608 459.517 257.802 457.917Z" fill="#84BD00"/>
<path d="M313.031 299.763C310.434 298.858 308.492 297.658 308.693 297.081C308.894 296.504 311.162 296.769 313.758 297.673C316.355 298.577 318.297 299.778 318.096 300.355C317.895 300.932 315.627 300.667 313.031 299.763Z" fill="#84BD00"/>
<path d="M281.773 377.387C281.036 374.801 280.9 372.574 281.468 372.412C282.036 372.25 283.093 374.215 283.83 376.801C284.566 379.386 284.703 381.613 284.135 381.775C283.567 381.937 282.509 379.972 281.773 377.387Z" fill="#84BD00"/>
<path d="M291.432 345.361C289.197 343.772 287.662 342.094 288.004 341.612C288.346 341.131 290.436 342.029 292.671 343.617C294.907 345.206 296.442 346.884 296.1 347.366C295.758 347.847 293.668 346.949 291.432 345.361Z" fill="#84BD00"/>
<path d="M245.739 467.232C243.247 468.31 241.037 468.745 240.802 468.203C240.568 467.661 242.398 466.347 244.89 465.269C247.382 464.19 249.592 463.756 249.827 464.298C250.062 464.84 248.232 466.153 245.739 467.232Z" fill="#84BD00"/>
<path d="M343.829 191.05C341.237 191.625 339.031 191.612 338.9 191.023C338.769 190.433 340.764 189.489 343.355 188.914C345.947 188.34 348.153 188.352 348.284 188.942C348.415 189.532 346.42 190.476 343.829 191.05Z" fill="#84BD00"/>
<path d="M277.447 362.806C276.747 360.232 276.647 358.018 277.224 357.861C277.8 357.704 278.835 359.664 279.534 362.239C280.234 364.814 280.333 367.028 279.757 367.184C279.18 367.341 278.146 365.381 277.447 362.806Z" fill="#84BD00"/>
<path d="M298.61 298.73C295.943 299.239 293.687 299.165 293.573 298.565C293.458 297.965 295.528 297.066 298.195 296.557C300.863 296.048 303.118 296.122 303.232 296.722C303.347 297.322 301.277 298.221 298.61 298.73Z" fill="#84BD00"/>
<path d="M280.466 334.494C278.784 332.294 277.8 330.219 278.269 329.861C278.739 329.502 280.483 330.995 282.165 333.195C283.847 335.395 284.831 337.47 284.361 337.829C283.892 338.187 282.148 336.695 280.466 334.494Z" fill="#84BD00"/>
<path d="M230.735 471.596C228.028 471.991 225.763 471.827 225.676 471.229C225.589 470.631 227.712 469.826 230.42 469.431C233.127 469.036 235.392 469.201 235.479 469.799C235.566 470.396 233.443 471.201 230.735 471.596Z" fill="#84BD00"/>
<path d="M273.852 347.811C273.357 345.086 273.432 342.79 274.019 342.683C274.607 342.577 275.485 344.699 275.98 347.424C276.475 350.149 276.4 352.445 275.813 352.552C275.225 352.659 274.347 350.536 273.852 347.811Z" fill="#84BD00"/>
<path d="M329.547 195.5C327.004 196.491 324.771 196.854 324.559 196.31C324.347 195.766 326.236 194.521 328.779 193.53C331.321 192.538 333.554 192.176 333.766 192.72C333.978 193.264 332.089 194.508 329.547 195.5Z" fill="#84BD00"/>
<path d="M284.316 304.062C286.223 302.188 288.113 301.017 288.537 301.448C288.96 301.879 287.757 303.748 285.849 305.623C283.942 307.498 282.052 308.668 281.628 308.237C281.205 307.806 282.408 305.937 284.316 304.062Z" fill="#84BD00"/>
<path d="M272.945 332.398C273.083 329.672 273.667 327.487 274.25 327.516C274.833 327.546 275.194 329.779 275.056 332.504C274.918 335.23 274.333 337.416 273.75 337.386C273.167 337.356 272.807 335.123 272.945 332.398Z" fill="#84BD00"/>
<path d="M274.532 319.812C273.801 319.664 273.14 316.846 272.197 316.059C272.068 315.947 271.906 315.883 271.736 315.876C271.566 315.869 271.399 315.92 271.262 316.021C271.125 316.122 271.026 316.266 270.982 316.43C270.937 316.594 270.95 316.769 271.018 316.925L274.207 324.586C274.448 325.171 274.84 325.305 275.382 324.988C275.978 324.646 276.193 324.101 276.03 323.353C275.952 322.967 275.99 322.588 276.142 322.217L279.535 314.19C279.6 314.039 279.62 313.871 279.591 313.708C279.562 313.546 279.487 313.395 279.374 313.274C279.26 313.154 279.114 313.069 278.954 313.031C278.793 312.992 278.625 313.001 278.469 313.057C276.6 313.737 276.07 317.599 275.457 319.286C275.297 319.725 274.989 319.9 274.532 319.812Z" fill="#84BD00"/>
<path d="M314.864 200.287C317.203 198.921 319.346 198.236 319.651 198.757C319.956 199.279 318.307 200.81 315.968 202.176C313.63 203.543 311.487 204.228 311.182 203.706C310.877 203.184 312.526 201.654 314.864 200.287Z" fill="#84BD00"/>
<path d="M268.215 306.233C267.645 303.453 267.662 301.101 268.254 300.98C268.846 300.858 269.788 303.013 270.358 305.793C270.929 308.573 270.912 310.924 270.32 311.046C269.728 311.167 268.786 309.013 268.215 306.233Z" fill="#84BD00"/>
<path d="M302.114 209.072C304.288 207.292 306.355 206.22 306.729 206.677C307.103 207.134 305.643 208.947 303.468 210.728C301.293 212.508 299.227 213.58 298.853 213.123C298.479 212.666 299.939 210.853 302.114 209.072Z" fill="#84BD00"/>
<path d="M266.349 290.934C266.22 288.201 266.599 285.963 267.196 285.935C267.793 285.907 268.381 288.099 268.51 290.832C268.639 293.565 268.259 295.803 267.663 295.831C267.066 295.859 266.478 293.667 266.349 290.934Z" fill="#84BD00"/>
<path d="M291.014 219.777C292.889 217.71 294.767 216.36 295.209 216.761C295.652 217.162 294.491 219.163 292.617 221.23C290.743 223.297 288.865 224.647 288.422 224.246C287.98 223.845 289.14 221.844 291.014 219.777Z" fill="#84BD00"/>
<path d="M266.818 275.564C267.063 272.819 267.749 270.637 268.351 270.69C268.953 270.744 269.242 273.013 268.997 275.758C268.752 278.504 268.065 280.685 267.464 280.632C266.862 280.578 266.573 278.309 266.818 275.564Z" fill="#84BD00"/>
<path d="M281.786 232.078C283.31 229.749 284.951 228.126 285.451 228.453C285.951 228.78 285.12 230.933 283.596 233.262C282.072 235.591 280.432 237.214 279.932 236.887C279.432 236.56 280.262 234.407 281.786 232.078Z" fill="#84BD00"/>
<path d="M272.44 257.306L270.705 264.424C270.587 264.905 270.102 265.201 269.62 265.083L269.382 265.025C268.9 264.908 268.605 264.422 268.722 263.941L270.457 256.823C270.575 256.342 271.06 256.047 271.542 256.164L271.78 256.222C272.262 256.34 272.557 256.825 272.44 257.306Z" fill="#84BD00"/>
<path d="M277.941 243.127L275.021 250.006C274.819 250.481 274.271 250.703 273.796 250.501L273.705 250.463C273.23 250.261 273.009 249.713 273.21 249.238L276.131 242.358C276.332 241.883 276.881 241.662 277.355 241.863L277.446 241.902C277.921 242.103 278.142 242.652 277.941 243.127Z" fill="#84BD00"/>
</g>
</svg>
