<svg width="300" height="112" viewBox="0 0 300 112" fill="none" xmlns="http://www.w3.org/2000/svg">
<g filter="url(#filter0_d_989_31421)">
<path d="M39.572 41.8389C37.5335 44.2749 34.6557 45.6221 31.538 45.6498C28.4572 45.6314 25.1182 44.3119 22.6185 41.4791C20.1188 38.6647 18.9751 35.0661 19.3809 31.8549C19.547 30.2863 20.1281 28.7546 20.9767 27.5181C21.8253 26.2632 22.9783 25.2297 24.3618 24.4454C27.1567 22.886 30.2467 22.5169 32.94 22.7937C35.6334 23.1074 38.0501 24.1132 39.8026 26.0971C41.5459 28.0902 42.4868 30.7015 42.4775 33.5528C42.5052 36.3579 41.6105 39.3937 39.5628 41.8389H39.572Z" fill="#FFB31A"/>
<path d="M60.7408 56.1319C59.2649 58.8262 55.806 59.7398 53.0573 58.0973C50.2901 56.4548 49.4876 52.9207 51.1756 50.3832C52.8728 47.818 56.2211 47.0799 58.7668 48.5839C61.3034 50.0972 62.2166 53.4467 60.75 56.1319H60.7408Z" fill="#FFDE52"/>
<path d="M92.8936 70.4159C92.0542 72.7873 90.3202 74.5959 88.1433 75.5647C85.9849 76.5059 83.3746 76.6536 80.9302 75.657C78.4767 74.6974 76.6688 72.7965 75.7464 70.6281C74.8333 68.4228 74.8056 65.9129 75.8387 63.6153C76.8625 61.3177 78.7257 59.6476 80.8472 58.7802C82.9964 57.8852 85.3946 57.8206 87.6729 58.7064C89.9235 59.6291 91.6484 61.3269 92.5892 63.4492C93.5485 65.5438 93.7422 68.0352 92.9028 70.4159H92.8936Z" fill="#FFB31A"/>
<path d="M125.613 79.717C124.93 82.8359 123.039 85.3642 120.457 86.9144C119.165 87.6987 117.708 88.2154 116.177 88.4369C114.636 88.6583 113.013 88.5937 111.399 88.16C108.161 87.3204 105.597 85.235 104.112 82.6329C102.627 80.0031 102.212 76.875 103.153 73.83C104.093 70.785 106.178 68.4043 108.715 66.9833C111.26 65.5531 114.277 65.0825 117.247 65.8484C118.732 66.2544 120.069 66.9095 121.231 67.7953C122.394 68.6904 123.371 69.7884 124.128 71.0249C125.64 73.5163 126.286 76.6167 125.604 79.7263L125.613 79.717Z" fill="#FFDE52"/>
<path d="M156.806 84.7461C156.474 87.9111 154.869 90.6516 152.48 92.4786C150.091 94.2872 146.918 95.2007 143.616 94.7116C140.314 94.2226 137.528 92.4694 135.767 90.0241C133.996 87.5974 133.239 84.5246 133.83 81.3873C134.42 78.2593 136.219 75.6664 138.589 73.9594C140.96 72.2708 143.911 71.4403 146.955 71.8832C149.999 72.3353 152.582 73.9501 154.371 76.2754C156.151 78.573 157.138 81.5719 156.806 84.7461Z" fill="#FFB31A"/>
<path d="M185.152 86.2223C185.152 88.5199 184.221 90.6145 182.652 92.1186C181.094 93.5949 178.898 94.5177 176.509 94.4346C171.704 94.2962 168.07 90.2916 168.383 85.7148C168.697 81.1011 172.562 77.6409 177.026 77.7608C179.267 77.8439 181.278 78.7758 182.754 80.3168C184.221 81.8301 185.161 83.9062 185.171 86.2131L185.152 86.2223Z" fill="#FFDE52"/>
<path d="M219.853 83.6018C220.342 86.7483 219.484 89.8026 217.602 92.1832C215.73 94.5362 212.843 96.2156 209.476 96.5477C206.119 96.8707 202.964 95.8372 200.667 93.8718C198.361 91.9341 196.904 89.1197 196.756 85.9271C196.6 82.7529 197.743 79.8094 199.634 77.5856C201.534 75.3895 204.163 73.8762 207.189 73.5809C210.214 73.2856 213.083 74.2084 215.37 76.0169C217.649 77.7978 219.355 80.446 219.853 83.5926V83.6018Z" fill="#FFDE52"/>
<path d="M248.355 76.9672C249.13 79.394 248.826 81.9038 247.645 84.0261C246.465 86.1299 244.38 87.8001 241.779 88.4921C240.469 88.8243 239.168 88.8889 237.923 88.7228C236.687 88.5383 235.516 88.1046 234.483 87.4771C232.417 86.2407 230.913 84.1922 230.397 81.6916C229.88 79.2002 230.415 76.7365 231.623 74.7434C232.232 73.7469 233.016 72.8887 233.938 72.1874C234.861 71.4677 235.912 70.9325 237.093 70.6372C239.445 70.0098 241.834 70.4066 243.873 71.5323C245.893 72.6488 247.581 74.5404 248.355 76.9672Z" fill="#FFB31A"/>
<path d="M279.327 63.2649C280.95 66.0054 281.264 69.1427 280.342 72.0677C279.89 73.5441 279.106 74.9005 278.054 76.1093C277.528 76.7183 276.938 77.2812 276.283 77.7979C275.619 78.2962 274.9 78.7299 274.116 79.1082C273.341 79.4865 272.538 79.7818 271.745 79.994C270.943 80.1878 270.131 80.2985 269.328 80.3355C267.733 80.4093 266.183 80.1878 264.753 79.6249C261.894 78.5361 259.616 76.3585 258.463 73.3873C257.3 70.4253 257.43 67.2511 258.463 64.5752C258.988 63.2464 259.717 61.9823 260.658 60.9304C261.128 60.4044 261.654 59.9246 262.226 59.5001C262.789 59.0572 263.407 58.6697 264.071 58.3467C264.735 58.0237 265.417 57.7839 266.118 57.6178C266.801 57.4332 267.502 57.3225 268.203 57.2763C269.614 57.1933 271.053 57.4055 272.409 57.8208C275.139 58.6697 277.713 60.5244 279.336 63.2649H279.327Z" fill="#FFB31A"/>
</g>
<defs>
<filter id="filter0_d_989_31421" x="0.66724" y="0.349223" width="298.821" height="111.164" filterUnits="userSpaceOnUse" color-interpolation-filters="sRGB">
<feFlood flood-opacity="0" result="BackgroundImageFix"/>
<feColorMatrix in="SourceAlpha" type="matrix" values="0 0 0 0 0 0 0 0 0 0 0 0 0 0 0 0 0 0 127 0" result="hardAlpha"/>
<feOffset dy="-3.72671"/>
<feGaussianBlur stdDeviation="9.31677"/>
<feComposite in2="hardAlpha" operator="out"/>
<feColorMatrix type="matrix" values="0 0 0 0 1 0 0 0 0 0.905882 0 0 0 0 0.498039 0 0 0 1 0"/>
<feBlend mode="normal" in2="BackgroundImageFix" result="effect1_dropShadow_989_31421"/>
<feBlend mode="normal" in="SourceGraphic" in2="effect1_dropShadow_989_31421" result="shape"/>
</filter>
</defs>
</svg>
