<svg width="207" height="59" viewBox="0 0 207 59" fill="none" xmlns="http://www.w3.org/2000/svg">
<path d="M24.8376 39.5038C23.964 42.7119 21.8119 45.2591 18.9034 46.6553C15.9948 48.0408 12.3192 48.2859 8.65429 46.8045C5.01066 45.3444 2.10214 42.3708 0.876936 39.0136C0.578626 38.2036 0.36555 37.3083 0.280319 36.477C0.195088 35.6457 0.216397 34.8143 0.365552 33.9937C0.653208 32.3843 1.39898 30.9562 2.48568 29.6879C3.57238 28.4303 4.86151 27.4284 6.11867 26.5864C6.73659 26.1708 7.37582 25.7871 8.02571 25.446C8.6756 25.105 9.26157 24.8172 9.92211 24.5721C12.4471 23.5916 15.0573 23.3997 17.6995 24.4762C20.331 25.542 22.5044 27.6629 23.8574 30.3593C25.1998 33.0451 25.7219 36.2958 24.8376 39.5038Z" fill="#CECECE"/>
<path d="M57.8108 45.4402C57.4379 49.1385 53.9753 51.8243 50.0973 51.3127C46.2086 50.7904 43.5665 47.2947 44.1737 43.6283C44.7917 39.9514 48.2222 37.4574 51.8659 37.9477C55.5095 38.4273 58.1836 41.7312 57.8108 45.4402Z" fill="white"/>
<path d="M101.141 46.5911C101.513 52.7087 96.4955 57.963 89.9433 58.0376C83.3912 58.1122 78.2773 52.9538 78.5117 46.8362C78.7354 40.7079 83.7534 35.9332 89.7089 35.8586C95.6645 35.7946 100.768 40.4841 101.141 46.6017V46.5911Z" fill="#CECECE"/>
<path d="M142.595 40.6655C143.533 44.4064 142.808 48.2433 140.688 51.3021C138.589 54.3822 135.116 56.695 130.961 57.4091C126.796 58.1018 122.79 57.1 119.807 54.8938C116.813 52.7196 114.821 49.3837 114.416 45.5362C114.011 41.678 115.215 38.0543 117.356 35.2193C119.508 32.4056 122.587 30.37 126.22 29.7731C129.843 29.1443 133.39 30.0289 136.341 31.958C139.282 33.9084 141.647 36.9033 142.595 40.6655Z" fill="#CECECE"/>
<path d="M173.78 29.9968C174.611 31.6381 174.664 33.4499 174.036 35.0912C173.418 36.7432 172.097 38.1607 170.285 38.9494C168.474 39.7381 166.535 39.7061 164.927 39.0667C163.296 38.3952 162.007 37.1163 161.357 35.4003C160.718 33.6844 160.835 31.8619 161.507 30.3272C162.167 28.7711 163.371 27.4815 164.99 26.7781C166.61 26.064 168.368 26.0853 169.944 26.6395C171.521 27.2044 172.949 28.3661 173.769 29.9968H173.78Z" fill="white"/>
<path d="M202.3 2.25436C204.91 3.9916 206.498 6.65607 206.807 9.75752C206.924 11.2709 206.722 12.8909 206.178 14.4683C205.582 15.9924 204.729 17.5698 203.451 18.8487C200.969 21.5025 197.634 22.7388 194.597 22.6429C191.54 22.547 188.738 21.0762 186.831 18.6142C184.902 16.1203 184.157 13.1574 184.221 10.397C184.295 7.62594 185.222 5.12134 187.001 3.21357C187.939 2.28634 188.93 1.52963 190.144 1.05002C191.305 0.527783 192.595 0.229363 193.969 0.1441C196.632 -0.0797156 199.701 0.527782 202.3 2.26502V2.25436Z" fill="white"/>
</svg>
