<svg width="245" height="96" viewBox="0 0 245 96" fill="none" xmlns="http://www.w3.org/2000/svg">
<g filter="url(#filter0_d_989_31438)">
<path d="M43.8376 62.5038C42.964 65.7119 40.8119 68.2591 37.9034 69.6553C34.9948 71.0408 31.3192 71.2859 27.6543 69.8045C24.0107 68.3444 21.1021 65.3708 19.8769 62.0136C19.5786 61.2036 19.3656 60.3083 19.2803 59.477C19.1951 58.6457 19.2164 57.8143 19.3656 56.9937C19.6532 55.3843 20.399 53.9562 21.4857 52.6879C22.5724 51.4303 23.8615 50.4284 25.1187 49.5864C25.7366 49.1708 26.3758 48.7871 27.0257 48.446C27.6756 48.105 28.2616 47.8172 28.9221 47.5721C31.4471 46.5916 34.0573 46.3997 36.6995 47.4762C39.331 48.542 41.5044 50.6629 42.8574 53.3593C44.1998 56.0451 44.7219 59.2958 43.8376 62.5038Z" fill="#FFB31A"/>
<path d="M76.8108 68.4402C76.4379 72.1385 72.9753 74.8243 69.0973 74.3127C65.2086 73.7904 62.5665 70.2947 63.1737 66.6283C63.7917 62.9514 67.2222 60.4574 70.8659 60.9477C74.5095 61.4273 77.1836 64.7312 76.8108 68.4402Z" fill="#FFDE52"/>
<path d="M120.141 69.5911C120.513 75.7087 115.495 80.963 108.943 81.0376C102.391 81.1122 97.2773 75.9538 97.5117 69.8362C97.7354 63.7079 102.753 58.9332 108.709 58.8586C114.664 58.7946 119.768 63.4841 120.141 69.6017V69.5911Z" fill="#FFB31A"/>
<path d="M161.595 63.6655C162.533 67.4064 161.808 71.2433 159.688 74.3021C157.589 77.3822 154.116 79.695 149.961 80.4091C145.796 81.1018 141.79 80.1 138.807 77.8938C135.813 75.7196 133.821 72.3837 133.416 68.5362C133.011 64.678 134.215 61.0543 136.356 58.2193C138.508 55.4056 141.587 53.37 145.22 52.7731C148.843 52.1443 152.39 53.0289 155.341 54.958C158.282 56.9084 160.647 59.9033 161.595 63.6655Z" fill="#FFB31A"/>
<path d="M192.78 52.9968C193.611 54.6381 193.664 56.4499 193.036 58.0912C192.418 59.7432 191.097 61.1607 189.285 61.9494C187.474 62.7381 185.535 62.7061 183.927 62.0667C182.296 61.3952 181.007 60.1163 180.357 58.4003C179.718 56.6844 179.835 54.8619 180.507 53.3272C181.167 51.7711 182.371 50.4815 183.99 49.7781C185.61 49.064 187.368 49.0853 188.944 49.6395C190.521 50.2044 191.949 51.3661 192.769 52.9968H192.78Z" fill="#FFDE52"/>
<path d="M221.3 25.2544C223.91 26.9916 225.498 29.6561 225.807 32.7575C225.924 34.2709 225.722 35.8909 225.178 37.4683C224.582 38.9924 223.729 40.5698 222.451 41.8487C219.969 44.5025 216.634 45.7388 213.597 45.6429C210.54 45.547 207.738 44.0762 205.831 41.6142C203.902 39.1203 203.157 36.1574 203.221 33.397C203.295 30.6259 204.222 28.1213 206.001 26.2136C206.939 25.2863 207.93 24.5296 209.144 24.05C210.305 23.5278 211.595 23.2294 212.969 23.1441C215.632 22.9203 218.701 23.5278 221.3 25.265V25.2544Z" fill="#FFDE52"/>
</g>
<defs>
<filter id="filter0_d_989_31438" x="0.596928" y="0.73936" width="243.875" height="95.2058" filterUnits="userSpaceOnUse" color-interpolation-filters="sRGB">
<feFlood flood-opacity="0" result="BackgroundImageFix"/>
<feColorMatrix in="SourceAlpha" type="matrix" values="0 0 0 0 0 0 0 0 0 0 0 0 0 0 0 0 0 0 127 0" result="hardAlpha"/>
<feOffset dy="-3.72671"/>
<feGaussianBlur stdDeviation="9.31677"/>
<feComposite in2="hardAlpha" operator="out"/>
<feColorMatrix type="matrix" values="0 0 0 0 1 0 0 0 0 0.905882 0 0 0 0 0.498039 0 0 0 1 0"/>
<feBlend mode="normal" in2="BackgroundImageFix" result="effect1_dropShadow_989_31438"/>
<feBlend mode="normal" in="SourceGraphic" in2="effect1_dropShadow_989_31438" result="shape"/>
</filter>
</defs>
</svg>
