<svg width="365" height="96" viewBox="0 0 365 96" fill="none" xmlns="http://www.w3.org/2000/svg">
<path d="M22.8622 41.7471C20.8319 44.49 17.8433 46.151 14.5796 46.4072C11.3064 46.7109 7.77703 45.591 4.94974 43.0379C2.11295 40.5037 0.623408 37.0205 0.57597 33.7271C0.53802 30.3862 1.89474 27.2921 4.45638 25.0427C7.02751 22.7933 10.2628 21.7493 13.2703 21.7303C16.3253 21.6924 19.2095 22.651 21.496 24.7105C23.7731 26.7701 25.0444 29.6174 25.3385 32.6641C25.5947 35.7392 24.8736 39.0136 22.8433 41.7566L22.8622 41.7471Z" fill="#CECECE"/>
<path d="M45.4533 60.9666C43.6411 64.5637 39.0966 65.9873 35.4059 63.9183C33.5559 62.9217 32.3035 61.2608 31.8007 59.41C31.2883 57.5687 31.5066 55.5756 32.5502 53.8482C33.5843 52.1114 35.2352 50.9534 37.0188 50.4694C38.8025 49.9948 40.7474 50.1751 42.4837 51.1053C45.8992 53.0225 47.2844 57.3504 45.4628 60.976L45.4533 60.9666Z" fill="#CECECE"/>
<path d="M81.1446 71.4733C80.3382 74.0454 78.5355 76.0576 76.249 77.1585C73.9625 78.2595 71.1732 78.5062 68.5167 77.5287C65.8412 76.5985 63.8393 74.6244 62.7767 72.318C61.7046 70.0212 61.6002 67.3162 62.6154 64.8201C63.6306 62.3144 65.5565 60.4921 67.8146 59.4576C70.0726 58.4326 72.6438 58.2807 75.1105 59.1349C77.5583 60.0365 79.4463 61.7924 80.5469 64.0228C81.638 66.2627 81.951 68.9012 81.1446 71.4733Z" fill="white"/>
<path d="M116.571 80.0814C115.983 83.4508 114.057 86.2411 111.362 87.997C110.015 88.8702 108.478 89.5156 106.837 89.8193C105.195 90.1135 103.459 90.0945 101.704 89.7244C98.2028 88.9176 95.3471 86.8676 93.6583 84.0962C91.9505 81.3437 91.3908 78.0124 92.2731 74.7189C93.1555 71.4255 95.2901 68.787 97.9467 67.164C99.2749 66.3668 100.745 65.7973 102.282 65.5031C103.819 65.2183 105.413 65.2563 107.026 65.598C108.639 65.9397 110.1 66.604 111.372 67.5152C112.652 68.4168 113.753 69.5273 114.616 70.8371C116.343 73.4471 117.168 76.731 116.58 80.0814H116.571Z" fill="#CECECE"/>
<path d="M150.194 84.1249C149.976 87.5227 148.363 90.5409 145.887 92.5815C143.411 94.6031 140.052 95.7515 136.504 95.3434C132.946 95.0017 129.9 93.1699 127.898 90.6738C125.897 88.1491 124.957 84.8652 125.451 81.4959C125.944 78.1171 127.756 75.2792 130.223 73.3525C132.699 71.3973 135.811 70.4482 139.094 70.7614C142.367 71.1411 145.223 72.7261 147.234 75.1463C149.245 77.5476 150.422 80.6986 150.194 84.1059V84.1249Z" fill="white"/>
<path d="M180.613 84.666C180.689 87.1337 179.749 89.3925 178.117 91.0345C176.495 92.667 174.19 93.7584 171.637 93.73C166.505 93.7584 162.472 89.6108 162.624 84.6944C162.776 79.7591 166.799 75.8962 171.599 75.8772C174.009 75.9057 176.201 76.8168 177.833 78.4113C179.465 80.0058 180.527 82.2078 180.613 84.666Z" fill="#CECECE"/>
<path d="M217.765 81.2397C218.296 84.609 217.376 87.874 215.393 90.4271C213.419 92.9707 210.364 94.755 206.807 95.1726C203.249 95.5618 199.881 94.5083 197.385 92.4487C194.89 90.4081 193.268 87.4564 193.031 84.0396C192.793 80.6513 193.951 77.4433 195.943 75.042C197.945 72.6597 200.772 70.9703 204.046 70.6191C207.319 70.2395 210.44 71.2361 212.926 73.1343C215.402 75.023 217.233 77.8704 217.765 81.2397Z" fill="#CECECE"/>
<path d="M248.447 74.6908C249.168 77.3198 248.741 80.0058 247.403 82.2267C246.065 84.4002 243.826 86.1086 241.056 86.7825C238.276 87.3994 235.515 86.9058 233.343 85.5201C231.17 84.125 229.586 81.923 229.064 79.2465C228.542 76.57 229.149 73.9315 230.506 71.834C231.863 69.7364 233.959 68.1039 236.549 67.5345C239.121 66.9081 241.711 67.3921 243.864 68.7019C246.009 69.9642 247.726 72.0523 248.447 74.6908Z" fill="white"/>
<path d="M282.718 62.5992C284.094 65.7218 284.046 69.1006 282.756 72.0713C281.494 75.08 278.942 77.5382 275.574 78.8669C273.885 79.5028 272.139 79.7496 270.469 79.6927C268.8 79.6452 267.177 79.2466 265.716 78.5442C262.785 77.1585 260.498 74.6624 259.454 71.4164C258.411 68.1704 258.771 64.7916 260.109 61.9917C260.783 60.606 261.703 59.3248 262.822 58.2428C263.942 57.1703 265.289 56.3255 266.817 55.7561C269.843 54.5602 273.107 54.7975 275.963 55.9744C278.819 57.1892 281.333 59.4766 282.718 62.5992Z" fill="#CECECE"/>
<path d="M309.035 48.7894C310.231 50.7256 310.515 52.975 309.965 55.0631C309.415 57.1511 307.992 58.9924 305.923 60.1883C303.865 61.3936 301.493 61.536 299.443 60.9665C297.385 60.3781 295.62 58.9829 294.576 56.9518C293.542 54.9302 293.419 52.6713 294.007 50.6592C294.595 48.6376 295.942 46.9387 297.84 45.8282C299.747 44.7272 301.948 44.5564 303.959 45.0689C305.971 45.5814 307.83 46.8532 309.026 48.7894H309.035Z" fill="white"/>
<path d="M337.289 27.7191C339.073 29.6933 339.861 32.2179 339.633 34.7331C339.519 35.9859 339.168 37.2577 338.551 38.4156C337.925 39.5545 337.052 40.6176 335.961 41.5097C333.798 43.3225 331.066 43.9774 328.58 43.7022C326.085 43.4269 323.779 42.1266 322.204 39.9627C320.639 37.8177 320.088 35.2361 320.383 32.8064C320.677 30.3671 321.882 28.1747 323.827 26.5328C324.813 25.726 325.923 25.166 327.09 24.8433C328.248 24.5017 329.453 24.3688 330.667 24.4637C333.086 24.663 335.506 25.745 337.289 27.7191Z" fill="#CECECE"/>
<path d="M360.582 2.42543C362.821 4.12434 364.13 6.57306 364.387 9.23057C364.51 10.5593 364.387 11.9355 363.979 13.2738C363.571 14.612 362.84 15.8649 361.882 17.0038C359.965 19.3101 357.261 20.544 354.605 20.7148C351.948 20.8951 349.32 19.984 347.28 18.0383C345.26 16.1021 344.188 13.511 344.036 10.939C343.893 8.37636 344.69 5.85172 346.389 3.79215C347.252 2.76711 348.315 1.99833 349.444 1.41937C350.563 0.830923 351.797 0.470275 353.077 0.3374C355.63 0.0811397 358.362 0.726518 360.601 2.42543H360.582Z" fill="white"/>
</svg>
