<svg width="403" height="134" viewBox="0 0 403 134" fill="none" xmlns="http://www.w3.org/2000/svg">
<g filter="url(#filter0_d_989_31398)">
<path d="M41.8622 64.7471C39.8319 67.49 36.8433 69.151 33.5796 69.4072C30.3064 69.7109 26.777 68.591 23.9497 66.0379C21.113 63.5037 19.6234 60.0205 19.576 56.7271C19.538 53.3862 20.8947 50.2921 23.4564 48.0427C26.0275 45.7933 29.2628 44.7493 32.2703 44.7303C35.3253 44.6924 38.2095 45.651 40.496 47.7105C42.7731 49.7701 44.0444 52.6174 44.3385 55.6641C44.5947 58.7392 43.8736 62.0136 41.8433 64.7566L41.8622 64.7471Z" fill="#FFB31A"/>
<path d="M64.4533 83.9666C62.6411 87.5637 58.0966 88.9873 54.4059 86.9183C52.5559 85.9217 51.3035 84.2608 50.8007 82.41C50.2883 80.5687 50.5066 78.5756 51.5502 76.8482C52.5843 75.1114 54.2352 73.9534 56.0188 73.4694C57.8025 72.9948 59.7474 73.1751 61.4837 74.1053C64.8992 76.0225 66.2844 80.3504 64.4628 83.976L64.4533 83.9666Z" fill="#FFB31A"/>
<path d="M100.145 94.4733C99.3382 97.0454 97.5355 99.0576 95.249 100.159C92.9625 101.259 90.1732 101.506 87.5167 100.529C84.8412 99.5985 82.8393 97.6244 81.7767 95.318C80.7046 93.0212 80.6002 90.3162 81.6154 87.8201C82.6306 85.3144 84.5565 83.4921 86.8146 82.4576C89.0726 81.4326 91.6438 81.2807 94.1105 82.1349C96.5583 83.0365 98.4463 84.7924 99.5469 87.0228C100.638 89.2627 100.951 91.9012 100.145 94.4733Z" fill="#FFDE52"/>
<path d="M135.571 103.081C134.983 106.451 133.057 109.241 130.362 110.997C129.015 111.87 127.478 112.516 125.837 112.819C124.195 113.114 122.459 113.095 120.704 112.724C117.203 111.918 114.347 109.868 112.658 107.096C110.951 104.344 110.391 101.012 111.273 97.7189C112.155 94.4255 114.29 91.787 116.947 90.164C118.275 89.3668 119.745 88.7973 121.282 88.5031C122.819 88.2183 124.413 88.2563 126.026 88.598C127.639 88.9397 129.1 89.604 130.372 90.5152C131.652 91.4168 132.753 92.5273 133.616 93.8371C135.343 96.4471 136.168 99.731 135.58 103.081H135.571Z" fill="#FFB31A"/>
<path d="M169.194 107.125C168.976 110.523 167.363 113.541 164.887 115.582C162.411 117.603 159.052 118.752 155.504 118.343C151.946 118.002 148.9 116.17 146.898 113.674C144.897 111.149 143.957 107.865 144.451 104.496C144.944 101.117 146.756 98.2792 149.223 96.3525C151.699 94.3973 154.811 93.4482 158.094 93.7614C161.367 94.1411 164.223 95.7261 166.234 98.1463C168.245 100.548 169.422 103.699 169.194 107.106V107.125Z" fill="#FFDE52"/>
<path d="M199.613 107.666C199.689 110.134 198.749 112.393 197.117 114.035C195.495 115.667 193.19 116.758 190.637 116.73C185.505 116.758 181.472 112.611 181.624 107.694C181.776 102.759 185.799 98.8962 190.599 98.8772C193.009 98.9057 195.201 99.8168 196.833 101.411C198.465 103.006 199.527 105.208 199.613 107.666Z" fill="#FFB31A"/>
<path d="M236.765 104.24C237.296 107.609 236.376 110.874 234.393 113.427C232.419 115.971 229.364 117.755 225.807 118.173C222.249 118.562 218.881 117.508 216.385 115.449C213.89 113.408 212.268 110.456 212.031 107.04C211.793 103.651 212.951 100.443 214.943 98.042C216.945 95.6597 219.772 93.9703 223.046 93.6191C226.319 93.2395 229.44 94.2361 231.926 96.1343C234.402 98.023 236.233 100.87 236.765 104.24Z" fill="#FFB31A"/>
<path d="M267.447 97.6908C268.168 100.32 267.741 103.006 266.403 105.227C265.065 107.4 262.826 109.109 260.056 109.782C257.276 110.399 254.515 109.906 252.343 108.52C250.17 107.125 248.586 104.923 248.064 102.247C247.542 99.57 248.149 96.9315 249.506 94.834C250.863 92.7364 252.959 91.1039 255.549 90.5345C258.121 89.9081 260.711 90.3921 262.864 91.7019C265.009 92.9642 266.726 95.0523 267.447 97.6908Z" fill="#FFDE52"/>
<path d="M301.718 85.5992C303.094 88.7218 303.046 92.1006 301.756 95.0713C300.494 98.08 297.942 100.538 294.574 101.867C292.885 102.503 291.139 102.75 289.469 102.693C287.8 102.645 286.177 102.247 284.716 101.544C281.785 100.159 279.498 97.6624 278.454 94.4164C277.411 91.1704 277.771 87.7916 279.109 84.9917C279.783 83.606 280.703 82.3248 281.822 81.2428C282.942 80.1703 284.289 79.3255 285.817 78.7561C288.843 77.5602 292.107 77.7975 294.963 78.9744C297.819 80.1892 300.333 82.4766 301.718 85.5992Z" fill="#FFB31A"/>
<path d="M328.035 71.7894C329.231 73.7256 329.515 75.975 328.965 78.0631C328.415 80.1511 326.992 81.9924 324.923 83.1883C322.865 84.3936 320.493 84.536 318.443 83.9665C316.385 83.3781 314.62 81.9829 313.576 79.9518C312.542 77.9302 312.419 75.6713 313.007 73.6592C313.595 71.6376 314.942 69.9387 316.84 68.8282C318.747 67.7272 320.948 67.5564 322.959 68.0689C324.971 68.5814 326.83 69.8532 328.026 71.7894H328.035Z" fill="#FFDE52"/>
<path d="M356.289 50.7191C358.073 52.6933 358.861 55.2179 358.633 57.7331C358.519 58.9859 358.168 60.2577 357.551 61.4156C356.925 62.5545 356.052 63.6176 354.961 64.5097C352.798 66.3225 350.066 66.9774 347.58 66.7022C345.085 66.4269 342.779 65.1266 341.204 62.9627C339.639 60.8177 339.088 58.2361 339.383 55.8064C339.677 53.3671 340.882 51.1747 342.827 49.5328C343.813 48.726 344.923 48.166 346.09 47.8433C347.248 47.5017 348.453 47.3688 349.667 47.4637C352.086 47.663 354.506 48.745 356.289 50.7191Z" fill="#FFB31A"/>
<path d="M379.582 25.4254C381.821 27.1243 383.13 29.5731 383.387 32.2306C383.51 33.5593 383.387 34.9355 382.979 36.2738C382.571 37.612 381.84 38.8649 380.882 40.0038C378.965 42.3101 376.261 43.544 373.605 43.7148C370.948 43.8951 368.32 42.984 366.28 41.0383C364.26 39.1021 363.188 36.511 363.036 33.939C362.893 31.3764 363.69 28.8517 365.389 26.7921C366.252 25.7671 367.315 24.9983 368.444 24.4194C369.563 23.8309 370.797 23.4703 372.077 23.3374C374.63 23.0811 377.362 23.7265 379.601 25.4254H379.582Z" fill="#FFDE52"/>
</g>
<defs>
<filter id="filter0_d_989_31398" x="0.941654" y="0.922954" width="401.125" height="132.409" filterUnits="userSpaceOnUse" color-interpolation-filters="sRGB">
<feFlood flood-opacity="0" result="BackgroundImageFix"/>
<feColorMatrix in="SourceAlpha" type="matrix" values="0 0 0 0 0 0 0 0 0 0 0 0 0 0 0 0 0 0 127 0" result="hardAlpha"/>
<feOffset dy="-3.72671"/>
<feGaussianBlur stdDeviation="9.31677"/>
<feComposite in2="hardAlpha" operator="out"/>
<feColorMatrix type="matrix" values="0 0 0 0 1 0 0 0 0 0.905882 0 0 0 0 0.498039 0 0 0 1 0"/>
<feBlend mode="normal" in2="BackgroundImageFix" result="effect1_dropShadow_989_31398"/>
<feBlend mode="normal" in="SourceGraphic" in2="effect1_dropShadow_989_31398" result="shape"/>
</filter>
</defs>
</svg>
