<svg width="262" height="75" viewBox="0 0 262 75" fill="none" xmlns="http://www.w3.org/2000/svg">
<path d="M20.572 19.8389C18.5335 22.2749 15.6557 23.6221 12.538 23.6498C9.45723 23.6314 6.11819 22.3119 3.61852 19.4791C1.11885 16.6647 -0.0249081 13.0661 0.380943 9.85495C0.546972 8.2863 1.12807 6.75457 1.97667 5.5181C2.82527 4.26318 3.97825 3.22972 5.36183 2.4454C8.15667 0.885979 11.2467 0.516891 13.94 0.793711C16.6334 1.10744 19.0501 2.11321 20.8026 4.09708C22.5459 6.09019 23.4868 8.70153 23.4775 11.5528C23.5052 14.3579 22.6105 17.3937 20.5628 19.8389H20.572Z" fill="#CECECE"/>
<path d="M41.7408 34.1319C40.2649 36.8262 36.806 37.7398 34.0573 36.0973C31.2901 34.4548 30.4876 30.9207 32.1756 28.3832C33.8728 25.818 37.2211 25.0799 39.7668 26.5839C42.3034 28.0972 43.2166 31.4467 41.75 34.1319H41.7408Z" fill="white"/>
<path d="M73.8936 48.4159C73.0542 50.7873 71.3202 52.5959 69.1433 53.5647C66.9849 54.5059 64.3746 54.6536 61.9302 53.657C59.4767 52.6974 57.6688 50.7965 56.7464 48.6281C55.8333 46.4228 55.8056 43.9129 56.8387 41.6153C57.8625 39.3177 59.7257 37.6476 61.8472 36.7802C63.9964 35.8852 66.3946 35.8206 68.6729 36.7064C70.9235 37.6291 72.6484 39.3269 73.5892 41.4492C74.5485 43.5438 74.7422 46.0352 73.9028 48.4159H73.8936Z" fill="#CECECE"/>
<path d="M106.613 57.717C105.93 60.8359 104.039 63.3642 101.457 64.9144C100.165 65.6987 98.7079 66.2154 97.1768 66.4369C95.6364 66.6583 94.013 66.5937 92.3988 66.16C89.1612 65.3204 86.597 63.235 85.1119 60.6329C83.6269 58.0031 83.2118 54.875 84.1527 51.83C85.0935 48.785 87.1781 46.4043 89.7147 44.9833C92.2604 43.5531 95.2767 43.0825 98.2467 43.8484C99.7318 44.2544 101.069 44.9095 102.231 45.7953C103.394 46.6904 104.371 47.7884 105.128 49.0249C106.64 51.5163 107.286 54.6167 106.604 57.7263L106.613 57.717Z" fill="white"/>
<path d="M137.806 62.7461C137.474 65.9111 135.869 68.6516 133.48 70.4786C131.091 72.2872 127.918 73.2007 124.616 72.7116C121.314 72.2226 118.528 70.4694 116.767 68.0241C114.996 65.5974 114.239 62.5246 114.83 59.3873C115.42 56.2593 117.219 53.6664 119.589 51.9594C121.96 50.2708 124.911 49.4403 127.955 49.8832C130.999 50.3353 133.582 51.9501 135.371 54.2754C137.151 56.573 138.138 59.5719 137.806 62.7461Z" fill="#CECECE"/>
<path d="M166.152 64.2223C166.152 66.5199 165.221 68.6145 163.652 70.1186C162.094 71.5949 159.898 72.5177 157.509 72.4346C152.704 72.2962 149.07 68.2916 149.383 63.7148C149.697 59.1011 153.562 55.6409 158.026 55.7608C160.267 55.8439 162.278 56.7758 163.754 58.3168C165.221 59.8301 166.161 61.9062 166.171 64.2131L166.152 64.2223Z" fill="white"/>
<path d="M200.853 61.6018C201.342 64.7483 200.484 67.8026 198.602 70.1832C196.73 72.5362 193.843 74.2156 190.476 74.5477C187.119 74.8707 183.964 73.8372 181.667 71.8718C179.361 69.9341 177.904 67.1197 177.756 63.9271C177.6 60.7529 178.743 57.8094 180.634 55.5856C182.534 53.3895 185.163 51.8762 188.189 51.5809C191.214 51.2856 194.083 52.2084 196.37 54.0169C198.649 55.7978 200.355 58.446 200.853 61.5926V61.6018Z" fill="white"/>
<path d="M229.355 54.9672C230.13 57.394 229.826 59.9038 228.645 62.0261C227.465 64.1299 225.38 65.8001 222.779 66.4921C221.469 66.8243 220.168 66.8889 218.923 66.7228C217.687 66.5383 216.516 66.1046 215.483 65.4771C213.417 64.2407 211.913 62.1922 211.397 59.6916C210.88 57.2002 211.415 54.7365 212.623 52.7434C213.232 51.7469 214.016 50.8887 214.938 50.1874C215.861 49.4677 216.912 48.9325 218.093 48.6372C220.445 48.0098 222.834 48.4066 224.873 49.5323C226.893 50.6488 228.581 52.5404 229.355 54.9672Z" fill="#CECECE"/>
<path d="M260.327 41.2649C261.95 44.0054 262.264 47.1427 261.342 50.0677C260.89 51.5441 260.106 52.9005 259.054 54.1093C258.528 54.7183 257.938 55.2812 257.283 55.7979C256.619 56.2962 255.9 56.7299 255.116 57.1082C254.341 57.4865 253.538 57.7818 252.745 57.994C251.943 58.1878 251.131 58.2985 250.328 58.3355C248.733 58.4093 247.183 58.1878 245.753 57.6249C242.894 56.5361 240.616 54.3585 239.463 51.3873C238.3 48.4253 238.43 45.2511 239.463 42.5752C239.988 41.2464 240.717 39.9823 241.658 38.9304C242.128 38.4044 242.654 37.9246 243.226 37.5001C243.789 37.0572 244.407 36.6697 245.071 36.3467C245.735 36.0237 246.417 35.7839 247.118 35.6178C247.801 35.4332 248.502 35.3225 249.203 35.2763C250.614 35.1933 252.053 35.4055 253.409 35.8208C256.139 36.6697 258.713 38.5244 260.336 41.2649H260.327Z" fill="#CECECE"/>
</svg>
