<svg width="122" height="52" viewBox="0 0 122 52" fill="none" xmlns="http://www.w3.org/2000/svg">
<path d="M105.117 36.874C104.742 34.5715 105.313 32.3627 106.37 30.606C107.445 28.8578 108.996 27.5445 110.837 27.0158C112.687 26.4871 114.512 26.8026 116.259 27.7151C117.129 28.1756 117.973 28.7725 118.748 29.5059C119.524 30.2478 120.24 31.1262 120.777 32.1581C121.314 33.1899 121.621 34.273 121.664 35.3731C121.706 36.4817 121.476 37.5988 120.99 38.6392C120.027 40.72 118.007 42.4853 115.492 43.2016C112.969 43.9265 110.488 43.5001 108.63 42.2977C106.754 41.1123 105.484 39.168 105.117 36.874Z" fill="white"/>
<path d="M70.2261 38.1109C70.6012 34.7936 72.2465 31.9538 74.4714 29.9583C76.7134 27.9627 79.5351 26.82 82.5699 26.9224C85.6046 27.0247 88.3069 28.3636 90.3955 30.4955C92.467 32.6275 93.9332 35.5525 94.1208 38.8869C94.3083 42.2128 93.0978 45.3169 90.8388 47.5597C88.5968 49.8026 85.3233 51.1755 81.743 51.0476C78.1626 50.9282 75.0255 49.3421 72.954 46.9628C70.8655 44.5835 69.8511 41.4197 70.2261 38.1109Z" fill="#CECECE"/>
<path d="M45.0696 34.0173C45.7345 31.7659 47.2178 30.0007 49.0335 28.9006C50.8493 27.809 52.9975 27.3741 55.1457 27.8602C57.2854 28.3463 59.0585 29.6595 60.2264 31.4419C61.3943 33.2242 61.9654 35.4585 61.5818 37.7781C61.1982 40.0891 59.9025 42.0334 58.0526 43.2529C56.2113 44.4724 53.8244 44.9756 51.4034 44.4298C48.9824 43.884 47.0302 42.4001 45.8879 40.4984C44.7371 38.5967 44.4132 36.2771 45.0781 34.0258L45.0696 34.0173Z" fill="#CECECE"/>
<path d="M18.6265 20.91C20.1013 18.8889 22.1898 17.6353 24.2954 17.0554C26.401 16.5011 28.5662 16.612 30.4843 17.6439C32.4023 18.6672 33.7748 20.4239 34.5079 22.5303C35.224 24.6367 35.2922 27.0842 34.3545 29.3952C33.4168 31.6978 31.6181 33.4289 29.3676 34.222C27.1256 35.0322 24.4403 34.8957 21.9937 33.5909C19.5472 32.2862 17.8678 30.0945 17.2796 27.7323C16.6743 25.3786 17.1603 22.9141 18.6265 20.91Z" fill="white"/>
<path d="M4.28749 1.04866C5.65996 0.76724 7.03243 1.0316 8.10653 1.54327C9.20621 2.06347 10.0502 2.83098 10.4764 3.87138C10.7151 4.38305 10.8003 4.93736 10.8003 5.5002C10.8174 6.05451 10.698 6.65146 10.502 7.22282C10.1269 8.36555 9.34261 9.51681 8.17473 10.2843C6.99833 11.0518 5.62586 11.248 4.29601 10.8386C3.64814 10.6254 3.02584 10.2502 2.46322 9.74706C1.91764 9.23539 1.46583 8.57875 1.12484 7.8283C0.494015 6.29329 0.56221 4.65594 1.17599 3.4194C1.81533 2.16581 2.92354 1.33008 4.29601 1.04866H4.28749Z" fill="#CECECE"/>
</svg>
