<svg width="159" height="88" viewBox="0 0 159 88" fill="none" xmlns="http://www.w3.org/2000/svg">
<g filter="url(#filter0_d_989_31451)">
<path d="M123.117 58.874C122.742 56.5715 123.313 54.3627 124.37 52.606C125.445 50.8578 126.996 49.5445 128.837 49.0158C130.687 48.4871 132.512 48.8026 134.259 49.7151C135.129 50.1756 135.973 50.7725 136.748 51.5059C137.524 52.2478 138.24 53.1262 138.777 54.1581C139.314 55.1899 139.621 56.273 139.664 57.3731C139.706 58.4817 139.476 59.5988 138.99 60.6392C138.027 62.72 136.007 64.4853 133.492 65.2016C130.969 65.9265 128.488 65.5001 126.63 64.2977C124.754 63.1123 123.484 61.168 123.117 58.874Z" fill="#FFDE52"/>
<path d="M88.2261 60.1109C88.6012 56.7936 90.2465 53.9538 92.4714 51.9583C94.7134 49.9627 97.5351 48.82 100.57 48.9224C103.605 49.0247 106.307 50.3636 108.395 52.4955C110.467 54.6275 111.933 57.5525 112.121 60.8869C112.308 64.2128 111.098 67.3169 108.839 69.5597C106.597 71.8026 103.323 73.1755 99.743 73.0476C96.1626 72.9282 93.0255 71.3421 90.954 68.9628C88.8655 66.5835 87.8511 63.4197 88.2261 60.1109Z" fill="#FFB31A"/>
<path d="M63.0696 56.0173C63.7345 53.7659 65.2178 52.0007 67.0335 50.9006C68.8493 49.809 70.9975 49.3741 73.1457 49.8602C75.2854 50.3463 77.0585 51.6595 78.2264 53.4419C79.3943 55.2242 79.9654 57.4585 79.5818 59.7781C79.1982 62.0891 77.9025 64.0334 76.0526 65.2529C74.2113 66.4724 71.8244 66.9756 69.4034 66.4298C66.9824 65.884 65.0302 64.4001 63.8879 62.4984C62.7371 60.5967 62.4132 58.2771 63.0781 56.0258L63.0696 56.0173Z" fill="#FFB31A"/>
<path d="M36.6265 42.91C38.1013 40.8889 40.1898 39.6353 42.2954 39.0554C44.401 38.5011 46.5662 38.612 48.4843 39.6439C50.4023 40.6672 51.7748 42.4239 52.5079 44.5303C53.224 46.6367 53.2922 49.0842 52.3545 51.3952C51.4168 53.6978 49.6181 55.4289 47.3676 56.222C45.1256 57.0322 42.4403 56.8957 39.9937 55.5909C37.5472 54.2862 35.8678 52.0945 35.2796 49.7323C34.6743 47.3786 35.1603 44.9141 36.6265 42.91Z" fill="#FFDE52"/>
<path d="M22.2875 23.0487C23.66 22.7672 25.0324 23.0316 26.1065 23.5433C27.2062 24.0635 28.0502 24.831 28.4764 25.8714C28.7151 26.383 28.8003 26.9374 28.8003 27.5002C28.8174 28.0545 28.698 28.6515 28.502 29.2228C28.1269 30.3656 27.3426 31.5168 26.1747 32.2843C24.9983 33.0518 23.6259 33.248 22.296 32.8386C21.6481 32.6254 21.0258 32.2502 20.4632 31.7471C19.9176 31.2354 19.4658 30.5787 19.1248 29.8283C18.494 28.2933 18.5622 26.6559 19.176 25.4194C19.8153 24.1658 20.9235 23.3301 22.296 23.0487H22.2875Z" fill="#FFB31A"/>
</g>
<defs>
<filter id="filter0_d_989_31451" x="0.0490761" y="0.573833" width="158.253" height="87.3889" filterUnits="userSpaceOnUse" color-interpolation-filters="sRGB">
<feFlood flood-opacity="0" result="BackgroundImageFix"/>
<feColorMatrix in="SourceAlpha" type="matrix" values="0 0 0 0 0 0 0 0 0 0 0 0 0 0 0 0 0 0 127 0" result="hardAlpha"/>
<feOffset dy="-3.72671"/>
<feGaussianBlur stdDeviation="9.31677"/>
<feComposite in2="hardAlpha" operator="out"/>
<feColorMatrix type="matrix" values="0 0 0 0 1 0 0 0 0 0.905882 0 0 0 0 0.498039 0 0 0 1 0"/>
<feBlend mode="normal" in2="BackgroundImageFix" result="effect1_dropShadow_989_31451"/>
<feBlend mode="normal" in="SourceGraphic" in2="effect1_dropShadow_989_31451" result="shape"/>
</filter>
</defs>
</svg>
