<svg width="25" height="24" viewBox="0 0 25 24" fill="none" xmlns="http://www.w3.org/2000/svg">
<path d="M23.3922 15.5892V16.5901C23.3868 16.6287 23.3787 16.6645 23.3733 16.7031C23.3246 17.0864 23.2949 17.4752 23.2273 17.8557C23.1381 18.3548 22.9759 18.8318 22.6785 19.2482C22.4514 19.5653 22.1621 19.7941 21.7809 19.8906C21.4836 19.9678 21.1835 19.9458 20.8861 19.8851C20.3157 19.7693 19.802 19.5184 19.3343 19.1792C18.6693 18.6967 18.0177 18.1893 17.3689 17.6792C16.6309 17.0974 15.8847 16.5267 15.0548 16.0827C13.2462 15.1177 11.3997 15.0708 9.52624 15.8677C8.74765 16.1985 8.08801 16.7197 7.46892 17.296C6.9039 17.8199 6.3524 18.3658 5.77386 18.8759C5.13315 19.4412 4.40592 19.8437 3.54893 19.9568C3.21641 20.0009 2.88118 20.034 2.55136 19.9375C2.05122 19.7914 1.73222 19.4329 1.50243 18.9779C1.22397 18.4265 1.10772 17.8309 1.04554 17.2215C0.950924 16.3281 0.991476 15.4375 1.09421 14.5469C1.2456 13.2482 1.52946 11.9798 1.93498 10.739C2.41889 9.25281 3.04339 7.83278 3.93823 6.55062C4.40322 5.88334 4.9358 5.27673 5.59003 4.79144C6.30644 4.2703 7.09314 3.99457 7.98798 4.00008C10.8374 4.01387 13.6841 4.00835 16.5336 4.00008C17.2392 4.00008 17.8853 4.18758 18.4854 4.55431C19.3046 5.05614 19.9345 5.75651 20.4833 6.54235C21.2078 7.57911 21.7512 8.71237 22.1892 9.90078C22.8109 11.5883 23.2165 13.3254 23.3516 15.1259C23.3624 15.2803 23.3787 15.4348 23.3922 15.5892ZM5.15005 9.78497C5.15005 11.4283 6.46122 12.7629 8.07247 12.7629C9.68372 12.7629 10.9922 11.4311 10.9922 9.78497C10.9922 8.1416 9.68372 6.80705 8.07247 6.80981C6.45581 6.80981 5.14735 8.14436 5.15005 9.78497ZM19.3143 11.9919C19.7253 11.3605 19.5495 10.4781 18.925 10.059C18.2843 9.62612 17.4273 9.79707 17.011 10.4395C16.5866 11.0985 16.7542 11.9726 17.3922 12.4C18.0302 12.8301 18.8845 12.6482 19.3116 11.9919H19.3143ZM14.4871 8.46697C15.0791 8.85024 15.8712 8.67377 16.2443 8.07267C16.6228 7.46881 16.4443 6.65815 15.8469 6.27213C15.2575 5.89161 14.4654 6.07084 14.0924 6.6747C13.7193 7.2758 13.895 8.0837 14.4871 8.46697Z" stroke="black" stroke-width="1.5" stroke-linecap="round" stroke-linejoin="round"/>
</svg>
