<svg width="25" height="24" viewBox="0 0 25 24" fill="none" xmlns="http://www.w3.org/2000/svg">
<path d="M9.19238 9C9.19238 7.34315 10.5355 6 12.1924 6C13.8492 6 15.1924 7.34315 15.1924 9C15.1924 10.313 14.3489 11.4289 13.1743 11.8356C12.6524 12.0163 12.1924 12.4477 12.1924 13V14M6.19238 22H18.1924C20.4015 22 22.1924 20.2091 22.1924 18V6C22.1924 3.79086 20.4015 2 18.1924 2H6.19238C3.98324 2 2.19238 3.79086 2.19238 6V18C2.19238 20.2091 3.98324 22 6.19238 22Z" stroke="black" stroke-width="1.5" stroke-linecap="round" stroke-linejoin="round"/>
<circle cx="12.1924" cy="17" r="1" fill="black"/>
</svg>
