<svg width="25" height="24" viewBox="0 0 25 24" fill="none" xmlns="http://www.w3.org/2000/svg">
<path d="M4.19238 11H20.1924M4.19238 11C3.08781 11 2.19238 10.1046 2.19238 9V8C2.19238 6.89543 3.08781 6 4.19238 6H20.1924C21.297 6 22.1924 6.89543 22.1924 8V9C22.1924 10.1046 21.297 11 20.1924 11M4.19238 11L4.19238 20C4.19238 21.1046 5.08781 22 6.19238 22H18.1924C19.297 22 20.1924 21.1046 20.1924 20V11M12.1924 6H16.1924C17.297 6 18.1924 5.10457 18.1924 4C18.1924 2.89543 17.297 2 16.1924 2C13.9832 2 12.1924 3.79086 12.1924 6ZM12.1924 6H8.19238C7.08781 6 6.19238 5.10457 6.19238 4C6.19238 2.89543 7.08781 2 8.19238 2C10.4015 2 12.1924 3.79086 12.1924 6ZM12.1924 6V22" stroke="black" stroke-width="1.5" stroke-linecap="round"/>
</svg>
