<svg width="32" height="32" viewBox="0 0 32 32" fill="none" xmlns="http://www.w3.org/2000/svg">
<g clip-path="url(#clip0_320_101203)">
<path d="M27 10H5C4.44772 10 4 10.4477 4 11V15C4 15.5523 4.44772 16 5 16H27C27.5523 16 28 15.5523 28 15V11C28 10.4477 27.5523 10 27 10Z" stroke="white" stroke-linecap="round" stroke-linejoin="round"/>
<path d="M26 16V25C26 25.2652 25.8946 25.5196 25.7071 25.7071C25.5196 25.8946 25.2652 26 25 26H7C6.73478 26 6.48043 25.8946 6.29289 25.7071C6.10536 25.5196 6 25.2652 6 25V16" stroke="white" stroke-linecap="round" stroke-linejoin="round"/>
<path d="M16 10V26" stroke="white" stroke-linecap="round" stroke-linejoin="round"/>
<path d="M22.0987 3.90135C23.2662 5.06885 23.335 7.03385 22.0987 8.12885C19.985 10.0001 16 10.0001 16 10.0001C16 10.0001 16 6.0151 17.875 3.90135C18.9662 2.6651 20.9312 2.73385 22.0987 3.90135Z" stroke="white" stroke-linecap="round" stroke-linejoin="round"/>
<path d="M9.90125 3.90135C8.73375 5.06885 8.665 7.03385 9.90125 8.12885C12.015 10.0001 16 10.0001 16 10.0001C16 10.0001 16 6.0151 14.125 3.90135C13.0338 2.6651 11.0688 2.73385 9.90125 3.90135Z" stroke="white" stroke-linecap="round" stroke-linejoin="round"/>
</g>
<defs>
<clipPath id="clip0_320_101203">
<rect width="32" height="32" fill="white"/>
</clipPath>
</defs>
</svg>
