<svg width="25" height="24" viewBox="0 0 25 24" fill="none" xmlns="http://www.w3.org/2000/svg">
<path d="M12.1924 6.05337V20.3025M5.19238 8.25464C6.45816 8.45067 7.87016 8.77657 9.19238 9.28788M5.19238 12.2546C5.83187 12.3537 6.50868 12.4859 7.19238 12.6584M4.18671 3.01127C6.40509 3.26195 9.38551 3.93632 11.5092 5.42445C11.9174 5.71045 12.4674 5.71045 12.8756 5.42445C14.9993 3.93632 17.9797 3.26195 20.1981 3.01127C21.296 2.88721 22.1924 3.80402 22.1924 4.93518V16.2C22.1924 17.3311 21.296 18.2483 20.1981 18.3723C17.9797 18.623 14.9993 19.2974 12.8756 20.7855C12.4674 21.0715 11.9174 21.0715 11.5092 20.7855C9.38551 19.2974 6.40509 18.623 4.18671 18.3723C3.08881 18.2483 2.19238 17.3311 2.19238 16.2V4.93518C2.19238 3.80402 3.08881 2.88721 4.18671 3.01127Z" stroke="black" stroke-width="1.5" stroke-linecap="round"/>
</svg>
