<svg width="14" height="12" viewBox="0 0 14 12" fill="none" xmlns="http://www.w3.org/2000/svg">
<path d="M13.0621 8.98431V10.7908C13.0628 10.9585 13.0279 11.1245 12.9595 11.2781C12.8911 11.4318 12.7908 11.5697 12.6651 11.6831C12.5393 11.7965 12.3909 11.8828 12.2292 11.9365C12.0675 11.9903 11.8962 12.0102 11.7263 11.9951C9.84061 11.7938 8.02933 11.1606 6.43793 10.1465C4.95733 9.22196 3.70205 7.98843 2.76122 6.53351C1.7256 4.96259 1.08112 3.17405 0.879974 1.31277C0.864661 1.14625 0.884799 0.978426 0.939108 0.819976C0.993416 0.661526 1.0807 0.515923 1.19541 0.392439C1.31012 0.268955 1.44974 0.170295 1.60538 0.10274C1.76102 0.0351852 1.92927 0.000215834 2.09941 5.83809e-05H3.93777C4.23515 -0.00281781 4.52346 0.100667 4.74895 0.291223C4.97443 0.481779 5.12171 0.746405 5.16333 1.03578C5.24093 1.61389 5.38483 2.18152 5.59228 2.72785C5.67473 2.94338 5.69257 3.17761 5.6437 3.4028C5.59483 3.62799 5.48129 3.83469 5.31653 3.99841L4.5383 4.76315C5.41063 6.27069 6.68087 7.51891 8.215 8.37612L8.99324 7.61138C9.15985 7.44948 9.37019 7.33791 9.59935 7.28988C9.82851 7.24185 10.0669 7.25939 10.2862 7.3404C10.8422 7.54427 11.4198 7.68567 12.0081 7.76192C12.3058 7.80318 12.5777 7.95052 12.772 8.1759C12.9663 8.40128 13.0696 8.68899 13.0621 8.98431Z" fill="white"/>
</svg>
