<svg width="128" height="49" viewBox="0 0 128 49" fill="none" xmlns="http://www.w3.org/2000/svg">
<path fill-rule="evenodd" clip-rule="evenodd" d="M115.829 25.3355C115.868 24.9815 116.037 24.6545 116.303 24.4177C116.569 24.1809 116.914 24.051 117.27 24.0531C117.441 24.0345 117.614 24.0521 117.778 24.1048C117.941 24.1575 118.092 24.2441 118.22 24.359C118.348 24.4738 118.451 24.6144 118.521 24.7715C118.591 24.9286 118.627 25.0987 118.627 25.2707C118.627 25.4427 118.591 25.6128 118.521 25.7699C118.451 25.927 118.348 26.0676 118.22 26.1824C118.092 26.2973 117.941 26.3839 117.778 26.4366C117.614 26.4893 117.441 26.5069 117.27 26.4883H116.679V27.1943H117.443C117.81 27.1936 118.164 27.3335 118.432 27.5853C118.7 27.8371 118.861 28.1818 118.884 28.5487C118.901 28.7424 118.876 28.9376 118.81 29.1204C118.744 29.3033 118.638 29.4694 118.501 29.6069C118.363 29.7444 118.197 29.85 118.014 29.9161C117.831 29.9823 117.636 30.0074 117.443 29.9896C116.247 29.9896 115.901 29.3845 115.829 28.3326H114.95C115.065 29.7735 115.656 30.7101 117.414 30.7101C119.431 30.7101 119.863 29.3989 119.863 28.6208C119.889 28.1734 119.744 27.733 119.458 27.3882C119.172 27.0433 118.766 26.8196 118.322 26.762C118.685 26.6622 119.005 26.4433 119.23 26.1403C119.454 25.8373 119.571 25.4677 119.561 25.0906C119.541 24.8319 119.469 24.5798 119.35 24.3497C119.23 24.1195 119.065 23.9161 118.864 23.7518C118.663 23.5874 118.431 23.4655 118.182 23.3935C117.933 23.3214 117.671 23.3007 117.414 23.3327C116.836 23.2884 116.265 23.4715 115.82 23.843C115.376 24.2146 115.095 24.745 115.036 25.3211L115.829 25.3355ZM88.4518 25.5948C88.4734 25.2909 88.4292 24.9859 88.3223 24.7006C88.2153 24.4154 88.0481 24.1566 87.832 23.9418C87.6158 23.7271 87.356 23.5615 87.07 23.4564C86.7841 23.3512 86.4789 23.309 86.1751 23.3326C83.9994 23.3326 83.668 25.3354 83.668 26.9204C83.668 28.5054 83.8553 30.7244 86.2039 30.7244C87.9042 30.7244 88.3509 29.6293 88.4518 27.9867H87.5584C87.4719 29.1538 87.2846 30.0039 86.1175 30.0039C84.6766 30.0039 84.5757 28.3325 84.5757 26.906C84.5757 25.9694 84.5757 24.0242 86.1175 24.0242C87.2414 24.0242 87.5584 24.7302 87.5584 25.5804L88.4518 25.5948ZM89.8495 23.4768V30.5516H93.8552V29.8455H90.7284V27.1943H93.6391V26.4882H90.7284V24.1828H93.8552V23.4768H89.8495ZM99.5468 24.1828H97.4863V30.5516H96.6073V24.1828H94.5324V23.4768H99.5468V24.1828ZM101.434 23.4768H100.541V30.5516H102.659C104.1 30.5516 105.051 29.9608 105.051 28.5631C105.051 26.9061 103.913 26.4882 102.472 26.4882H101.434V23.4768ZM101.434 27.1943H102.183C103.408 27.1943 104.129 27.4248 104.129 28.5631C104.129 29.7015 103.495 29.8455 102.428 29.8455H101.434V27.1943ZM110.209 27.8138H112.327L111.26 24.0387L110.209 27.8138ZM109.416 30.5516H108.436L110.713 23.4768H111.88L114.128 30.5516H113.148L112.514 28.5199H110.007L109.416 30.5516ZM125.599 24.7006C125.706 24.9859 125.75 25.2909 125.728 25.5948L124.835 25.5804C124.835 24.7302 124.503 24.0242 123.394 24.0242C121.852 24.0242 121.852 25.9694 121.852 26.906C121.852 28.3325 121.953 30.0039 123.394 30.0039C124.561 30.0039 124.748 29.1538 124.835 27.9867H125.728C125.627 29.6293 125.18 30.7244 123.48 30.7244C121.132 30.7244 120.944 28.5054 120.944 26.9204C120.944 25.3354 121.276 23.3326 123.451 23.3326C123.755 23.309 124.06 23.3512 124.346 23.4564C124.632 23.5615 124.892 23.7271 125.108 23.9418C125.324 24.1566 125.492 24.4154 125.599 24.7006Z" fill="#808285"/>
<path fill-rule="evenodd" clip-rule="evenodd" d="M11.6377 20.3935C16.2485 15.3071 20.2975 10.0334 12.1276 0.537842C15.1823 8.26107 10.2256 13.2322 5.26888 18.1889C0.658 23.2753 -3.39093 28.549 4.76457 38.0589C1.73639 30.3521 6.65587 25.4041 11.5786 20.4529L11.6377 20.3935ZM101.002 45.0614V33.8369H126.002V36.3008H121.55V45.0614H116.636V36.3008H105.916V38.4909H111.319V40.9549H105.916V45.0614H101.002ZM90.4684 42.6263V40.6811H96.866V38.2316H90.4684V36.3008H98.6959V33.8369H85.5549V45.0614H98.7968V42.6263H90.4684ZM79.5175 39.4564V33.8369H82.8748V45.0614H79.2726L71.2035 38.8944V45.0614H67.8462V33.8369H71.6646L79.5175 39.4564Z" fill="#80BC00"/>
<path fill-rule="evenodd" clip-rule="evenodd" d="M19.5412 10.5156C19.5291 10.4845 19.5169 10.4533 19.5045 10.4221H19.4613L19.5412 10.5156ZM19.5412 10.5156C22.5151 18.1752 17.5814 23.1232 12.6513 28.0676L12.6314 28.0875C8.03495 33.1595 3.98602 38.4476 12.1271 47.9431C9.14178 40.3454 13.8807 35.4846 18.6912 30.5504L18.957 30.2777C23.5527 25.2081 27.5759 19.9523 19.5412 10.5156ZM25.0086 33.8368H38.6252V36.3007H34.2736V45.0613H29.3602V36.3007H25.0086V33.8368ZM48.3362 33.8656H43.0625L36.9242 45.0902H40.123L41.1316 43.1594H48.0192L49.0278 45.0902H54.46L48.3362 33.8656ZM42.342 40.8396L44.6186 36.5168L46.7944 40.8396H42.342ZM52.8459 33.8368H66.1742V36.3007H62.1109V45.0613H57.1974V36.3007H52.8459V33.8368Z" fill="#EA0029"/>
</svg>
