<svg width="182" height="200" viewBox="0 0 182 200" fill="none" xmlns="http://www.w3.org/2000/svg">
<path d="M167.319 80.178L4.00527 95.8753C1.79322 96.0879 0.177091 98.0056 0.395544 100.159L10.1671 196.462C10.3856 198.615 12.3559 200.188 14.5679 199.976L177.881 184.278C180.093 184.066 181.71 182.148 181.491 179.995L171.72 83.6913C171.501 81.5383 169.531 79.9653 167.319 80.178Z" fill="#231F20"/>
<path d="M109.08 129.513C127.084 120.749 134.131 98.9531 124.818 80.83C115.506 62.7069 93.3614 55.1195 75.3569 63.8832C57.3524 72.6469 50.3059 94.4429 59.6182 112.566C68.9305 130.689 91.0751 138.276 109.08 129.513Z" fill="#939598"/>
<path d="M59.6481 112.552C68.7746 130.317 90.2022 137.931 108.002 129.986C125.178 120.883 131.754 99.6416 122.684 81.8761C113.557 64.1106 92.1295 56.4968 74.3299 64.4416C57.1539 73.5451 50.5782 94.7865 59.6481 112.552Z" fill="#D1D3D4"/>
<path d="M76.6524 70.4C91.9011 62.9517 110.664 69.4069 118.544 84.7448C126.423 100.083 120.471 118.565 105.222 126.014C89.9737 133.462 71.2104 127.007 63.331 111.669C55.4516 96.331 61.4036 77.8482 76.6524 70.4Z" fill="#939598"/>
<path d="M76.6518 70.4C74.3277 71.5586 72.1735 72.9379 70.3029 74.5379C62.14 83.5862 59.9859 97.2138 66.0514 108.965C73.9308 124.303 92.6942 130.759 107.943 123.31C110.267 122.152 112.421 120.772 114.292 119.172C122.455 110.124 124.609 96.4965 118.543 84.7448C110.664 69.4069 91.9005 62.9517 76.6518 70.4Z" fill="#A7A9AC"/>
<path d="M121.095 116.083C121.095 116.083 131.525 99.1449 120.358 80.1104C109.19 61.1311 89.8604 62.0138 89.8604 62.0138C89.8604 62.0138 110.608 65.1587 119.507 82.0966C128.464 99.0345 121.095 116.083 121.095 116.083Z" fill="#F1F2F2"/>
<path d="M76.709 79.3382C76.0855 79.9451 75.8587 80.8278 76.1422 81.6554L80.1102 93.683L72.1741 103.669C71.097 105.049 72.2307 107.311 73.988 107.311H86.9693L94.2819 117.793C94.792 118.511 95.6423 118.897 96.4926 118.731C97.3429 118.621 98.0799 118.014 98.3633 117.186L102.445 105.214L114.916 101.683C115.766 101.462 116.39 100.745 116.56 99.9175C116.73 99.0899 116.333 98.2071 115.653 97.7106L105.166 90.2623L105.563 77.6278C105.563 77.2416 105.506 76.9106 105.336 76.5796C105.109 76.1382 104.769 75.8071 104.315 75.5865C103.522 75.2002 102.615 75.2554 101.878 75.752L91.3342 83.1451L79.0898 78.8968C78.2395 78.6209 77.3326 78.7865 76.709 79.3934V79.3382Z" fill="#939598"/>
<path d="M74.7266 80.3316C74.103 80.9385 73.8763 81.8212 74.1597 82.6488L78.1278 94.6764L70.1916 104.663C69.1146 106.042 70.2483 108.304 72.0056 108.304H84.9869L92.2994 118.787C92.8096 119.504 93.6599 119.89 94.5102 119.725C95.3605 119.614 96.0975 119.007 96.3809 118.18L100.462 106.207L112.933 102.676C113.784 102.456 114.407 101.738 114.577 100.911C114.747 100.083 114.351 99.2006 113.67 98.704L103.183 91.2557L103.58 78.6212C103.58 78.235 103.523 77.904 103.353 77.573C103.127 77.1316 102.786 76.8006 102.333 76.5799C101.539 76.1937 100.632 76.2488 99.8954 76.7454L89.3517 84.1385L77.1074 79.8902C76.2571 79.6143 75.3501 79.7799 74.7266 80.3868V80.3316Z" fill="#D1D3D4"/>
<path d="M89.0107 109.075L88.217 107.917H87.9336L93.829 117.351L93.9424 116.965L89.0107 109.075Z" fill="#F1F2F2"/>
<path d="M88.446 86.5655L76.7685 81.8206L81.1334 95.1724L80.2831 96.2758L72.0068 105.6L75.7482 105.655L82.0404 98.4827L82.9474 97.3793L78.5258 84.0275L90.26 88.7724L91.5637 89.2689L100.69 82.8689L100.804 79.2827L89.8064 87.0069L88.446 86.5655Z" fill="#F1F2F2"/>
<path d="M102.223 94.7309L111.009 101.021L112.029 100.8L102.223 93.793V94.7309Z" fill="#F1F2F2"/>
<path d="M62.0531 64.8035C69.6705 53.8161 66.3785 38.6915 54.7002 31.022C43.0219 23.3524 27.3797 26.0421 19.7623 37.0295C12.1449 48.017 15.4369 63.1415 27.1152 70.8111C38.7935 78.4807 54.4357 75.791 62.0531 64.8035Z" fill="#939598"/>
<path d="M54.6595 31.062C43.2088 23.5585 28.0167 25.9861 20.2507 36.4137C13.2215 47.3378 16.6227 61.9585 28.0167 69.462C39.4674 76.9654 54.6594 74.5378 62.4255 64.1102C69.4547 53.1861 66.0535 38.5654 54.6595 31.062Z" fill="#D1D3D4"/>
<path d="M59.0234 61.3516C52.5611 70.6758 39.3531 72.9379 29.433 66.4275C19.5695 59.9172 16.7352 47.1172 23.1974 37.793C29.6597 28.4689 42.8677 26.2068 52.7879 32.7172C62.6514 39.2275 65.4857 52.0275 59.0234 61.3516Z" fill="#939598"/>
<path d="M59.0264 61.3512C59.9901 59.9168 60.7837 58.4271 61.3506 56.8823C63.1079 48.8823 59.7066 40.2202 52.1106 35.2547C42.2471 28.7443 28.9825 31.0616 22.5202 40.3305C21.5565 41.765 20.7629 43.2547 20.196 44.7995C18.4388 52.7995 21.8399 61.4616 29.436 66.4271C39.2994 72.9374 52.5641 70.6202 59.0264 61.3512Z" fill="#A7A9AC"/>
<path d="M17.3026 48.8273C17.3026 48.8273 16.9625 62.179 30.0004 69.7376C43.0384 77.3514 54.1489 70.5652 54.1489 70.5652C54.1489 70.5652 40.8842 75.4204 29.8303 68.3031C18.7764 61.2411 17.3026 48.8273 17.3026 48.8273Z" fill="#F1F2F2"/>
<path d="M55.9681 56.1098C56.1382 55.558 55.9682 54.9511 55.5147 54.5649L49.0523 48.7718L50.2995 40.3304C50.4695 39.1718 49.0524 38.2339 47.9753 38.7856L40.3226 42.9787L32.4432 39.1718C31.933 38.896 31.2528 38.9511 30.7993 39.3373C30.3458 39.6684 30.119 40.2753 30.2324 40.827L31.933 49.2132L25.8108 55.3373C25.414 55.7787 25.244 56.3856 25.4707 56.8822C25.6975 57.4339 26.151 57.8201 26.7745 57.8753L35.5042 58.8684L39.5857 66.427C39.5857 66.427 39.8691 66.8132 40.0959 66.9787C40.3793 67.1442 40.6627 67.2546 41.0028 67.2546C41.6264 67.2546 42.1366 66.9236 42.3634 66.3718L46.048 58.5925L54.721 57.158C55.2879 57.0477 55.7981 56.6615 55.9681 56.1098Z" fill="#939598"/>
<path d="M56.7591 54.8959C56.9292 54.3442 56.7592 53.7373 56.3057 53.3511L49.8434 47.558L51.0905 39.1166C51.2605 37.958 49.8434 37.02 48.7663 37.5718L41.1136 41.7649L33.2342 37.958C32.724 37.6821 32.0438 37.7373 31.5903 38.1235C31.1368 38.4545 30.91 39.0614 31.0234 39.6131L32.724 47.9993L26.6018 54.1235C26.205 54.5649 26.035 55.1718 26.2617 55.6683C26.4885 56.22 26.942 56.6062 27.5655 56.6614L36.2952 57.6545L40.3767 65.2131C40.3767 65.2131 40.6601 65.5993 40.8869 65.7649C41.1703 65.9304 41.4537 66.0407 41.7939 66.0407C42.4174 66.0407 42.9276 65.7097 43.1544 65.158L46.839 57.3787L55.5121 55.9442C56.0789 55.8338 56.5891 55.4476 56.7591 54.8959Z" fill="#D1D3D4"/>
<path d="M38.5593 42.5932L39.4096 43.0346L39.5797 42.9242L32.8906 39.2828L32.9473 39.5587L38.5593 42.5932Z" fill="#F1F2F2"/>
<path d="M46.5537 55.6687L55.1134 54.6756L47.9141 48.2204L48.0842 47.3376L49.7281 39.1169L47.5173 40.3307L46.2702 46.5652L46.1002 47.5031L53.2994 53.9583L44.7397 54.9514L43.8327 55.0618L40.6016 61.7928L41.792 63.9445L45.6467 55.8342L46.5537 55.6687Z" fill="#F1F2F2"/>
<path d="M35.6704 55.2823L28.3579 54.4547L27.8477 54.8961L36.0106 55.834L35.6704 55.2823Z" fill="#F1F2F2"/>
<path d="M121.447 27.1825C124.146 15.1869 116.02 3.2647 103.297 0.553547C90.575 -2.15761 78.0739 5.36892 75.3754 17.3645C72.6768 29.3601 80.8028 41.2823 93.5252 43.9935C106.248 46.7046 118.749 39.1781 121.447 27.1825Z" fill="#939598"/>
<path d="M103.242 0.552251C90.7709 -2.09602 78.5266 5.07639 75.4655 16.6074C73.2547 28.3591 81.3043 39.835 93.7753 42.4833C106.246 45.1316 118.491 37.9591 121.552 26.4281C123.763 14.6764 115.713 3.20053 103.242 0.552251Z" fill="#D1D3D4"/>
<path d="M117.64 25.2142C115.373 35.3659 104.772 41.7659 93.945 39.4487C83.1745 37.1314 76.2587 27.0349 78.5262 16.8832C80.7937 6.73143 91.3941 0.331433 102.221 2.64867C112.992 4.96591 119.907 15.0625 117.64 25.2142Z" fill="#939598"/>
<path d="M117.641 25.2142C117.981 23.6694 118.151 22.1246 118.038 20.5797C116.734 13.1315 110.725 6.78663 102.449 5.02111C91.6786 2.70387 81.0782 9.10387 78.754 19.2556C78.4139 20.8004 78.2439 22.3452 78.3572 23.8901C79.661 31.3383 85.6698 37.6832 93.9461 39.4487C104.717 41.7659 115.317 35.3659 117.641 25.2142Z" fill="#A7A9AC"/>
<path d="M77.3379 28.3041C77.3379 28.3041 81.7027 39.8903 95.6477 42.0972C109.536 44.3041 116.735 34.7593 116.735 34.7593C116.735 34.7593 106.985 43.3661 95.0241 40.9386C83.0065 38.511 77.3945 28.3041 77.3945 28.3041H77.3379Z" fill="#F1F2F2"/>
<path d="M113.161 21.7385C113.161 21.1868 112.764 20.7454 112.254 20.5247L104.658 17.6558L102.787 9.93163C102.56 8.88335 100.973 8.55232 100.236 9.3799L95.0777 15.504L86.9715 14.842C86.4046 14.842 85.8944 15.0627 85.611 15.504C85.3276 15.9454 85.3276 16.5523 85.611 16.9937L90.0326 23.6696L86.9148 30.9523C86.688 31.4489 86.8014 32.0006 87.1415 32.442C87.4817 32.8282 88.0485 32.9937 88.6154 32.8834L96.4948 30.842L102.674 35.973C102.674 35.973 103.071 36.2489 103.297 36.304C103.581 36.3592 103.921 36.304 104.204 36.2489C104.714 36.0282 105.055 35.5868 105.111 35.0351L105.565 27.1454L112.48 23.0075C112.934 22.7316 113.217 22.2351 113.161 21.6834V21.7385Z" fill="#939598"/>
<path d="M113.444 20.4146C113.444 19.8628 113.047 19.4214 112.537 19.2008L104.941 16.3318L103.07 8.60765C102.844 7.55938 101.256 7.22834 100.519 8.05593L95.3609 14.1801L87.2547 13.518C86.6879 13.518 86.1776 13.7387 85.8942 14.1801C85.6108 14.6214 85.6108 15.2283 85.8942 15.6697L90.3158 22.3456L87.198 29.6283C86.9713 30.1249 87.0847 30.6766 87.4248 31.118C87.7649 31.5042 88.3318 31.6697 88.8986 31.5594L96.7781 29.518L102.957 34.649C102.957 34.649 103.354 34.9249 103.58 34.9801C103.864 35.0352 104.204 34.9801 104.487 34.9249C104.998 34.7042 105.338 34.2628 105.394 33.7111L105.848 25.8214L112.764 21.6835C113.217 21.4077 113.501 20.9111 113.444 20.3594V20.4146Z" fill="#D1D3D4"/>
<path d="M93.4317 15.8907L94.3387 15.9459L94.452 15.7803L87.3662 14.8976L87.5363 15.1183L93.4317 15.8907Z" fill="#F1F2F2"/>
<path d="M104.939 24.4422L111.912 20.7456L103.465 17.6008L103.295 16.7732L101.822 9.15942L100.348 10.9249L101.481 16.718L101.651 17.5456L110.098 20.7456L103.125 24.387L102.332 24.8836L101.935 31.7249L103.692 33.1594L104.146 24.8836L104.939 24.4422Z" fill="#F1F2F2"/>
<path d="M95.4177 27.7527L88.7854 29.463L88.502 30.0148L95.8712 28.1389L95.4177 27.7527Z" fill="#F1F2F2"/>
<path d="M139.858 109.076L51.9368 117.518C50.7464 117.628 49.8394 118.18 49.8961 118.787L52.5604 144.883C52.617 145.49 53.6374 145.876 54.8278 145.711L142.749 137.269C143.939 137.159 144.846 136.607 144.79 136L142.125 109.904C142.069 109.297 141.048 108.911 139.858 109.076Z" fill="#231F20"/>
<path d="M55.3977 149.021C58.3454 154.759 54.8309 158.896 51.2596 163.09C47.9718 167.338 45.1941 171.641 52.3366 178.372C49.3889 172.634 52.9035 168.496 56.4748 164.303C59.7626 160.055 62.5402 155.696 55.3977 149.021Z" fill="#ED1A38"/>
<path d="M48.8792 141.958C56.0218 148.689 53.1874 153.048 49.9563 157.241C46.4417 161.434 42.8705 165.572 45.8182 171.31C38.6756 164.579 41.51 160.22 44.7411 156.027C48.3124 151.834 51.827 147.696 48.8792 141.958Z" fill="#83C240"/>
<path fill-rule="evenodd" clip-rule="evenodd" d="M110.949 155.751C110.835 154.758 110.155 154.096 108.965 154.206C107.264 154.372 107.151 155.917 107.264 157.13C107.377 158.399 107.717 160.054 109.531 159.889C110.892 159.779 111.119 158.896 111.119 157.627H110.438C110.438 158.62 110.382 159.282 109.475 159.337C108.341 159.448 108.114 158.179 108.001 157.075C107.944 156.358 107.831 154.868 109.021 154.758C109.928 154.703 110.212 155.199 110.268 155.861H110.949V155.751Z" fill="#808285"/>
<path fill-rule="evenodd" clip-rule="evenodd" d="M111.916 154.041L112.426 159.503L115.601 159.172L115.544 158.675L113.05 158.896L112.88 156.855L115.147 156.634V156.082L112.823 156.303L112.653 154.538L115.09 154.317L115.034 153.765L111.916 154.041Z" fill="#808285"/>
<path fill-rule="evenodd" clip-rule="evenodd" d="M117.978 154.041L119.622 153.875L119.566 153.379L115.598 153.71L115.654 154.261L117.298 154.096L117.752 159.006L118.432 158.951L117.978 154.041Z" fill="#808285"/>
<path fill-rule="evenodd" clip-rule="evenodd" d="M121.045 153.214H120.364L120.874 158.731L122.518 158.565C123.652 158.455 124.389 157.959 124.276 156.855C124.162 155.586 123.255 155.365 122.065 155.421H121.215L120.988 153.159L121.045 153.214ZM121.328 156.083H121.895C122.858 155.917 123.425 156.083 123.539 156.965C123.595 157.738 123.142 158.014 122.292 158.069H121.498L121.328 156.083Z" fill="#808285"/>
<path fill-rule="evenodd" clip-rule="evenodd" d="M129.942 155.752L128.298 155.917L128.865 152.938L129.942 155.752ZM127.051 158.124H127.844L128.185 156.469L130.169 156.303L130.792 157.848H131.586L129.318 152.496L128.411 152.607L127.107 158.179L127.051 158.124Z" fill="#808285"/>
<path fill-rule="evenodd" clip-rule="evenodd" d="M132.549 153.654C132.549 153.048 132.946 152.606 133.57 152.551C134.193 152.496 134.647 152.772 134.704 153.379C134.76 153.985 134.42 154.372 133.74 154.427H133.286V155.034H133.91C134.647 154.923 135.1 155.42 135.157 155.917C135.214 156.413 135.044 157.075 134.08 157.13C133.116 157.185 132.833 156.799 132.663 155.972H131.983C132.153 157.13 132.72 157.792 134.08 157.682C135.667 157.517 135.894 156.523 135.837 155.917C135.781 155.144 135.214 154.648 134.477 154.592C134.987 154.372 135.384 153.93 135.327 153.213C135.27 152.441 134.477 151.944 133.513 151.999C132.436 152.11 131.813 152.772 131.756 153.71H132.436L132.549 153.654Z" fill="#808285"/>
<path fill-rule="evenodd" clip-rule="evenodd" d="M140.37 153.103C140.257 152.11 139.577 151.448 138.443 151.503C136.742 151.668 136.629 153.213 136.742 154.427C136.856 155.696 137.139 157.351 139.01 157.186C140.37 157.075 140.597 156.192 140.597 154.924H139.917C139.917 155.917 139.86 156.579 138.953 156.634C137.819 156.744 137.593 155.475 137.479 154.372C137.423 153.655 137.253 152.165 138.5 152.055C139.35 151.999 139.69 152.496 139.747 153.158H140.427L140.37 153.103Z" fill="#808285"/>
<path d="M121.494 161.214L122.288 169.821L126.142 169.49L125.859 166.345L130.11 165.959L129.94 164.083L125.689 164.469L125.519 162.759L133.965 161.986L134.645 168.717L138.5 168.386L137.877 161.655L141.391 161.324L141.221 159.448L121.494 161.214Z" fill="#83C240"/>
<path d="M113.783 168.717L113.67 167.227L118.715 166.786L118.545 164.855L113.443 165.352L113.329 163.862L119.792 163.255L119.622 161.379L109.248 162.317L110.098 170.924L120.529 169.986L120.359 168.11L113.783 168.717Z" fill="#83C240"/>
<path d="M72.2334 165.683L61.4629 166.621L61.6329 168.496L65.0908 168.221L65.7144 174.952L69.6258 174.565L68.9455 167.834L72.4034 167.558L72.2334 165.683Z" fill="#ED1A38"/>
<path d="M79.8885 164.965L75.7504 165.352L71.7256 174.4L74.2198 174.179L74.9001 172.634L80.342 172.138L81.2489 173.572L85.5571 173.186L79.8885 165.021V164.965ZM75.6937 170.759L77.1675 167.283L79.2083 170.483L75.6937 170.814V170.759Z" fill="#ED1A38"/>
<path d="M104.487 162.758L104.884 167.062L98.3081 163.31L95.3037 163.586L96.0973 172.193L98.7616 171.972L98.3081 167.227L105.111 171.365L108.002 171.144L107.151 162.482L104.487 162.758Z" fill="#83C240"/>
<path d="M93.9441 163.696L83.457 164.634L83.6271 166.51L87.0283 166.234L87.7085 172.965L91.5632 172.634L90.9397 165.848L94.1708 165.572L93.9441 163.696Z" fill="#ED1A38"/>
</svg>
