<svg width="240" height="240" viewBox="0 0 240 240" fill="none" xmlns="http://www.w3.org/2000/svg">
<circle cx="120" cy="120" r="120" fill="white"/>
<g style="mix-blend-mode:multiply" opacity="0.33">
<path d="M179.913 40.9623L159.203 36.1925V32.1472C159.203 25.3245 140.788 19.8302 118.026 19.8302C95.2637 19.8302 76.8486 25.3245 76.8486 32.1472V36.6755L57.709 40.9623L58.192 173.551L118.811 205.189V205.672L119.294 205.431L119.777 205.672V205.189L180.396 173.551L179.913 40.9623Z" fill="#44514B"/>
</g>
<path d="M115.008 200.902L53.4226 168.721L53 36.1321L115.008 59.0152V200.902Z" fill="#EE2038"/>
<path d="M175.566 168.721L114.041 200.902V59.0152L175.143 36.1321L175.566 168.721Z" fill="#9B1122"/>
<path d="M114.283 58.9548L53 36.1321L115.008 22.2453L175.144 36.1321L114.283 58.9548Z" fill="#AFB3B6"/>
<path d="M113.259 44.4037C136 44.4037 154.436 38.8892 154.436 32.0867C154.436 25.2842 136 19.7697 113.259 19.7697C90.5169 19.7697 72.0811 25.2842 72.0811 32.0867C72.0811 38.8892 90.5169 44.4037 113.259 44.4037Z" fill="#EE2038"/>
<path d="M154.376 27.3168H72.0811V32.0867H154.376V27.3168Z" fill="#EE2038"/>
<path d="M113.259 39.6339C136 39.6339 154.436 34.1194 154.436 27.3169C154.436 20.5144 136 14.9999 113.259 14.9999C90.5169 14.9999 72.0811 20.5144 72.0811 27.3169C72.0811 34.1194 90.5169 39.6339 113.259 39.6339Z" fill="#AFB3B6"/>
</svg>
