<svg width="240" height="180" viewBox="0 0 240 180" fill="none" xmlns="http://www.w3.org/2000/svg">
<g clip-path="url(#clip0_901_6664)">
<g style="mix-blend-mode:multiply" opacity="0.22">
<path d="M240 143.564L221.594 4.00116L6.42383 32.3905L24.8298 171.953L174.604 152.233L178.213 179.538C178.213 179.538 188.319 160.179 193.443 159.529C198.568 158.878 213.365 174.915 213.365 174.915L209.756 147.609L240 143.636V143.564Z" fill="#44514B"/>
</g>
<path d="M215.965 0.413423L-0.0117188 21.9498L13.929 161.975L229.906 140.439L215.965 0.413423Z" fill="#ED1B30"/>
<path d="M22.5915 38.603L24.9735 38.3863C25.7675 38.3863 26.0562 38.5307 26.1284 39.3254L29.3043 73.4215C29.3043 74.2161 29.16 74.505 28.366 74.5773L26.0562 74.794C25.2622 74.794 24.9735 74.6495 24.9013 73.8549L22.6637 49.5831C22.6637 49.2219 22.4472 49.0774 22.0863 49.0774L18.8382 49.3664C18.2607 49.3664 17.8998 49.0774 18.1885 48.355L21.7976 39.2531C21.7976 39.2531 22.0141 38.6752 22.5915 38.6752V38.603Z" fill="white"/>
<path d="M60.1977 61.9357C60.8473 69.0872 57.1661 72.1212 52.8353 72.4824C48.5044 72.8436 44.318 70.532 43.6683 63.4527L42.0804 46.5491C41.4307 39.3976 45.1841 36.3636 49.4428 36.0024C53.7014 35.6412 57.9601 37.9528 58.6097 45.0321L60.1977 61.9357ZM48.0713 63.236C48.4322 67.498 50.2368 68.6538 52.4744 68.4371C54.7119 68.2204 56.2999 66.7034 55.8668 62.5136L54.2789 45.1766C53.918 40.9146 52.1134 39.7588 49.8759 39.9755C47.6383 40.1922 46.0503 41.7092 46.4834 45.8989L48.0713 63.236Z" fill="white"/>
<path d="M81.3453 59.9853C81.995 67.1368 78.3137 70.1708 73.9829 70.5319C69.6521 70.8931 65.4656 68.5815 64.816 61.5022L63.228 44.5987C62.5784 37.4471 66.2596 34.4132 70.5904 34.052C74.9213 33.6908 79.1077 36.0024 79.7574 43.0817L81.3453 59.9853ZM69.219 61.2855C69.5799 65.5476 71.3844 66.7034 73.622 66.4866C75.8596 66.2699 77.4476 64.7529 77.0145 60.5632L75.4265 43.2261C75.0656 38.9641 73.2611 37.8083 71.0235 38.025C68.7859 38.2418 67.198 39.7587 67.631 43.9485L69.219 61.2855Z" fill="white"/>
<path d="M102.496 58.0349C103.145 65.1864 99.4641 68.2204 95.1333 68.5816C90.8025 68.9428 86.616 66.6312 85.9664 59.5519L84.3784 42.6483C83.7288 35.4968 87.41 32.4628 91.7408 32.1016C96.0717 31.7404 100.258 34.052 100.908 41.1313L102.496 58.0349ZM90.3694 59.3352C90.7303 63.5972 92.5348 64.753 94.7724 64.5363C97.01 64.3196 98.598 62.8026 98.1649 58.6128L96.5769 41.2758C96.216 37.0138 94.4115 35.8579 92.1739 36.0747C89.9363 36.2914 88.3484 37.8084 88.7814 41.9981L90.3694 59.3352Z" fill="white"/>
<path d="M133.966 55.1454C134.616 62.2969 130.935 65.3309 126.604 65.6921C122.273 66.0533 118.087 63.7417 117.437 56.6624L115.849 39.7588C115.199 32.6073 118.953 29.5733 123.211 29.2121C127.47 28.8509 131.729 31.1625 132.378 38.2418L133.966 55.1454ZM121.84 56.4457C122.201 60.7077 124.005 61.8635 126.243 61.6468C128.481 61.4301 130.068 59.9131 129.635 55.7233L128.047 38.3863C127.687 34.1243 125.882 32.9685 123.644 33.1852C121.407 33.4019 119.819 34.9189 120.252 39.1086L121.84 56.4457Z" fill="white"/>
<path d="M155.115 53.1227C155.764 60.2742 152.083 63.3082 147.752 63.6694C143.422 64.0306 139.235 61.719 138.586 54.6397L136.998 37.7361C136.348 30.5846 140.029 27.5506 144.36 27.1894C148.691 26.8282 152.877 29.1398 153.527 36.2191L155.115 53.1227ZM142.989 54.423C143.349 58.685 145.154 59.8408 147.392 59.6241C149.629 59.4074 151.217 57.8904 150.784 53.7006L149.196 36.3636C148.835 32.1016 147.031 30.9458 144.793 31.1625C142.555 31.3792 140.967 32.8962 141.401 37.086L142.989 54.423Z" fill="white"/>
<path d="M176.263 51.1723C176.913 58.3238 173.232 61.3578 168.901 61.719C164.57 62.0802 160.384 59.7686 159.734 52.6893L158.146 35.7857C157.496 28.6342 161.178 25.6002 165.508 25.239C169.839 24.8778 174.026 27.1894 174.675 34.2687L176.263 51.1723ZM164.137 52.4726C164.498 56.7346 166.302 57.8904 168.54 57.6737C170.778 57.457 172.366 55.94 171.932 51.7502L170.345 34.4132C169.984 30.1512 168.179 28.9954 165.941 29.2121C163.704 29.4288 162.116 30.9458 162.549 35.1356L164.137 52.4726Z" fill="white"/>
<path d="M195.031 23.1441L188.968 23.7943C188.174 23.8665 187.957 24.1555 188.029 24.9501L189.978 43.0817L187.957 43.2984C187.163 43.3706 186.947 43.6596 187.019 44.4542L187.235 46.4046C187.308 47.1992 187.596 47.4159 188.39 47.3437L190.411 47.127L190.7 49.6553L188.823 49.872C188.029 49.9443 187.813 50.2332 187.885 51.0278L188.102 52.9782C188.174 53.7729 188.462 53.9896 189.256 53.9173L191.133 53.7006L191.638 58.685C191.711 59.4796 191.927 59.6963 192.793 59.6241L195.031 59.4074C195.753 59.3351 196.041 59.0462 195.969 58.2516L195.464 53.2672L200.228 52.6893C201.022 52.6171 201.238 52.3281 201.166 51.5335L200.95 49.5831C200.878 48.7885 200.589 48.5718 199.795 48.644L195.031 49.2219L194.887 47.8494C194.838 47.1752 195.151 46.7899 195.825 46.6936L197.629 46.4769C201.816 46.0434 205.497 42.9372 204.703 35.9302L204.27 32.1016C203.548 25.0945 199.362 22.8552 195.103 23.2886L195.031 23.1441ZM200.372 36.4358C200.805 40.6256 199.362 42.0704 197.124 42.3593L195.32 42.576C194.646 42.6242 194.261 42.3112 194.165 41.6369L192.793 28.4897C192.745 27.8155 193.058 27.4302 193.732 27.3339L195.536 27.1172C197.774 26.9005 199.506 28.0563 200.011 32.1738L200.444 36.4358H200.372Z" fill="white"/>
<path d="M208.024 107.518C206.364 91.1919 191.784 79.2005 175.471 80.8619C159.158 82.5234 147.176 97.1154 148.836 113.441C149.558 120.954 153.095 127.455 158.148 132.223L159.663 147.537L204.127 143.131L202.611 127.816C206.653 122.11 208.818 115.03 208.096 107.518H208.024Z" fill="white"/>
<path d="M178.43 133.451C191.107 133.451 201.383 123.166 201.383 110.479C201.383 97.7925 191.107 87.5078 178.43 87.5078C165.753 87.5078 155.477 97.7925 155.477 110.479C155.477 123.166 165.753 133.451 178.43 133.451Z" fill="#92C83E"/>
<path d="M181.39 140.097C174.749 140.747 168.469 139.158 163.128 135.979L166.953 174.482C166.953 174.482 177.708 155.483 182.833 154.978C187.958 154.472 202.25 171.014 202.25 171.014L198.424 132.512C193.877 136.702 187.958 139.519 181.317 140.169L181.39 140.097Z" fill="#ED1B30"/>
</g>
<defs>
<clipPath id="clip0_901_6664">
<rect width="240" height="179.077" fill="white" transform="translate(0 0.461548)"/>
</clipPath>
</defs>
</svg>
