<svg width="240" height="240" viewBox="0 0 240 240" fill="none" xmlns="http://www.w3.org/2000/svg">
<circle cx="120" cy="120" r="120" fill="white"/>
<g style="mix-blend-mode:multiply" opacity="0.33">
<path d="M184.635 177.767C184.635 177.767 184.635 177.767 184.635 177.704C184.446 177.453 183.943 177.202 183.943 177.202L151.581 94.8827C152.084 94.38 152.524 93.7516 152.838 92.9347C153.089 92.3063 153.089 91.3009 152.964 90.4211C156.231 87.8447 160.693 83.446 163.521 77.1621C165.469 77.7277 167.354 78.3561 169.113 79.0473C168.925 79.6757 168.799 80.3041 169.05 80.7439C169.239 81.0581 169.616 81.5608 169.993 81.7494C170.119 81.8122 170.182 81.7494 170.244 81.7494C170.747 82.2521 173.701 78.1675 174.455 77.2249C176.026 75.3398 176.968 74.0202 177.597 72.3863C177.974 71.5066 178.288 70.3755 178.539 69.4329C177.911 68.993 177.031 68.7417 176.465 69.1816C176.088 69.4958 175.774 69.8728 175.46 70.2498C173.449 69.81 169.679 68.239 167.228 67.9248C170.056 66.4166 171.69 64.6572 171.69 62.8348C171.69 62.4578 171.627 62.0808 171.501 61.7037C171.627 61.3267 171.753 60.9497 171.753 60.5726C171.753 59.1273 170.81 57.7449 169.176 56.4252C169.176 56.2996 169.113 56.1111 169.05 55.9854C169.05 55.7969 168.988 55.6083 168.925 55.4198C168.736 54.7286 168.485 53.9745 168.108 53.1576C168.108 53.0948 168.108 53.0319 168.045 52.9691C167.668 52.0894 167.165 51.2096 166.537 50.267C166.411 50.0157 166.223 49.8272 166.097 49.5758C165.531 48.7589 164.903 47.8791 164.149 47.0622C164.023 46.9366 163.961 46.8109 163.835 46.6852C162.955 45.7426 162.013 44.8 160.944 43.7946C160.693 43.5433 160.379 43.3547 160.127 43.1034C159.122 42.2865 158.116 41.4696 156.923 40.7155C156.671 40.527 156.483 40.4013 156.231 40.2128C154.849 39.333 153.341 38.4533 151.707 37.6364C151.33 37.4479 150.89 37.2594 150.513 37.0708C149.068 36.3796 147.56 35.7512 145.989 35.1857C145.674 35.06 145.486 34.9343 145.172 34.8715C145.172 34.8715 145.234 34.8715 145.297 34.9343C140.71 33.3633 135.369 32.1066 129.211 31.4782C128.708 30.9755 128.205 30.5356 127.451 30.0329C127.137 29.8444 126.823 29.6558 126.446 29.4673C126.32 29.4673 126.194 29.2788 126.069 29.2788C123.995 28.8389 122.424 28.9646 121.041 28.9646C120.727 28.9646 120.476 28.9646 120.225 29.0275C120.225 29.0275 120.287 29.0275 120.35 28.9646C120.036 28.9646 119.785 29.0275 119.533 29.0903C119.345 29.0903 119.094 29.0903 118.842 29.216C118.277 29.3417 117.774 29.593 117.083 30.0329C116.643 30.2842 116.203 30.7241 115.763 31.164C115.197 31.164 114.695 31.2268 114.129 31.2897C113.187 31.3525 112.181 31.4153 111.301 31.541C110.422 31.6667 109.542 31.7295 108.662 31.8552C107.782 31.9809 106.903 32.1066 106.023 32.2951C105.206 32.4208 104.389 32.6093 103.572 32.7978C102.755 32.9863 101.938 33.1748 101.122 33.3633C100.367 33.5519 99.6134 33.7404 98.9222 33.9917C98.1681 34.2431 97.414 34.4944 96.7228 34.7458C96.0316 34.9972 95.3404 35.2485 94.712 35.4999C94.0208 35.7512 93.3295 36.0654 92.7011 36.3796C92.0727 36.631 91.5072 36.9452 90.8788 37.1965C90.2504 37.5107 89.622 37.8249 89.0564 38.1391C88.4909 38.4533 87.9882 38.7047 87.4227 39.0189C86.8571 39.333 86.2915 39.7101 85.7888 40.0243C85.2861 40.3385 84.8462 40.6527 84.3435 40.9669C83.8408 41.3439 83.3381 41.7209 82.8983 42.098C82.4584 42.4122 82.0813 42.7264 81.7043 43.0405C81.2644 43.4176 80.8246 43.7946 80.4475 44.1716C80.1333 44.4858 79.7563 44.8 79.4421 45.1142C79.0651 45.4913 78.688 45.8683 78.3738 46.2453C78.0596 46.5595 77.8083 46.8737 77.5569 47.1879C77.2427 47.565 76.9285 47.942 76.6772 48.319C76.4258 48.6332 76.2373 48.8846 75.9859 49.1988C75.7974 49.4501 75.6717 49.7015 75.4832 49.9528C75.4204 50.0785 75.4204 50.1414 75.3576 50.2042C75.3576 50.2042 75.3576 50.267 75.3576 50.3299C75.1691 50.5812 74.9805 50.8954 74.8549 51.1468C74.6663 51.5238 74.4779 51.9008 74.2893 52.2779C74.1637 52.5292 74.038 52.7806 73.9751 52.9691C73.9751 53.0319 73.9751 53.1576 73.9122 53.2205C73.9122 53.2833 73.9123 53.409 73.8494 53.4718C73.7866 53.6603 73.7237 53.8489 73.6609 54.0374C73.6609 54.163 73.5352 54.2887 73.5352 54.4772C71.7129 55.734 70.7075 57.1165 70.7075 58.5618C70.7075 58.9388 70.7703 59.3158 70.896 59.6929C70.7703 60.0699 70.6447 60.4469 70.6447 60.824C70.6447 62.3321 71.7129 63.8402 73.6609 65.2227C72.2156 66.0396 68.0682 68.616 66.9371 69.7471V69.8728C66.9371 71.0667 67.6912 73.5803 68.0682 74.1458C68.0682 74.1458 69.6392 74.5229 70.3933 74.3344C70.7075 74.083 71.5244 73.5175 72.5927 72.7634L78.8137 72.0722C81.7043 82.7548 89.8733 89.4786 92.7639 91.3637C92.9524 91.4894 93.2667 91.6779 93.5809 91.8036C93.4552 91.9921 93.3924 92.1806 93.3295 92.3063C93.2667 92.432 93.141 92.6205 93.0781 92.7462C92.7639 93.5631 92.6383 94.38 92.8268 95.7625C92.9525 96.5794 93.2667 97.3334 93.7066 97.9618C93.7066 97.9618 93.6437 97.9618 93.5809 97.8361C93.5809 97.9618 93.7065 97.9618 93.7694 98.0875C94.0207 98.4645 94.2721 98.8416 94.5863 99.2186L71.5872 168.907C67.6912 167.902 63.6695 168.216 60.0877 170.101C59.2079 170.541 54.6207 173.18 53.1754 176.825C53.1754 176.825 53.1754 176.95 53.1754 177.013C48.9652 183.171 50.0334 192.157 56.1288 198.379C62.9782 205.291 73.4095 206.045 79.5049 200.075C80.3846 199.258 83.5266 196.116 84.532 193.54C85.8516 190.084 86.3543 186.753 85.7888 183.486L147.874 192.974L150.764 210.569C150.764 210.569 150.576 211.072 150.576 211.26C150.576 211.26 150.576 211.386 150.576 211.449C150.639 212.329 151.456 216.35 151.707 216.476C151.895 216.602 152.21 216.727 152.461 216.79C153.655 217.042 155.163 216.916 156.294 216.539C156.671 216.413 157.614 216.099 157.802 215.596C157.865 215.345 157.362 211.763 157.048 210.695C157.048 210.695 157.048 210.695 157.048 210.632C156.923 210.318 156.483 210.004 156.483 210.004L153.718 193.1L175.649 170.227L179.105 178.898C179.105 178.898 179.042 179.401 179.105 179.652C179.105 179.652 179.105 179.715 179.105 179.841C179.356 180.658 180.99 184.428 181.304 184.554C181.555 184.617 181.87 184.68 182.121 184.68C183.378 184.68 184.76 184.24 185.829 183.611C186.143 183.423 187.022 182.857 187.085 182.417C187.085 182.166 185.891 178.773 185.326 177.767H184.635ZM102.127 181.789L105.332 179.275L131.41 183.171L128.645 185.685L102.127 181.726V181.789ZM128.079 186.251L125 189.016L98.0425 184.931L101.436 182.292L128.017 186.251H128.079ZM112.621 99.2814C113.375 99.0301 114.066 98.5902 114.695 97.9618C116.58 98.1503 118.465 98.276 120.539 98.3389C120.602 98.3389 121.481 98.3389 121.544 98.3389C123.744 98.3389 125.817 98.276 127.765 98.1503C127.765 98.4017 127.765 98.5902 127.765 98.7787C127.765 98.9044 127.765 99.0301 127.765 99.0929C127.828 99.9727 128.079 100.79 128.959 101.858C129.462 102.486 130.09 102.989 130.719 103.429C130.719 103.429 130.656 103.429 130.593 103.429C130.656 103.429 130.782 103.429 130.907 103.554C131.536 103.932 132.164 104.12 132.792 104.309C132.792 104.309 132.855 104.309 132.918 104.309L142.721 164.257L118.905 161.429C119.973 156.528 118.905 151.815 114.506 147.416C112.37 145.217 109.919 143.771 107.405 142.892L112.495 99.2186L112.621 99.2814ZM143.978 171.798L141.527 173.997L116.454 170.667L119.408 168.404L143.915 171.421V171.798H143.978ZM115.7 170.604L113.689 170.352C114.129 169.912 115.009 169.033 115.826 168.027L118.654 168.341L115.7 170.604ZM116.266 167.462C116.957 166.645 117.522 165.765 117.9 164.885L122.424 165.451L119.282 167.839L116.266 167.462ZM118.151 164.32C118.465 163.503 118.716 162.686 118.905 161.932L125.88 162.749L123.052 164.885L118.151 164.32ZM113.187 170.792L115.135 171.044L112.056 173.431L109.542 173.054C110.862 172.489 112.118 171.735 113.249 170.729L113.187 170.792ZM115.889 171.169L141.024 174.5L138.134 177.139L112.81 173.557L115.952 171.169H115.889ZM137.568 177.579L135.18 179.778L109.605 176.008L112.181 173.997L137.631 177.579H137.568ZM134.615 180.218L131.85 182.732L105.897 178.836L108.976 176.448L134.615 180.218ZM135.306 180.344L145.612 181.852L146.114 184.868L132.541 182.794L135.306 180.281V180.344ZM135.809 179.841L138.197 177.642L145.046 178.584L145.486 181.223L135.809 179.778V179.841ZM138.762 177.202L141.653 174.563L144.418 174.94L144.92 178.082L138.699 177.202H138.762ZM142.218 174.06L144.041 172.363L144.355 174.311L142.218 173.997V174.06ZM143.789 170.792L120.036 167.902L123.178 165.514L143.349 167.964L143.852 170.855L143.789 170.792ZM123.744 165.011L126.571 162.874L142.847 164.822L143.287 167.399L123.806 165.074L123.744 165.011ZM91.6329 167.964C91.9471 168.279 92.1356 168.656 92.4498 168.97C93.2039 169.724 94.0208 170.415 94.9005 171.044L87.674 170.038L91.0673 167.839L91.6329 167.964ZM86.9827 170.478L96.1573 171.798C100.053 174.06 104.515 174.688 108.348 173.494L111.301 173.934L108.725 175.882L84.155 172.237L86.9199 170.478H86.9827ZM83.5266 172.677L108.16 176.322L105.08 178.71L80.8874 175.065C80.8874 175.065 80.636 174.814 80.5103 174.688L83.4638 172.74L83.5266 172.677ZM81.453 175.631L104.515 179.087L101.31 181.6L83.778 178.961C83.1496 177.83 82.3956 176.699 81.453 175.631ZM132.038 183.234L146.24 185.371L146.743 188.387L129.273 185.748L132.038 183.234ZM152.084 186.251L158.054 187.13L155.603 189.644L152.587 189.204L152.084 186.251ZM152.021 185.685L151.518 182.606L161.007 183.988L158.494 186.628L152.021 185.622V185.685ZM151.456 182.04L151.016 179.338L163.835 181.161L161.573 183.549L151.518 182.04H151.456ZM150.953 178.773L150.45 175.568L167.102 177.767L164.338 180.658L150.953 178.773ZM150.324 175.002L149.822 171.986L170.182 174.5L167.479 177.327L150.262 175.065L150.324 175.002ZM149.759 171.421L149.319 168.53L173.198 171.421L170.747 173.997L149.822 171.421H149.759ZM148.753 165.388L150.639 165.639L149.005 167.085L148.753 165.388ZM148.691 164.822L138.699 103.24C139.705 102.675 140.522 101.921 141.213 100.601C141.778 99.4071 141.967 97.2706 141.401 95.6996C141.904 95.5739 142.407 95.4483 142.847 95.3226C143.224 95.6368 143.663 95.951 144.103 96.1395C144.103 96.1395 144.041 96.1395 143.978 96.1395C144.041 96.1395 144.166 96.1395 144.229 96.2023C144.795 96.4537 145.36 96.5794 145.926 96.6422C145.989 96.6422 146.051 96.6422 146.114 96.6422L174.266 167.839L148.691 164.76V164.822ZM165.406 70.6269C167.857 71.3809 170.244 72.0722 172.569 72.8891C171.753 73.706 170.998 74.46 170.182 75.2141C170.182 75.2769 170.182 75.3398 170.119 75.4655C168.736 75.0884 166.663 74.3972 164.652 73.7688C164.966 72.7634 165.217 71.758 165.406 70.6269ZM77.6198 68.7417C77.6198 68.7417 77.8082 68.616 77.9339 68.5532C77.9339 68.616 77.9339 68.6788 77.9339 68.7417C77.8082 68.7417 77.7455 68.7417 77.6198 68.7417ZM99.6762 101.418C101.122 101.544 102.441 101.292 103.824 100.287C104.578 99.7213 105.332 98.7159 105.834 97.5848C105.834 97.5848 105.96 97.6476 106.023 97.7105C106.023 97.7105 105.96 97.7105 105.897 97.7105C105.96 97.7733 106.023 97.7733 106.149 97.8361C106.4 98.0875 106.651 98.276 106.903 98.4645L101.75 141.949C99.8019 142.075 97.9168 142.577 96.1573 143.457C95.4032 143.834 91.2558 146.222 89.9362 149.49V149.615C86.5429 154.58 87.0456 161.618 91.1301 167.022L80.259 174.06C79.1279 172.929 77.9339 171.986 76.6772 171.169L99.6762 101.355V101.418ZM84.155 179.464L100.807 181.978L97.414 184.617L85.2862 182.794C85.0348 181.663 84.6577 180.595 84.155 179.527V179.464ZM125.754 188.89L128.834 186.125L146.868 188.827L147.434 192.22L125.754 188.89ZM152.712 189.707L155.163 190.084L153.089 192.22L152.712 189.707ZM173.638 170.855L149.193 167.902V167.65L151.393 165.639L174.517 168.404L174.957 169.473L173.638 170.855Z" fill="#44514B"/>
</g>
<path d="M91.0677 164.32C97.1631 170.541 103.887 173.934 109.354 168.53C110.108 167.776 112.936 165.011 113.878 162.686C116.266 156.59 115.701 150.809 110.422 145.468C105.018 140.001 97.8543 138.681 91.9474 141.698C91.1934 142.075 87.046 144.463 85.7263 147.73C82.8357 154.831 84.9095 158.161 91.0677 164.383V164.32Z" fill="#46476A"/>
<path d="M95.2152 140.818C93.8328 140.504 90.6909 142.64 90.0625 143.96H90.251C91.0679 143.394 92.2619 143.646 93.2044 142.892C93.9585 142.263 94.5869 141.509 95.2152 140.818Z" fill="#26244C"/>
<path d="M96.6615 143.017C97.2899 142.389 98.6723 141.258 98.9865 140.504C97.1013 140.378 96.4101 141.572 95.1533 142.703L95.279 142.954C95.7189 142.829 96.2216 142.954 96.6615 143.08V143.017Z" fill="#26244C"/>
<path d="M98.9219 142.892L98.7334 143.143C99.2989 143.269 100.116 143.143 100.556 143.52C101.184 142.892 102.064 141.886 102.378 141.069C100.681 140.441 99.9273 141.698 98.859 142.954L98.9219 142.892Z" fill="#373A3B"/>
<path d="M103.826 144.651C103.826 144.651 105.774 143.206 105.397 142.263C103.637 141.572 103.386 143.017 102.317 144.149V144.337C103.134 143.96 103.134 145.468 103.826 144.714V144.651Z" fill="#26244C"/>
<path d="M106.652 146.788C107.029 146.536 108.223 144.777 108.223 144.337C108.223 143.331 107.218 143.457 106.652 143.96C106.087 144.463 105.773 145.154 105.27 145.719H105.207C105.647 145.908 106.15 147.165 106.715 146.85L106.652 146.788Z" fill="#26244C"/>
<path d="M108.851 148.484C108.851 148.484 110.925 147.165 110.548 146.159C108.788 145.342 108.537 146.788 107.343 147.856V148.044C108.16 147.73 108.097 149.238 108.851 148.484Z" fill="#26244C"/>
<path d="M110.737 151.438C111.177 151.312 112.685 149.804 112.811 149.427C113.062 148.421 111.994 148.358 111.365 148.673C110.674 148.987 110.234 149.678 109.606 150.055H109.543C109.92 150.306 110.171 151.689 110.737 151.438Z" fill="#26244C"/>
<path d="M112.118 154.202C112.558 154.077 114.066 152.569 114.191 152.129C114.443 151.123 113.375 151.06 112.746 151.375C112.118 151.752 111.615 152.38 110.987 152.757H110.924C111.301 153.008 111.552 154.391 112.181 154.14L112.118 154.202Z" fill="#26244C"/>
<path d="M112.747 157.847C113.187 157.722 114.695 156.213 114.82 155.774C115.072 154.768 114.695 154.328 114.003 154.705C113.375 155.082 112.181 156.025 111.616 156.465H111.553C111.93 156.716 112.181 158.099 112.809 157.847H112.747Z" fill="#26244C"/>
<path d="M114.57 157.659C113.816 158.224 113.25 159.041 112.559 159.607L112.371 159.984C112.371 159.984 112.37 160.738 112.308 161.115C113.879 160.486 114.381 159.104 114.633 157.659H114.57Z" fill="#26244C"/>
<path d="M112.243 164.383C112.243 164.383 112.871 163.754 113.123 163.377C113.374 163.063 114.191 161.806 114.003 161.492C113.688 160.989 112.557 162.372 112.243 162.623C111.489 163.44 111.615 164.383 111.175 165.388L111.615 164.885C111.615 164.885 112.055 164.571 112.306 164.383H112.243Z" fill="#26244C"/>
<path d="M109.354 168.53C114.821 163.126 114.318 153.763 108.16 147.479C102.064 141.258 92.6384 140.566 87.1714 145.971C81.7044 151.375 82.2072 160.801 88.3654 167.022C94.4608 173.243 103.887 173.934 109.354 168.53Z" fill="#26244C"/>
<path d="M107.216 166.77C111.803 162.246 111.364 154.391 106.211 149.175C101.121 143.96 93.2659 143.394 88.6787 147.919C84.0914 152.443 84.5313 160.298 89.6841 165.514C94.7741 170.729 102.629 171.295 107.216 166.77Z" fill="#26244C"/>
<path d="M99.2359 158.916C99.2359 158.916 100.241 157.91 100.367 157.784C100.933 157.156 100.807 156.088 100.053 155.397C99.2988 154.705 98.2305 154.58 97.665 155.208C97.5393 155.334 96.7852 156.151 96.7224 156.276C96.4711 156.905 97.4136 157.03 97.9792 157.596C98.5447 158.161 98.6704 159.104 99.2359 158.916Z" fill="#4D4F52"/>
<path d="M99.5496 158.727C100.115 158.099 99.9894 157.03 99.2354 156.339C98.4813 155.648 97.4131 155.522 96.8476 156.151C96.282 156.779 96.4077 157.847 97.1618 158.539C97.9158 159.23 98.984 159.356 99.5496 158.727Z" fill="#707276"/>
<path d="M98.9845 160.361C99.8014 159.67 100.555 158.979 101.31 158.287L110.233 81.9381C110.233 81.9381 107.468 81.3097 104.389 82.1266L95.3398 158.727C95.9054 159.167 96.471 159.67 97.0365 160.235L98.9845 160.361Z" fill="#AFB3B6"/>
<path d="M105.834 97.5848C107.97 97.5848 109.667 97.2706 111.112 95.4483C112.18 94.0658 112.809 90.7353 111.363 89.5414C108.536 87.2792 103.76 88.2218 100.744 89.2272L100.555 89.1015C100.052 91.3637 99.4241 92.055 100.492 94.2543C101.498 96.328 103.76 97.522 105.771 97.522L105.834 97.5848Z" fill="#66912B"/>
<path d="M107.406 96.328C105.521 97.1449 103.698 97.1449 101.625 95.8253C102.756 96.9564 104.327 97.5219 105.772 97.5219C107.909 97.5219 109.605 97.2077 111.051 95.3854C112.119 94.0029 112.747 90.6725 111.302 89.4785C108.474 87.2163 103.698 88.1589 100.682 89.1644L100.494 89.0387C100.242 90.1698 99.9909 90.861 99.8652 91.6151C102.379 91.5522 105.018 92.1806 107.406 92.3063C108.977 92.3691 109.857 95.1341 107.343 96.2652L107.406 96.328Z" fill="#578024"/>
<path d="M180.236 176.574L139.265 72.3865C139.265 72.3865 136.563 73.1405 134.175 75.3399L174.643 177.642L180.236 176.511V176.574Z" fill="#AFB3B6"/>
<path d="M176.466 182.48C176.466 182.48 177.032 182.606 177.283 182.606C178.54 182.606 179.922 182.166 180.991 181.538C181.305 181.349 182.185 180.783 182.247 180.344C182.247 180.092 180.991 176.51 180.425 175.631C180.237 175.379 179.734 175.128 179.734 175.128C179.42 175.882 178.163 176.51 177.409 176.762C176.906 176.95 174.707 177.516 174.33 176.887C174.33 176.887 174.267 177.39 174.33 177.642C174.33 177.956 176.278 182.417 176.592 182.543L176.466 182.48Z" fill="#26244C"/>
<path d="M174.266 177.83C175.522 178.396 177.659 177.83 178.413 177.39C179.293 176.95 179.984 176.51 180.424 175.694C180.424 175.694 180.424 175.694 180.424 175.631C180.235 175.379 179.733 175.128 179.733 175.128C179.418 175.882 178.162 176.51 177.408 176.762C176.905 176.95 174.706 177.516 174.329 176.887C174.329 176.887 174.266 177.39 174.329 177.642C174.329 177.642 174.329 177.704 174.329 177.83H174.266Z" fill="#46476A"/>
<path d="M144.229 94.5686C146.303 93.8773 147.811 93.0604 148.565 90.8611C149.131 89.2273 148.754 85.834 146.994 85.2056C143.601 83.9488 139.391 86.3367 136.814 88.2218H136.626C136.814 90.484 136.5 91.3638 138.134 93.1233C139.768 94.8199 142.219 95.2598 144.167 94.6314L144.229 94.5686Z" fill="#66912B"/>
<path d="M145.359 92.9348C143.788 94.3172 142.091 94.8199 139.703 94.2544C141.149 94.9456 142.783 95.0084 144.165 94.5686C146.239 93.8773 147.747 93.0604 148.501 90.8611C149.067 89.2273 148.69 85.834 146.93 85.2056C143.537 83.9488 139.326 86.3367 136.75 88.2218H136.562C136.687 89.2901 136.624 90.107 136.75 90.7982C139.138 89.9813 141.84 89.7928 144.102 89.1644C145.61 88.7874 147.307 91.1124 145.233 92.9348H145.359Z" fill="#578024"/>
<path d="M102.001 157.973L102.378 155.02C102.63 152.946 101.184 151.061 99.1108 150.809C97.0371 150.558 95.152 152.003 94.9006 154.077L94.5235 157.03C94.2721 159.104 95.7175 160.989 97.7911 161.241C99.8648 161.492 101.75 160.047 102.001 157.973Z" fill="#9699A0"/>
<path d="M98.5446 158.036C98.5446 158.036 99.6129 156.905 99.8014 156.779C100.43 156.088 100.304 154.894 99.4872 154.14C98.6703 153.323 97.4764 153.26 96.848 153.951C96.7223 154.077 95.8426 154.957 95.7798 155.145C95.5284 155.837 96.5338 155.962 97.1622 156.591C97.7906 157.156 97.9162 158.287 98.5446 158.099V158.036Z" fill="#578024"/>
<path d="M98.8577 157.784C99.4861 157.093 99.3604 155.899 98.5435 155.145C97.7266 154.328 96.5326 154.265 95.9042 154.957C95.2759 155.648 95.4015 156.842 96.2185 157.596C97.0354 158.413 98.2293 158.476 98.8577 157.784Z" fill="#66912B"/>
<path d="M148.376 191.718L172.757 166.331L98.7959 157.47L65.4912 179.087L148.25 191.718H148.376ZM66.9994 178.71L98.9216 157.973L171.563 166.708L148.125 191.089L66.9365 178.71H66.9994Z" fill="#578024"/>
<path d="M122.167 160.384L93.0576 182.834L93.403 183.282L122.513 160.832L122.167 160.384Z" fill="#578024"/>
<path d="M146.868 163.377L120.728 187.067L121.105 187.507L147.245 163.754L146.868 163.377Z" fill="#578024"/>
<path d="M169.552 169.095L94.7737 160.047L94.7109 160.549L169.489 169.598L169.552 169.095Z" fill="#578024"/>
<path d="M90.5629 162.833L90.4941 163.394L166.652 172.718L166.721 172.157L90.5629 162.833Z" fill="#578024"/>
<path d="M163.459 175.442L86.9837 165.325L86.9209 165.891L163.333 175.945L163.459 175.442Z" fill="#578024"/>
<path d="M160.19 178.773L82.8353 167.964L82.7725 168.467L160.127 179.338L160.19 178.773Z" fill="#578024"/>
<path d="M79.476 170.19L79.3936 170.75L157.477 182.252L157.559 181.693L79.476 170.19Z" fill="#578024"/>
<path d="M75.1087 172.789L75.0244 173.348L154.25 185.288L154.334 184.728L75.1087 172.789Z" fill="#578024"/>
<path d="M70.9069 175.757L70.8232 176.316L151.614 188.405L151.698 187.846L70.9069 175.757Z" fill="#578024"/>
<path d="M90.501 96.1396L65.8682 170.667L71.5237 172.238L96.2823 97.0822C96.2823 97.0822 93.7058 95.8883 90.501 96.1396Z" fill="#AFB3B6"/>
<path d="M134.113 98.9673C134.113 98.9673 131.285 99.093 128.521 100.79L146.304 209.375L152.022 209.501L134.113 98.9673Z" fill="#AFB3B6"/>
<path d="M146.993 214.465C146.993 214.465 147.496 214.716 147.747 214.779C148.941 215.031 150.449 214.905 151.581 214.528C151.958 214.402 152.9 214.088 153.089 213.585C153.152 213.334 152.649 209.564 152.272 208.621C152.146 208.307 151.706 207.993 151.706 207.993C151.266 208.684 149.884 208.998 149.067 209.124C148.502 209.187 146.239 209.312 146.051 208.621C146.051 208.621 145.862 209.124 145.862 209.312C145.862 209.626 146.742 214.402 146.993 214.528V214.465Z" fill="#26244C"/>
<path d="M145.862 209.438C146.993 210.255 149.193 210.129 150.01 209.941C150.952 209.689 151.769 209.375 152.335 208.747C152.335 208.747 152.335 208.747 152.335 208.684C152.209 208.37 151.769 208.056 151.769 208.056C151.329 208.747 149.947 209.061 149.13 209.187C148.564 209.249 146.302 209.375 146.114 208.684C146.114 208.684 145.925 209.187 145.925 209.375C145.925 209.375 145.925 209.501 145.925 209.564L145.862 209.438Z" fill="#46476A"/>
<path d="M93.0773 99.156C95.4651 99.8472 97.4132 100.036 99.6126 98.4648C101.246 97.2708 103.006 93.8147 101.812 92.0552C99.424 88.6619 93.8942 88.1592 90.1867 88.3477L89.9982 88.1592C88.7414 90.4842 87.7988 91.1126 88.2386 93.8147C88.6785 96.4539 90.7522 98.4648 93.0144 99.156H93.0773Z" fill="#66912B"/>
<path d="M95.2778 98.3391C92.89 98.6533 90.9419 98.0249 89.0567 95.9512C89.9365 97.5222 91.5075 98.7161 93.0784 99.156C95.4663 99.8472 97.4144 100.036 99.6137 98.4648C101.248 97.2708 103.007 93.8147 101.813 92.0552C99.4252 88.6619 93.8954 88.1592 90.1879 88.3477L89.9994 88.1592C89.371 89.2903 88.8054 90.0443 88.4912 90.7984C91.2561 91.5525 93.9582 93.0606 96.5974 94.0032C98.294 94.5688 98.4197 97.8992 95.2149 98.3391H95.2778Z" fill="#578024"/>
<path d="M131.536 102.423C133.986 101.921 135.809 101.166 137.003 98.7786C137.883 97.0191 137.882 93.0602 135.997 92.1177C132.29 90.2325 127.137 92.369 123.995 94.1913H123.744C123.681 96.7677 123.178 97.7103 124.812 99.9097C126.446 102.046 129.211 102.863 131.536 102.423Z" fill="#66912B"/>
<path d="M133.043 100.664C131.095 102.046 129.084 102.423 126.445 101.418C127.953 102.423 129.838 102.738 131.535 102.423C133.986 101.921 135.808 101.167 137.002 98.7787C137.882 97.0192 137.882 93.0604 135.997 92.1178C132.289 90.2326 127.136 92.3691 123.994 94.1915H123.743C123.743 95.4482 123.554 96.328 123.617 97.1449C126.445 96.5165 129.524 96.6422 132.289 96.2652C134.049 96.0138 135.682 98.9044 133.043 100.727V100.664Z" fill="#578024"/>
<path d="M75.1054 65.537C74.1628 64.783 71.9007 63.6519 70.8324 63.4005C69.5756 64.7201 64.6113 67.8621 64.6113 67.8621C64.6113 68.9303 65.554 71.3811 65.931 72.3236C67.0621 71.5067 74.7913 65.9769 75.1683 65.537H75.1054Z" fill="#181C1E"/>
<path d="M69.5139 63.0861C68.6342 63.4631 63.6699 66.605 62.4131 67.799V67.9247H64.7382C65.6808 67.6105 70.268 64.5942 71.6504 63.6516C70.645 63.3374 69.5139 63.0861 69.5139 63.0861Z" fill="white"/>
<path d="M170.18 75.214C171.751 73.3289 172.694 72.0092 173.322 70.3754C173.699 69.4957 174.013 68.3646 174.265 67.422C173.699 67.422 167.164 74.6485 167.038 75.0884C166.913 75.5282 165.97 79.5499 165.907 79.6756C166.41 80.1783 169.363 76.0938 170.118 75.1512L170.18 75.214Z" fill="#AFB3B6"/>
<path d="M162.075 65.7883C161.761 65.7883 160.567 66.7309 160.253 68.5532C163.709 69.6215 167.291 70.4384 170.433 71.8209C170.81 70.8783 171.375 69.8729 171.627 68.4276C169.553 68.1134 164.463 65.8512 162.075 65.7883Z" fill="#578024"/>
<path d="M169.114 73.3291C169.742 72.7007 171.502 71.0041 172.758 69.496C173.45 68.6791 173.889 68.302 174.266 67.4851C173.638 67.0452 172.758 66.7939 172.193 67.2338C171.564 67.7365 171.124 68.4277 170.559 68.9932C169.051 70.4385 167.605 72.0095 165.972 73.392C166.349 73.5177 166.914 74.7744 167.04 75.1515C167.668 74.7116 168.611 73.8318 169.114 73.3291Z" fill="white"/>
<path d="M116.391 96.3282C116.391 96.3282 117.333 96.3282 117.396 96.3282C131.912 96.4539 142.029 92.7464 145.736 90.4842C149.255 88.3477 160.629 79.8016 161.698 65.3486C162.263 57.9964 72.9689 56.2369 73.2203 63.6519C73.723 78.1049 84.7826 87.1537 88.2388 89.4159C91.8834 91.8038 101.875 95.9512 116.391 96.3282Z" fill="#66912B"/>
<path d="M73.2842 63.6519C73.7869 78.1048 84.8465 87.1536 88.3027 89.4158C91.9474 91.8037 101.939 95.9511 116.455 96.3281C116.517 96.3281 117.397 96.3281 117.46 96.3281C131.976 96.4538 142.093 92.7463 145.8 90.4841C149.319 88.3476 160.693 79.8015 161.761 65.3485C161.887 63.2748 155.163 61.7039 145.298 60.5728C145.046 66.6053 141.716 73.5804 139.328 77.4136C132.855 88.0962 116.329 90.1071 100.493 86.2739C86.3547 82.8178 77.3058 68.0506 77.3687 61.3897C77.3687 61.3268 77.3687 61.264 77.3687 61.1383C74.7923 61.8295 73.2841 62.5836 73.347 63.589L73.2842 63.6519Z" fill="#578024"/>
<path d="M73.2826 63.6516C73.7853 78.1046 84.845 87.1534 88.3011 89.4156C91.9458 91.8035 101.937 95.9509 116.453 96.3279C116.516 96.3279 117.396 96.3279 117.458 96.3279C131.974 96.4536 142.091 92.7461 145.799 90.4839C149.318 88.3474 160.692 79.8013 161.76 65.3483C161.823 64.2172 159.812 63.2118 156.293 62.332C155.79 66.1652 155.036 69.9984 153.591 73.5802C151.266 79.4242 147.433 84.577 142.154 88.1588C129.838 96.4536 112.368 96.1394 98.6695 91.6778C86.5416 87.719 72.0258 76.7222 74.0367 62.5205C73.534 62.8976 73.2197 63.2746 73.2197 63.7145L73.2826 63.6516Z" fill="#578024"/>
<path d="M167.301 60.7794C167.436 53.7008 144.873 47.5311 116.906 46.999C88.9389 46.4669 66.1578 51.7739 66.0232 58.8524C65.8885 65.9309 88.4512 72.1006 116.418 72.6327C144.386 73.1648 167.167 67.8579 167.301 60.7794Z" fill="#AFB3B6"/>
<path d="M167.427 58.6009C167.562 51.5224 144.999 45.3526 117.032 44.8205C89.0649 44.2884 66.2838 49.5954 66.1491 56.6739C66.0145 63.7525 88.5771 69.9221 116.544 70.4542C144.511 70.9863 167.293 65.6794 167.427 58.6009Z" fill="white"/>
<path d="M165.027 55.9226C165.153 48.8846 152.962 29.7187 117.395 29.0275C83.5252 28.3991 68.9465 46.9994 68.8209 54.1003C68.6952 61.2011 90.1233 66.668 116.704 67.1708C143.285 67.6735 164.902 63.0234 165.027 55.9226Z" fill="#66912B"/>
<path d="M92.0085 34.683C97.0356 32.4208 102.314 31.2897 107.655 30.5356C109.855 29.9072 112.054 29.4045 114.253 29.0903C82.7083 29.6559 69.0095 47.3136 68.8838 54.1631C68.8838 54.1631 68.8838 54.1631 68.8838 54.2259C70.8946 55.2313 73.0311 55.9854 75.2305 56.6138C74.0994 52.2151 75.9846 47.8163 79.0637 44.3602C82.5827 40.4013 87.1699 36.9452 92.0085 34.7458V34.683Z" fill="#66912B"/>
<path d="M135.493 60.3211C126.758 63.3374 117.333 63.5887 108.221 62.8347C97.3498 61.9549 77.744 58.3103 71.0831 48.0047C69.5749 50.3925 68.8209 52.5291 68.8209 54.1C68.6952 61.138 90.1233 66.6678 116.704 67.1706C143.285 67.6733 164.902 63.0232 165.027 55.9224C165.153 50.7067 158.555 38.9559 140.834 32.8605C141.274 33.1747 141.777 33.4889 142.217 33.7402C147.055 37.1335 152.774 42.9147 150.009 49.3871C147.495 55.1683 141.149 58.3103 135.493 60.2583V60.3211Z" fill="#578024"/>
<path d="M133.169 35.123C133.169 33.0493 126.131 31.2898 117.334 31.1013C108.536 30.9128 101.435 32.4838 101.372 34.4946C101.31 36.5054 108.41 38.3278 117.208 38.5163C126.005 38.7048 133.106 37.1338 133.169 35.123Z" fill="#66912B"/>
<path d="M126.443 34.3062L127.26 33.8663C126.192 29.9703 123.176 27.9594 121.73 27.3311C121.73 27.3311 118.714 27.3311 117.771 31.9183C117.771 31.9183 118.463 32.1697 119.028 32.8609C119.468 33.4264 119.342 33.8663 119.342 33.8663C120.159 34.0548 123.678 33.992 126.506 34.3062H126.443Z" fill="#181C1E"/>
<path d="M118.591 31.2897C119.345 29.6559 120.036 28.0849 121.733 27.3308C119.659 26.8909 118.088 27.0166 116.706 27.0166C115.009 27.0166 114.192 27.1423 112.81 28.022C110.736 29.4045 108.348 32.7978 108.097 35.2485C109.291 35.7512 111.364 35.8769 112.747 35.9398C114.318 36.0654 117.146 36.1911 117.146 36.1911C117.146 36.1911 117.837 32.9863 118.654 31.2268L118.591 31.2897Z" fill="#66912B"/>
<path d="M116.014 27.0165C114.758 27.0165 114.004 27.2678 112.81 28.0219C110.736 29.4044 108.348 32.7977 108.097 35.2484C108.411 35.3741 108.725 35.4369 109.102 35.5626C109.542 31.2895 112.37 28.3989 116.014 27.0165Z" fill="white"/>
<path d="M118.089 35.7515C118.277 35.1859 119.346 30.1588 121.356 28.8392C122.613 28.0223 124.436 30.7872 125.441 32.1068C125.692 32.421 126.384 34.3062 126.384 34.3062L127.2 33.8663C126.823 31.7298 125.755 30.473 125.567 30.2216C124.75 29.2162 124.184 28.7764 123.116 28.0851C122.613 27.7709 121.985 27.3311 121.419 27.3311C120.665 27.3311 118.089 30.1588 117.021 36.1913C117.021 36.1913 117.775 36.317 118.026 35.6886L118.089 35.7515Z" fill="#578024"/>
<path d="M156.984 71.1296C156.67 71.1296 155.476 72.0722 155.162 73.8946C158.618 74.9628 162.2 75.7797 165.342 77.1622C165.782 76.2196 166.285 75.2142 166.536 73.7689C164.462 73.4547 159.372 71.1925 156.984 71.1296Z" fill="#578024"/>
<path d="M165.658 79.6756C166.223 79.927 166.223 79.4871 166.412 78.9215C166.663 77.9161 166.914 76.9107 167.229 75.9681C167.354 75.5282 167.543 74.9627 167.794 74.5228C167.291 74.0829 166.537 73.6431 165.972 73.3289C165.595 74.2086 165.344 75.214 165.092 76.1566C164.904 76.9107 164.464 77.9789 164.778 78.6073C164.966 78.9215 165.343 79.4242 165.72 79.6128L165.658 79.6756Z" fill="#2D3033"/>
<path d="M75.6088 66.8567C73.2209 66.6681 67.6911 67.5479 66.1201 67.9878C66.4972 69.2445 66.4972 69.8729 66.8113 70.8784L76.1743 69.8729C75.9858 68.0506 75.546 66.8567 75.546 66.8567H75.6088Z" fill="#578024"/>
<path d="M65.9317 72.3234C65.9317 72.3234 65.3033 69.4328 64.8006 67.9246C64.235 67.799 62.4756 67.799 62.4756 67.799C62.4756 68.9301 63.2297 71.5693 63.6695 72.1348C63.6695 72.1348 65.2405 72.5119 65.9946 72.3234H65.9317Z" fill="#AFB3B6"/>
<path d="M74.9166 198.064C75.7963 197.247 78.9383 194.106 79.9437 191.529C82.5829 184.743 81.9545 178.27 76.1105 172.3C70.078 166.205 62.0974 164.697 55.5622 168.09C54.6824 168.53 50.0952 171.169 48.6499 174.814C45.4451 182.732 47.7702 186.439 54.6196 193.351C61.4691 200.264 68.884 204.034 74.9794 198.064H74.9166Z" fill="#46476A"/>
<path d="M59.2057 167.274C57.6975 166.959 54.1157 169.347 53.4873 170.73H53.6758C54.5556 170.101 55.938 170.415 56.9435 169.536C57.7604 168.845 58.4516 168.028 59.2057 167.211V167.274Z" fill="#26244C"/>
<path d="M60.7777 169.724C61.5318 169.033 63.04 167.776 63.3542 166.896C61.2805 166.708 60.4635 168.027 59.0811 169.347L59.2696 169.598C59.7723 169.41 60.3379 169.598 60.7777 169.724Z" fill="#26244C"/>
<path d="M63.2921 169.536L63.1035 169.787C63.7319 169.976 64.6117 169.85 65.1772 170.227C65.8684 169.536 66.8111 168.405 67.1881 167.462C65.3029 166.771 64.4232 168.153 63.2921 169.536Z" fill="#26244C"/>
<path d="M68.8227 171.484C68.8227 171.484 71.022 169.85 70.5821 168.782C68.5713 167.965 68.3199 169.598 67.126 170.855V171.044C68.0686 170.667 68.0057 172.363 68.8227 171.484Z" fill="#26244C"/>
<path d="M71.9015 173.872C72.3413 173.62 73.5981 171.609 73.6609 171.17C73.6609 170.038 72.5298 170.164 71.9015 170.73C71.2731 171.295 70.896 172.112 70.3305 172.678H70.2676C70.7703 172.866 71.3359 174.311 71.9643 173.934L71.9015 173.872Z" fill="#26244C"/>
<path d="M74.415 175.82C74.415 175.82 76.6773 174.311 76.3002 173.243C74.3522 172.363 74.038 173.934 72.7812 175.128V175.317C73.7238 175.003 73.5981 176.637 74.415 175.82Z" fill="#26244C"/>
<path d="M76.4875 179.087C76.9274 178.961 78.6869 177.265 78.8125 176.825C79.1267 175.756 77.9328 175.631 77.1788 176.008C76.4247 176.385 75.922 177.076 75.2308 177.516H75.168C75.6078 177.83 75.8591 179.338 76.5503 179.087H76.4875Z" fill="#26244C"/>
<path d="M78.0602 182.166C78.5001 181.978 80.2596 180.344 80.3224 179.904C80.6366 178.773 79.4427 178.71 78.6886 179.087C77.9346 179.464 77.4319 180.218 76.7406 180.658H76.6777C77.1176 180.91 77.369 182.418 78.0602 182.229V182.166Z" fill="#26244C"/>
<path d="M78.7506 186.251C79.1905 186.062 80.95 184.429 81.0128 183.989C81.327 182.858 80.8243 182.418 80.1331 182.795C79.379 183.172 78.1223 184.303 77.4311 184.743H77.3682C77.808 184.994 78.0594 186.502 78.7506 186.314V186.251Z" fill="#26244C"/>
<path d="M80.761 185.999C79.9441 186.628 79.3157 187.57 78.4988 188.199L78.3103 188.639C78.4988 189.016 78.3102 189.518 78.1846 189.895C79.8812 189.204 80.5096 187.696 80.761 185.999Z" fill="#26244C"/>
<path d="M78.121 193.477C78.4352 193.163 78.8123 192.786 79.0637 192.346C79.315 192.032 80.2576 190.587 80.0062 190.21C79.6292 189.644 78.3724 191.152 78.0582 191.529C77.2413 192.409 77.367 193.477 76.8643 194.608L77.3042 194.106C77.3042 194.106 77.8069 193.729 78.0582 193.54L78.121 193.477Z" fill="#26244C"/>
<path d="M74.9159 198.065C81.0113 192.032 80.4458 181.601 73.5963 174.626C66.7469 167.713 56.3156 166.959 50.2202 172.929C44.1249 178.962 44.6904 189.393 51.5398 196.368C58.3893 203.28 68.8205 204.034 74.9159 198.065Z" fill="#26244C"/>
<path d="M72.4665 195.991C77.3679 191.215 76.8652 182.795 71.3982 177.265C65.9312 171.735 57.5737 171.107 52.6722 175.945C47.7708 180.721 48.2735 189.141 53.7405 194.671C59.2075 200.201 67.565 200.829 72.4665 195.991Z" fill="#26244C"/>
<path d="M70.4543 194.231C74.3503 190.398 73.9733 183.737 69.6374 179.338C65.3015 174.94 58.6406 174.437 54.7446 178.27C50.8485 182.103 51.2255 188.764 55.5614 193.163C59.8973 197.562 66.5583 198.064 70.4543 194.231Z" fill="#26244C"/>
<path d="M63.1648 187.822C63.1648 187.822 64.233 186.691 64.4216 186.565C65.05 185.874 64.9243 184.68 64.1073 183.926C63.2904 183.109 62.0965 183.046 61.4681 183.737C61.3424 183.863 60.4627 184.743 60.3999 184.931C60.1485 185.623 61.1539 185.748 61.7823 186.377C62.4107 186.942 62.5364 188.073 63.1648 187.885V187.822Z" fill="#578024"/>
<path d="M63.5423 187.57C64.1706 186.879 64.0449 185.685 63.228 184.931C62.4111 184.114 61.2172 184.051 60.5888 184.743C59.9604 185.434 60.0861 186.628 60.903 187.382C61.7199 188.199 62.9139 188.262 63.5423 187.57Z" fill="#66912B"/>
</svg>
