<svg width="240" height="240" viewBox="0 0 240 240" fill="none" xmlns="http://www.w3.org/2000/svg">
<circle cx="120" cy="120" r="120" fill="white"/>
<g style="mix-blend-mode:multiply" opacity="0.33">
<path d="M189.969 50.0843L31.7537 89.9427C29.5919 90.4873 28.2809 92.6813 28.8255 94.8432L52.9696 190.682C53.5142 192.843 55.7082 194.154 57.87 193.61L216.086 153.751C218.247 153.207 219.558 151.013 219.014 148.851L194.87 53.0125C194.325 50.8507 192.131 49.5397 189.969 50.0843Z" fill="#44514B"/>
</g>
<path d="M181.06 46.0834L23.8885 89.8778C21.741 90.4762 20.4851 92.7023 21.0835 94.8498L47.6118 190.056C48.2102 192.203 50.4362 193.459 52.5838 192.861L209.755 149.067C211.903 148.468 213.159 146.242 212.56 144.094L186.032 48.8884C185.434 46.7409 183.208 45.485 181.06 46.0834Z" fill="#231F20"/>
<path d="M154.307 87.0684C142.718 81.2739 143.824 105.559 143.824 105.559L145.712 110.898C151.702 109.01 156.781 102.955 156.781 102.955C156.781 102.955 165.896 92.863 154.307 87.0684ZM148.577 105.689C148.577 105.689 148.903 102.173 148.903 101.913C150.01 91.2353 155.479 91.6911 155.479 91.6911C157.822 96.8345 148.577 105.689 148.577 105.689Z" fill="white"/>
<path d="M166.613 100.35C161.339 88.5009 146.82 108.033 146.82 108.033L144.867 113.372C150.662 115.716 158.475 114.218 158.475 114.218C158.475 114.218 171.887 112.135 166.613 100.35ZM150.401 111.158C150.401 111.158 152.875 108.619 153.071 108.424C160.688 100.871 164.66 104.713 164.66 104.713C163.227 110.182 150.466 111.158 150.466 111.158H150.401Z" fill="white"/>
<path d="M134.187 112.851C134.187 112.851 111.985 101.262 112.441 114.609C112.832 127.891 126.179 123.789 126.179 123.789C126.179 123.789 133.926 121.38 138.223 116.562L134.187 112.786V112.851ZM116.152 117.734C116.152 117.734 118.105 112.395 128.523 115.976C128.783 116.041 131.973 117.213 132.169 117.343C132.169 117.343 119.863 122.161 116.087 117.734H116.152Z" fill="white"/>
<path d="M118.171 98.8528C111.4 110.312 124.877 113.958 124.877 113.958C124.877 113.958 132.69 116.041 138.941 114.283L137.508 108.944C137.508 108.944 124.877 87.3288 118.171 98.7877V98.8528ZM119.799 103.475C119.799 103.475 124.291 99.9596 131.193 108.619C131.323 108.814 133.406 111.484 133.602 111.744C133.602 111.744 120.645 109.27 119.799 103.541V103.475Z" fill="white"/>
<path d="M161.989 103.671C163.682 103.801 164.593 104.648 164.593 104.648C163.226 109.921 151.116 111.028 150.4 111.093C150.14 111.354 149.879 111.614 149.619 111.875L147.08 115C147.08 115 164.854 115.976 165.57 105.689C165.57 105.689 164.593 103.736 162.054 103.671H161.989Z" fill="#D1D3D4"/>
<path d="M133.343 117.734C132.953 117.604 132.627 117.473 132.237 117.343C131.586 117.604 119.866 122.031 116.22 117.734C116.22 117.734 116.676 116.562 118.239 115.65C115.83 116.887 115.83 119.101 115.83 119.101C121.103 128.346 135.492 119.492 135.492 119.492L133.343 117.734Z" fill="#D1D3D4"/>
<path d="M156.912 91.8861C156.912 91.8861 154.959 90.9746 152.875 92.6023C154.308 91.5606 155.545 91.6908 155.545 91.6908C157.824 96.6389 149.164 105.168 148.643 105.689C148.643 106.08 148.578 106.405 148.513 106.796V110.832C148.513 110.832 162.902 100.285 156.912 91.8861Z" fill="#D1D3D4"/>
<path d="M134.189 112.656C134.189 112.656 133.668 112.07 133.472 111.744C132.756 111.614 120.516 109.075 119.735 103.541C119.735 103.541 120.711 102.759 122.534 102.824C119.865 102.564 118.693 104.452 118.693 104.452C118.237 115.065 135.165 115.26 135.165 115.26L134.254 112.656H134.189Z" fill="#D1D3D4"/>
<path d="M141.583 104.741L138.447 105.615C136.473 106.165 135.319 108.212 135.869 110.186L136.742 113.322C137.293 115.296 139.339 116.451 141.314 115.901L144.449 115.027C146.424 114.477 147.578 112.43 147.028 110.456L146.154 107.32C145.604 105.346 143.558 104.191 141.583 104.741Z" fill="white"/>
<path d="M173.448 104.192L110.685 121.706C109.448 122.031 108.731 123.333 109.057 124.57L113.419 140.131C113.745 141.368 115.047 142.084 116.284 141.759L116.87 141.628L125.724 173.856L129.37 172.815L183.67 157.71L187.316 156.668L178.461 124.44L179.047 124.31C180.284 123.984 181 122.682 180.675 121.445L176.313 105.884C175.987 104.647 174.685 103.931 173.448 104.257V104.192Z" fill="#92C83E"/>
<path d="M178.412 124.338L153.638 131.241L153.918 132.244L178.691 125.341L178.412 124.338Z" fill="#76A532"/>
<path d="M141.918 134.42L116.831 141.41L117.11 142.414L142.197 135.424L141.918 134.42Z" fill="#76A532"/>
<path d="M147.942 110.79L136.213 114.058L150.561 165.55L162.289 162.282L147.942 110.79Z" fill="white"/>
<path d="M44.7958 100.155C47.335 103.54 45.5771 106.6 43.8843 109.725C42.3217 112.851 41.0847 115.976 46.3584 119.492C43.8192 116.106 45.5771 113.046 47.2699 109.921C48.8324 106.796 50.0695 103.67 44.7958 100.155Z" fill="#ED1A38"/>
<path d="M39.849 96.3137C45.1227 99.8295 43.8857 102.955 42.3231 106.08C40.5652 109.205 38.8724 112.265 41.4116 115.651C36.1379 112.135 37.3749 109.01 38.9375 105.884C40.6954 102.759 42.3882 99.6993 39.849 96.3137Z" fill="#83C240"/>
<path fill-rule="evenodd" clip-rule="evenodd" d="M80.5418 98.0716C80.3465 97.4205 79.8256 97.095 79.1094 97.2903C78.0677 97.6158 78.1328 98.5924 78.3933 99.3737C78.6537 100.22 78.9792 101.197 80.1512 100.871C80.9976 100.611 81.0627 100.025 80.8673 99.2435L80.4116 99.3737C80.5418 99.9597 80.5418 100.415 80.021 100.546C79.3048 100.741 79.0443 99.9597 78.849 99.2435C78.7188 98.7878 78.4584 97.8112 79.2397 97.6158C79.7605 97.4856 80.021 97.7461 80.1512 98.2018L80.6069 98.0716H80.5418Z" fill="#808285"/>
<path fill-rule="evenodd" clip-rule="evenodd" d="M80.9326 96.8997L81.9092 100.35L83.8624 99.7644L83.7973 99.4389L82.2348 99.8295L81.9092 98.5925L83.3416 98.1367L83.2114 97.8112L81.779 98.2018L81.4535 97.095L83.016 96.6393L82.8858 96.3137L80.9326 96.8997Z" fill="#808285"/>
<path fill-rule="evenodd" clip-rule="evenodd" d="M84.7734 96.1834L85.8151 95.8579L85.6848 95.5323L83.2759 96.2485L83.341 96.5741L84.3827 96.3136L85.2291 99.3737L85.6848 99.3086L84.7734 96.1834Z" fill="#808285"/>
<path fill-rule="evenodd" clip-rule="evenodd" d="M86.5959 95.2716L86.1401 95.4018L87.1167 98.8525L88.1585 98.5921C88.8746 98.3968 89.2653 97.941 89.07 97.2899C88.8746 96.5086 88.2236 96.4435 87.5074 96.6389L86.9865 96.7691L86.5959 95.2716ZM87.1167 97.0946L87.5074 96.9644C88.0933 96.7691 88.484 96.8342 88.6793 97.355C88.8095 97.8108 88.5491 98.0712 88.0282 98.2014L87.5074 98.3317L87.1167 97.0295V97.0946Z" fill="#808285"/>
<path fill-rule="evenodd" clip-rule="evenodd" d="M92.5225 95.923L91.4808 96.1834V94.2302L92.5225 95.923ZM91.0251 97.8111L91.4808 97.6809V96.5741L92.7179 96.2485L93.3038 97.16L93.7596 97.0298L91.6761 93.9047L91.0902 94.0349L90.96 97.8111H91.0251Z" fill="#808285"/>
<path fill-rule="evenodd" clip-rule="evenodd" d="M93.8886 94.2298C93.8235 93.8392 94.0188 93.5137 94.4094 93.3834C94.8001 93.2532 95.1256 93.3834 95.1907 93.7741C95.2558 94.1647 95.1907 94.4252 94.735 94.5554H94.4745L94.5396 95.0111L94.9303 94.8809C95.386 94.7507 95.7116 95.0111 95.8418 95.3367C95.972 95.6622 95.8418 96.1179 95.3209 96.2482C94.8001 96.3784 94.4745 96.1831 94.2792 95.6622L93.8235 95.7924C94.0839 96.4435 94.4745 96.8341 95.386 96.6388C96.3626 96.3784 96.4278 95.6622 96.2975 95.2716C96.1673 94.7507 95.7767 94.5554 95.3209 94.5554C95.5814 94.3601 95.8418 94.0345 95.7116 93.5788C95.5814 93.0579 95.0605 92.8626 94.4094 92.9928C93.7584 93.1881 93.4328 93.6439 93.4979 94.2949L93.9537 94.1647L93.8886 94.2298Z" fill="#808285"/>
<path fill-rule="evenodd" clip-rule="evenodd" d="M98.7708 92.9931C98.5755 92.342 98.1197 92.0165 97.3385 92.2118C96.2967 92.5373 96.3618 93.514 96.6223 94.2952C96.8827 95.1416 97.2082 96.1182 98.3802 95.7927C99.2266 95.5323 99.2917 94.9463 99.0964 94.165L98.6406 94.2952C98.7708 94.8812 98.7708 95.337 98.25 95.4672C97.5338 95.6625 97.2733 94.8812 97.078 94.165C96.9478 93.7093 96.6874 92.7978 97.4687 92.5373C97.9895 92.4071 98.25 92.6676 98.3802 93.1233L98.8359 92.9931H98.7708Z" fill="#808285"/>
<path d="M87.835 100.415L89.3975 105.884L91.8065 105.233L91.2205 103.215L93.8248 102.434L93.4993 101.262L90.895 101.978L90.5695 100.936L95.7781 99.4387L97.0151 103.736L99.4241 103.085L98.187 98.7876L100.401 98.1365L100.075 96.9646L87.835 100.415Z" fill="#83C240"/>
<path d="M83.8617 106.145L83.6012 105.168L86.7264 104.322L86.4009 103.085L83.2757 103.996L83.0153 103.02L87.0519 101.913L86.7264 100.741L80.2808 102.499L81.8433 108.033L88.289 106.21L87.9634 104.973L83.8617 106.145Z" fill="#83C240"/>
<path d="M57.3631 108.944L50.7222 110.833L51.0477 112.07L53.1311 111.419L54.3682 115.716L56.7771 115.065L55.5401 110.767L57.6887 110.181L57.3631 108.944Z" fill="#ED1A38"/>
<path d="M62.1153 107.642L59.511 108.358L58.0786 114.674L59.6412 114.218L59.9016 113.111L63.2872 112.135L64.0685 112.916L66.7379 112.2L62.1804 107.577L62.1153 107.642ZM60.162 111.874L60.6829 109.465L62.3757 111.288L60.2272 111.874H60.162Z" fill="#ED1A38"/>
<path d="M77.3515 103.345L78.0677 106.079L73.5102 104.452L71.6221 104.972L73.1846 110.441L74.8123 109.986L73.9659 106.991L78.7839 108.879L80.5418 108.358L78.9792 102.889L77.3515 103.345Z" fill="#83C240"/>
<path d="M70.841 105.168L64.2651 106.991L64.6558 108.228L66.7392 107.642L67.9763 111.874L70.3852 111.223L69.1482 106.926L71.1665 106.405L70.841 105.168Z" fill="#ED1A38"/>
</svg>
