<svg width="240" height="240" viewBox="0 0 240 240" fill="none" xmlns="http://www.w3.org/2000/svg">
<circle cx="120" cy="120" r="120" fill="white"/>
<g style="mix-blend-mode:multiply" opacity="0.33">
<path d="M208.316 80.346C208.316 80.346 207.215 77.041 203.752 77.4345C191.398 78.8509 179.122 80.346 166.846 82.0772C166.689 82.0772 166.532 82.0772 166.296 82.0772C151.502 84.1232 136.708 86.4839 121.993 89.002C107.278 91.5987 92.6413 94.5103 78.0048 97.5792C77.8475 97.5792 77.6901 97.6579 77.454 97.6579C65.3357 100.255 53.296 103.009 41.2564 105.92C37.8727 106.707 37.9514 110.248 37.9514 110.248C37.0071 139.285 41.4138 164.466 52.2731 191.378C52.2731 191.378 53.8469 194.526 56.365 194.29C68.7981 192.873 81.2312 191.3 93.6643 189.568C93.8216 189.568 93.979 189.568 94.2151 189.568C109.009 187.522 123.803 185.162 138.518 182.644C153.233 180.047 167.869 177.135 182.506 174.066C182.663 174.066 182.821 173.988 182.978 173.988C195.254 171.391 207.451 168.637 219.648 165.647C222.087 165.017 222.559 161.555 222.559 161.555C223.504 132.518 219.097 107.337 208.238 80.346H208.316Z" fill="#44514B"/>
<path d="M83.4346 90.3397L83.592 91.0479L91.225 89.7102L91.0676 89.0019L90.7528 87.3494L90.5954 86.2478L90.2807 84.5953L90.202 83.9657H90.8315L91.3037 86.5625L92.5627 86.3265L93.1135 89.3167L102.714 87.6642L107.357 87.2708L112.707 86.3265L113.494 90.6544L130.649 87.6642L129.862 83.3362L135.213 82.3919L139.777 81.1329L149.377 79.4804L145.679 58.5487L142.059 59.1782L147.489 58.2339L144.026 38.7187L108.616 44.9352L129.705 41.2368L129.232 38.5613L130.806 38.2466L129.941 33.3677L95.3956 39.4269L96.2612 44.3057L113.494 41.2368L97.835 43.991L98.3071 46.6664L83.9854 49.1845L87.4478 68.6998L89.2577 68.385L92.4053 86.2478L90.5167 75.4672L89.2577 75.7032L90.0446 79.9525L89.7298 78.064H89.1003L88.7856 76.4115L88.6282 75.3098L88.3134 73.6573L88.156 72.6343L80.5231 73.972L80.6804 74.6803C79.0279 75.0737 78.3197 78.6935 79.1066 82.9428C79.8148 87.1921 81.7821 90.3397 83.4346 90.1823V90.3397Z" fill="#44514B"/>
</g>
<path d="M200.444 72.4768C200.444 72.4768 199.342 69.1718 195.88 69.5653C168.495 72.6342 141.268 76.5687 114.199 81.2901C87.1294 86.0903 60.2172 91.6773 33.4624 98.2086C30.0787 98.9955 30.1574 102.537 30.1574 102.537C29.2131 131.573 33.6198 156.754 44.4791 183.667C44.4791 183.667 46.0529 186.814 48.571 186.578C76.1127 183.509 103.497 179.575 130.645 174.774C157.872 169.974 184.863 164.309 211.775 157.777C214.215 157.148 214.687 153.685 214.687 153.685C215.631 124.649 211.224 99.4677 200.365 72.4768H200.444Z" fill="#EE2038"/>
<path d="M30.1574 102.537C29.2131 131.573 33.6198 156.754 44.4791 183.667C44.4791 183.667 46.0529 186.814 48.571 186.578C61.2402 185.162 73.8307 183.588 86.3425 181.778C76.3488 170.053 70.9191 154.708 67.8502 137.633C64.7813 120.557 64.7026 104.268 70.1322 89.8674C57.8565 92.4642 45.5808 95.2184 33.3837 98.2086C30.0001 98.9955 30.0787 102.537 30.0787 102.537H30.1574Z" fill="#9B1122"/>
<path d="M200.444 72.4768C211.303 99.389 215.71 124.649 214.766 153.685C214.766 153.685 214.372 157.226 211.854 157.777C199.5 160.768 187.145 163.6 174.712 166.197C180.142 151.797 179.984 135.508 176.994 118.432C174.004 101.356 168.574 86.0116 158.502 74.2867C170.935 72.5555 183.368 70.9817 195.88 69.5653C199.342 69.1718 200.444 72.4768 200.444 72.4768Z" fill="#9B1122"/>
<path d="M65.4895 138.105C62.4992 121.029 64.2304 104.425 69.6601 90.0248C57.5417 92.6216 45.5021 95.3757 33.4624 98.2873C30.0787 99.0742 30.1574 102.615 30.1574 102.615C29.2131 131.652 33.6198 156.833 44.4791 183.745C44.4791 183.745 46.0529 186.893 48.571 186.657C61.0041 185.24 73.4372 183.666 85.8703 181.935C75.8766 170.21 68.5584 155.181 65.4895 138.183V138.105Z" fill="#EE2038"/>
<path d="M179.354 118.039C176.364 100.963 169.046 85.9329 158.974 74.2867C171.249 72.5555 183.525 70.9817 195.879 69.6439C199.342 69.2505 200.444 72.5555 200.444 72.5555C211.303 99.4676 215.709 124.727 214.765 153.764C214.765 153.764 214.372 157.305 211.854 157.856C199.657 160.846 187.46 163.6 175.184 166.197C180.614 151.797 182.345 135.114 179.354 118.117V118.039Z" fill="#EE2038"/>
<path d="M159.213 123.469L158.505 119.534L157.088 119.77C156.931 119.062 156.695 118.354 156.538 117.646L157.875 117.173L156.538 113.475L155.2 113.947C154.885 113.239 154.57 112.609 154.256 111.98L155.436 111.272L153.469 107.809L152.288 108.517C151.895 107.888 151.423 107.337 151.029 106.708L152.131 105.763L149.613 102.694L148.511 103.639C148.039 103.088 147.488 102.537 146.937 102.065L147.803 100.963L144.734 98.4451L143.79 99.5468C143.239 99.0746 142.609 98.6812 141.98 98.2877L142.688 97.0287L139.226 95.0614L138.517 96.3204C137.888 96.0057 137.18 95.6909 136.55 95.3762L137.022 94.0384L133.324 92.7007L132.852 94.0384C132.143 93.8024 131.435 93.645 130.727 93.4876L130.963 92.0712L127.029 91.3629L126.793 92.7794C126.084 92.7007 125.297 92.622 124.589 92.622V91.2056H120.655V92.622C119.946 92.622 119.16 92.7007 118.451 92.7794L118.215 91.3629L114.281 92.0712L114.517 93.4876C113.809 93.645 113.1 93.881 112.392 94.0384L111.92 92.7007L108.222 94.0384L108.694 95.3762C107.985 95.6909 107.356 96.0057 106.726 96.3204L106.018 95.1401L102.556 97.1074L103.264 98.2877C102.635 98.6812 102.084 99.1533 101.454 99.5468L100.51 98.4451L97.441 100.963L98.3852 102.065C97.8344 102.537 97.2836 103.088 96.8114 103.639L95.7098 102.694L93.1917 105.763L94.2933 106.708C93.8212 107.337 93.4277 107.888 93.0343 108.517L91.7752 107.809L89.808 111.272L91.067 111.98C90.7523 112.609 90.4375 113.318 90.1227 113.947L88.785 113.475L87.4473 117.173L88.785 117.646C88.5489 118.354 88.3916 119.062 88.2342 119.77L86.8177 119.534L86.1095 123.469L87.526 123.705C87.4473 124.413 87.3686 125.2 87.3686 125.908H85.9521V129.843H87.3686C87.3686 130.551 87.4473 131.338 87.526 132.046L86.1095 132.282L86.8177 136.217L88.2342 135.98C88.3916 136.689 88.6276 137.397 88.785 138.105L87.4473 138.577L88.785 142.276L90.1227 141.804C90.4375 142.512 90.7523 143.141 91.067 143.771L89.8867 144.479L91.8539 147.941L93.0343 147.233C93.4277 147.863 93.8999 148.414 94.2933 149.043L93.1917 149.987L95.7098 153.056L96.8114 152.112C97.2836 152.663 97.8344 153.214 98.3852 153.686L97.441 154.788L100.51 157.306L101.454 156.204C102.084 156.676 102.635 157.07 103.264 157.463L102.556 158.722L106.018 160.689L106.726 159.509C107.356 159.824 108.064 160.138 108.694 160.453L108.222 161.791L111.92 163.129L112.392 161.791C113.1 162.027 113.809 162.184 114.517 162.342L114.281 163.758L118.215 164.466L118.451 163.05C119.16 163.129 119.946 163.207 120.655 163.207V164.624H124.589V163.207C125.297 163.207 126.084 163.129 126.793 163.05L127.029 164.466L130.963 163.758L130.727 162.342C131.435 162.184 132.143 161.948 132.852 161.791L133.324 163.129L137.022 161.791L136.55 160.453C137.258 160.138 137.888 159.824 138.517 159.509L139.226 160.689L142.688 158.722L141.98 157.542C142.609 157.148 143.16 156.676 143.79 156.283L144.734 157.384L147.803 154.866L146.859 153.765C147.409 153.292 147.96 152.742 148.432 152.191L149.534 153.135L152.052 150.066L150.951 149.122C151.423 148.571 151.816 147.941 152.21 147.312L153.469 148.02L155.436 144.558L154.256 143.85C154.57 143.22 154.885 142.512 155.2 141.882L156.538 142.354L157.875 138.656L156.538 138.184C156.774 137.476 156.931 136.767 157.088 136.059L158.505 136.295L159.213 132.361L157.797 132.125C157.875 131.416 157.954 130.63 157.954 129.921H159.37V125.987H157.954C157.954 125.279 157.875 124.492 157.797 123.783L159.213 123.547V123.469Z" fill="#26244C"/>
<path d="M158.111 121.737C154.649 102.065 135.842 88.8448 116.169 92.3072C96.4966 95.7696 83.2766 114.577 86.739 134.249C90.2013 153.922 109.008 167.142 128.681 163.68C148.354 160.217 161.574 141.41 158.111 121.737Z" fill="#26244C"/>
<path d="M154.413 122.446C151.265 104.819 134.426 93.0155 116.799 96.0844C99.1722 99.1533 87.3686 116.072 90.4375 133.698C93.5852 151.325 110.425 163.129 128.052 160.06C145.678 156.991 157.482 140.072 154.413 122.446Z" fill="#AFB3B6"/>
<path d="M144.813 124.098C142.609 111.744 130.884 103.481 118.53 105.685C106.176 107.888 97.9131 119.613 100.116 131.967C102.32 144.322 114.045 152.584 126.399 150.381C138.753 148.178 147.016 136.453 144.813 124.098Z" fill="#26244C"/>
<path d="M144.105 124.256C141.98 112.295 130.57 104.347 118.609 106.393C106.648 108.439 98.7002 119.928 100.746 131.889C102.792 143.85 114.281 151.797 126.242 149.751C138.203 147.705 146.151 136.217 144.105 124.256Z" fill="#AFB3B6"/>
<path d="M137.652 125.357C136.157 116.937 128.13 111.35 119.789 112.845C111.448 114.341 105.782 122.367 107.277 130.708C108.772 139.128 116.799 144.715 125.14 143.22C133.481 141.725 139.147 133.698 137.652 125.357Z" fill="url(#paint0_linear_901_4683)"/>
<path d="M130.176 126.695C129.389 122.446 125.297 119.534 121.048 120.321C116.799 121.108 113.887 125.121 114.674 129.449C115.461 133.777 119.474 136.61 123.802 135.823C128.13 135.036 130.963 130.944 130.176 126.695Z" fill="url(#paint1_linear_901_4683)"/>
<path d="M126.874 127.246C126.402 124.806 124.12 123.154 121.68 123.547C119.241 123.941 117.588 126.301 117.982 128.741C118.375 131.18 120.736 132.833 123.175 132.439C125.615 132.046 127.267 129.685 126.874 127.246Z" fill="#162746"/>
<path opacity="0.3" d="M132.616 135.587C131.672 136.925 129.94 137.24 128.603 136.295C127.265 135.351 126.95 133.62 127.894 132.282C128.839 130.944 130.57 130.63 131.908 131.574C133.245 132.518 133.56 134.249 132.616 135.587Z" fill="white"/>
<path opacity="0.3" d="M131.278 134.643C130.884 135.194 130.097 135.351 129.547 134.958C128.996 134.564 128.838 133.777 129.232 133.226C129.625 132.676 130.412 132.518 130.963 132.912C131.514 133.305 131.671 134.092 131.278 134.643Z" fill="white"/>
<path opacity="0.3" d="M128.917 132.99C128.287 133.856 127.028 134.092 126.163 133.462C125.297 132.833 125.061 131.574 125.691 130.708C126.32 129.843 127.579 129.607 128.445 130.236C129.31 130.866 129.546 132.125 128.917 132.99Z" fill="white"/>
<path opacity="0.3" d="M124.983 130.236C124.589 130.708 123.96 130.866 123.409 130.551C122.937 130.157 122.779 129.528 123.094 128.977C123.487 128.505 124.117 128.348 124.668 128.662C125.14 129.056 125.297 129.685 124.983 130.236Z" fill="white"/>
<path opacity="0.3" d="M122.386 128.426C122.386 128.426 121.835 128.741 121.599 128.584C121.363 128.426 121.284 128.033 121.442 127.797C121.599 127.561 121.993 127.482 122.229 127.639C122.465 127.797 122.543 128.19 122.386 128.426Z" fill="white"/>
<path opacity="0.3" d="M120.733 127.246C120.733 127.246 120.34 127.482 120.183 127.325C120.025 127.167 119.946 126.931 120.104 126.774C120.261 126.616 120.497 126.538 120.655 126.695C120.812 126.852 120.891 127.088 120.733 127.246Z" fill="white"/>
<path opacity="0.4" d="M115.146 122.446C116.248 121.029 117.743 119.849 119.631 119.298L118.372 115.521C115.854 116.387 113.73 117.882 112.156 119.928L115.225 122.524L115.146 122.446Z" fill="white"/>
<path opacity="0.4" d="M110.897 121.58C110.346 122.524 109.952 123.469 109.716 124.492L113.493 125.672C113.651 124.964 113.966 124.256 114.28 123.626L110.897 121.501V121.58Z" fill="white"/>
<path d="M119.71 112.767C111.29 114.262 105.625 122.288 107.12 130.708C108.615 139.128 116.641 144.794 125.061 143.299C133.481 141.804 139.147 133.777 137.652 125.357C136.157 116.937 128.13 111.272 119.71 112.767ZM124.983 142.669C117.192 144.007 109.795 138.892 108.458 131.102C107.12 123.311 112.313 115.914 120.025 114.577C127.737 113.239 135.212 118.354 136.55 126.144C137.888 133.934 132.694 141.331 124.983 142.669Z" fill="#26244C"/>
<path d="M71.313 75.231C72.0999 79.4803 74.0672 82.7853 75.7197 82.4705C77.3722 82.1558 78.0804 78.4573 77.3722 74.208C76.664 69.9587 74.618 66.6537 72.9655 66.9685C71.313 67.2833 70.6048 70.9817 71.313 75.231Z" fill="#EE2038"/>
<path d="M99.484 79.4803L127.34 74.5228L126.081 55.6371L93.897 61.3815L99.484 79.4803Z" fill="#EE2038"/>
<path d="M131.905 73.3425L127.341 74.5228L126.082 55.6371L129.072 57.1322L131.905 73.3425Z" fill="#9B1122"/>
<path d="M94.8412 79.8737L99.484 79.4803L93.8969 61.3815L91.9297 63.6635L94.8412 79.8737Z" fill="#9B1122"/>
<path d="M112.076 69.2508C118.057 68.2278 121.991 75.4673 121.991 75.4673L122.778 79.7953L105.624 82.7855L104.837 78.4576C104.837 78.4576 106.017 70.2737 112.076 69.1721V69.2508Z" fill="#9B1122"/>
<path d="M82.7726 67.7239L81.5327 67.9425L83.4321 78.7143L84.672 78.4957L82.7726 67.7239Z" fill="#EE2038"/>
<path d="M80.4371 64.9119L72.7651 66.2646L75.744 83.1586L83.416 81.8058L80.4371 64.9119Z" fill="#EE2038"/>
<path d="M128.208 52.4109L128.995 52.2536L137.809 50.6797L141.507 71.6114L131.907 73.3426L129.074 57.1324L126.084 55.6372L94.2141 61.303L91.9321 63.6637L94.8436 79.8739L85.2434 81.6051L81.5449 60.6734L128.208 52.4109Z" fill="#9B1122"/>
<path d="M136.162 30.9448L76.2583 41.5074L79.7017 61.0361L139.605 50.4735L136.162 30.9448Z" fill="#EE2038"/>
<path d="M122.117 25.5801L87.6313 31.6608L88.4922 36.543L122.977 30.4623L122.117 25.5801Z" fill="#EE2038"/>
<path d="M121.326 30.7061L90.0176 36.2265L90.4822 38.8613L121.79 33.3409L121.326 30.7061Z" fill="#9B1122"/>
<path d="M81.9832 70.3425L81.3633 70.4518L82.3881 76.2639L83.0081 76.1546L81.9832 70.3425Z" fill="#9B1122"/>
<path d="M80.5802 65.9778L72.9082 67.3306L73.1952 68.958L80.8672 67.6052L80.5802 65.9778Z" fill="#9B1122"/>
<path d="M81.0377 68.688L73.3657 70.0408L73.6527 71.6682L81.3247 70.3154L81.0377 68.688Z" fill="#9B1122"/>
<path d="M81.5729 71.3059L73.9009 72.6587L74.1878 74.2861L81.8598 72.9333L81.5729 71.3059Z" fill="#9B1122"/>
<path d="M82.0436 74.0936L74.3716 75.4464L74.6585 77.0738L82.3305 75.721L82.0436 74.0936Z" fill="#9B1122"/>
<path d="M82.5011 76.8038L74.8291 78.1566L75.1161 79.784L82.7881 78.4312L82.5011 76.8038Z" fill="#9B1122"/>
<path d="M82.9728 79.5129L75.3008 80.8657L75.5877 82.4931L83.2597 81.1403L82.9728 79.5129Z" fill="#9B1122"/>
<defs>
<linearGradient id="paint0_linear_901_4683" x1="134.123" y1="138.719" x2="110.126" y2="116.822" gradientUnits="userSpaceOnUse">
<stop stop-color="#2569A7"/>
<stop offset="0.47" stop-color="#1D3F75"/>
<stop offset="1" stop-color="#01073F"/>
</linearGradient>
<linearGradient id="paint1_linear_901_4683" x1="128.408" y1="133.495" x2="116.129" y2="122.316" gradientUnits="userSpaceOnUse">
<stop stop-color="#2569A7"/>
<stop offset="0.47" stop-color="#1D3F75"/>
<stop offset="1" stop-color="#01073F"/>
</linearGradient>
</defs>
</svg>
