<svg width="240" height="240" viewBox="0 0 240 240" fill="none" xmlns="http://www.w3.org/2000/svg">
<circle cx="120" cy="120" r="120" fill="white"/>
<g style="mix-blend-mode:multiply" opacity="0.33">
<path d="M178.285 74.9061C179.319 73.227 179.9 71.2249 179.642 69.352C179.577 68.7061 179.383 68.1249 179.125 67.479C177.704 64.5082 173.829 62.5061 169.889 61.7311C168.921 61.5374 167.952 61.4082 166.983 61.3436C163.948 61.1499 160.912 61.3436 157.877 61.5374C151.031 61.9894 144.121 62.2478 137.21 62.4415C137.21 62.3769 137.21 62.2478 137.21 62.1832C136.564 59.6644 132.819 57.1457 130.494 56.1123C122.744 52.5603 100.01 53.9811 93.8747 61.4728C92.583 61.4082 91.2268 61.3436 89.9351 61.279C86.1247 61.0207 82.3789 60.6978 78.5684 60.3103C77.9872 60.3103 76.7601 59.9228 76.2434 60.1165C75.6622 60.3103 75.3393 61.2144 75.0809 61.6665C74.3059 62.8936 73.5955 64.1853 73.1434 65.4769C72.5622 67.0915 72.3039 68.7707 72.6268 70.4499C73.1434 73.0332 74.9518 75.3582 75.3393 77.9416C76.2434 83.6895 70.1726 89.3082 72.8851 94.7332C74.6288 98.2208 79.4726 100.158 83.9289 101.515C84.7039 101.773 85.5434 101.902 86.3184 102.16C85.6726 109.91 85.0914 117.725 84.381 125.475C83.1539 138.779 69.0101 174.688 48.7955 188.831C48.3434 189.154 47.9559 189.542 47.633 189.929C45.76 191.027 43.8871 192.125 41.9496 193.158C39.9476 194.256 37.9455 195.29 35.9434 196.258C34.91 196.711 33.9413 197.163 32.908 197.55C31.9392 197.938 30.7767 198.261 30.0017 198.971C29.6788 199.294 29.7434 199.875 30.1309 200.069C32.0684 201.167 34.7808 199.94 36.6538 199.165C38.8496 198.26 40.9808 197.163 43.1121 196.065C44.0163 195.613 44.8559 195.161 45.76 194.644C45.8892 194.773 46.0184 194.838 46.1475 194.967C46.5996 195.225 47.0517 195.548 47.5038 195.806C47.1163 196.129 46.7288 196.452 46.3413 196.775C44.4038 198.325 42.4663 199.811 40.3996 201.167C38.3329 202.458 36.1371 203.492 33.9413 204.59C33.1663 204.977 33.4892 206.333 34.3933 206.269C39.4309 205.817 43.9517 202.394 47.7621 199.423C48.6017 198.777 49.3767 198.131 50.2163 197.486C50.9267 197.938 51.6371 198.325 52.3475 198.777C51.4434 199.488 50.5392 200.198 49.5704 200.844C47.3746 202.394 45.1788 203.944 42.9184 205.365C40.7225 206.786 38.2038 208.077 36.5892 210.208C36.3955 210.402 36.5892 210.725 36.9121 210.725C39.56 210.661 42.0788 209.111 44.3392 207.819C46.7288 206.463 48.9892 204.977 51.2496 203.427C52.6059 202.458 53.8976 201.49 55.1892 200.521C56.158 201.038 57.1268 201.619 58.0955 202.136C57.5788 202.523 57.0621 202.911 56.5455 203.298C54.3496 204.848 52.0246 206.333 49.635 207.625C47.31 208.917 44.7913 210.015 42.5955 211.629C42.0788 212.017 42.1434 213.179 42.983 213.05C45.76 212.727 48.3434 211.5 50.7975 210.208C53.3163 208.917 55.7059 207.431 57.9663 205.817C58.9351 205.106 59.9038 204.396 60.808 203.686C61.4538 204.008 62.0996 204.396 62.7455 204.719C61.7767 205.558 60.7434 206.398 59.6455 207.108C57.3205 208.658 54.9309 210.144 52.6059 211.694C51.3788 212.469 50.2163 213.244 49.0538 214.148C48.0205 214.923 46.7934 215.633 46.4059 216.99C46.4059 217.183 46.4059 217.442 46.6642 217.442C48.0205 217.7 49.3122 216.861 50.4747 216.279C51.7663 215.633 52.9934 214.858 54.2205 214.148C56.7392 212.663 59.258 211.177 61.6476 209.563C63.133 208.594 64.4892 207.496 65.7163 206.333C65.8455 206.333 65.9101 206.463 66.0392 206.463C66.4913 206.721 67.008 206.979 67.4601 207.173C66.5559 208.077 65.5872 208.981 64.5538 209.886C62.5518 211.694 60.4205 213.308 58.2246 214.858C57.0621 215.633 55.8997 216.408 54.8017 217.183C53.7038 217.894 52.6059 218.604 51.8309 219.702C51.5726 220.09 51.8955 220.542 52.3475 220.542C53.833 220.542 55.1247 219.961 56.4163 219.315C57.6434 218.733 58.8705 218.023 60.033 217.248C62.4226 215.698 64.683 213.954 66.8788 212.081C68.1705 210.983 69.333 209.821 70.4955 208.658C70.883 208.852 71.3351 209.046 71.7226 209.24C70.883 210.273 69.9789 211.242 69.1393 212.211C67.3955 214.148 65.5226 216.021 63.6496 217.894C62.6809 218.798 61.7767 219.702 60.808 220.606C59.9038 221.446 58.7413 222.479 58.2246 223.642C58.0309 224.158 58.3538 224.675 58.9351 224.546C60.1622 224.352 61.3892 223.448 62.358 222.673C63.4559 221.833 64.5538 220.994 65.5872 220.09C67.7184 218.281 69.7205 216.279 71.5934 214.277C72.6913 213.115 73.7247 211.952 74.758 210.725C75.2747 210.983 75.7914 211.242 76.308 211.5C76.5018 211.629 76.7601 211.694 76.9539 211.823C76.2434 212.792 75.533 213.696 74.8226 214.665C73.208 216.667 71.5289 218.604 69.8497 220.542C69.0101 221.446 68.1705 222.35 67.3955 223.319C66.6205 224.223 65.3934 225.256 65.3288 226.483C65.3288 227 65.7809 227.452 66.2976 227.452C67.5247 227.452 68.6226 226.225 69.5268 225.45C70.4955 224.611 71.3997 223.642 72.2392 222.738C74.0476 220.865 75.7914 218.863 77.4059 216.861C78.3101 215.763 79.1497 214.665 79.9893 213.502C80.6351 213.825 81.2809 214.148 81.9914 214.406C81.733 214.858 81.4747 215.246 81.2163 215.698C79.9247 217.829 78.5685 220.025 77.2122 222.092C76.5018 223.125 75.8559 224.223 75.2101 225.321C74.6288 226.29 73.7247 227.581 73.7247 228.744C73.7247 229.131 74.1122 229.39 74.4351 229.261C75.5976 228.938 76.5018 227.711 77.2122 226.871C78.1164 225.838 78.9559 224.74 79.7309 223.577C81.281 221.381 82.7663 219.121 84.2518 216.861C84.6393 216.215 85.0914 215.504 85.4789 214.858C85.9955 214.794 86.4476 214.6 86.9643 214.342C99.6872 207.238 111.829 180.758 118.287 160.608C118.481 160.867 118.675 161.19 118.868 161.448C119.514 163.967 120.289 166.421 121.194 168.81C122.162 171.329 123.26 173.783 124.487 176.173C125.069 177.335 125.714 178.433 126.36 179.531C127.071 180.694 127.716 182.373 129.073 182.76C130.041 183.019 130.752 182.308 130.816 181.404C130.946 180.177 129.654 178.885 129.073 177.917C128.427 176.819 127.781 175.721 127.135 174.623C125.908 172.427 124.81 170.102 123.906 167.777C123.648 167.067 123.325 166.356 123.066 165.646C124.358 166.615 125.714 167.454 127.135 168.165C127.264 168.165 127.329 168.294 127.458 168.294C127.523 168.488 127.587 168.681 127.716 168.81C129.783 173.525 132.366 177.981 135.402 182.115C135.854 182.76 136.694 183.083 137.469 182.631C138.114 182.244 138.502 181.21 137.985 180.565C135.466 177.142 133.271 173.525 131.333 169.715C133.077 170.231 134.821 170.554 136.564 170.683C137.662 172.685 138.76 174.623 139.923 176.625C141.085 178.692 142.183 180.823 143.539 182.825C144.702 184.569 147.285 183.019 146.316 181.21C145.219 179.144 143.927 177.206 142.7 175.204C141.86 173.719 140.956 172.298 140.116 170.813C141.279 170.813 142.506 170.813 143.669 170.683C143.862 170.942 144.056 171.265 144.25 171.523C145.412 173.267 146.575 175.01 147.802 176.69C148.448 177.594 149.094 178.498 149.739 179.402C150.45 180.371 150.902 181.34 152.194 181.469C152.71 181.469 153.291 181.081 153.421 180.565C153.744 179.402 152.969 178.692 152.258 177.788C151.612 176.948 151.031 176.108 150.385 175.269C149.223 173.654 148.06 172.04 146.962 170.425C148.125 170.296 149.223 170.102 150.385 169.908C150.902 170.619 151.483 171.329 152 172.04C155.035 175.785 158.329 179.338 161.946 182.502C163.496 183.858 165.756 181.598 164.206 180.242C160.654 177.142 157.296 173.783 154.26 170.167C154.002 169.844 153.744 169.585 153.485 169.263C154.583 169.004 155.616 168.81 156.714 168.552C157.425 169.327 158.2 170.102 158.91 170.877C162.139 174.171 165.562 177.271 169.244 180.048C171.052 181.469 173.054 178.95 171.181 177.529C167.629 174.817 164.206 171.91 160.977 168.81C160.589 168.488 160.266 168.1 159.879 167.777C160.719 167.583 161.494 167.26 162.139 166.744C162.269 166.679 162.333 166.55 162.462 166.421C162.979 166.938 163.431 167.39 163.948 167.906C166.725 170.683 169.889 173.46 173.183 175.592C173.958 176.108 175.121 175.721 175.573 174.946C176.089 174.042 175.702 173.138 174.927 172.556C173.442 171.458 171.891 170.425 170.471 169.263C168.921 168.035 167.5 166.808 166.014 165.517C165.175 164.806 164.4 164.096 163.625 163.321C163.625 161.642 163.108 159.833 162.527 158.219C156.262 141.879 151.16 124.7 149.158 107.327C151.612 107.069 154.131 106.746 156.585 106.358C158.329 106.1 160.073 105.712 161.817 105.325C161.946 105.325 162.139 105.26 162.269 105.196C162.721 105.067 163.108 104.937 163.56 104.873C165.304 104.421 166.983 103.904 168.598 103.194C168.662 103.194 168.791 103.194 168.856 103.129C172.602 101.45 175.831 98.8666 177.058 95.6374C177.446 94.6687 177.446 93.5062 177.317 92.2145C176.864 88.3395 174.798 83.6895 174.669 83.1728C174.475 82.3332 177.123 76.5207 178.156 74.8415L178.285 74.9061Z" fill="#44514B"/>
</g>
<path d="M170.793 168.165C169.307 167.067 167.757 166.034 166.337 164.871C164.787 163.644 163.366 162.417 161.88 161.125C161.041 160.415 160.266 159.704 159.491 158.929C159.491 157.25 158.974 155.442 158.393 153.827C151.482 135.679 145.864 116.563 144.507 97.3169C143.474 94.2169 143.087 90.9877 143.216 87.7585C143.345 84.5294 143.862 80.6543 141.343 78.5877C139.018 76.7148 135.595 77.6189 132.947 79.0398C122.161 84.8523 116.026 96.6065 111.828 108.167C108.276 117.919 105.693 128.252 106.855 138.586C107.63 145.302 110.214 151.954 114.541 157.057C115.186 159.575 115.961 162.029 116.866 164.419C117.834 166.938 118.932 169.392 120.159 171.782C120.741 172.944 121.386 174.042 122.032 175.14C122.743 176.302 123.389 177.982 124.745 178.369C125.714 178.627 126.424 177.917 126.489 177.013C126.618 175.786 125.326 174.494 124.745 173.525C124.099 172.427 123.453 171.33 122.807 170.232C121.58 168.036 120.482 165.711 119.578 163.386C119.32 162.675 118.997 161.965 118.739 161.255C120.03 162.223 121.386 163.063 122.807 163.773C122.936 163.773 123.001 163.902 123.13 163.902C123.195 164.096 123.259 164.29 123.389 164.419C125.455 169.134 128.039 173.59 131.074 177.723C131.526 178.369 132.366 178.692 133.141 178.24C133.787 177.852 134.174 176.819 133.657 176.173C131.139 172.75 128.943 169.134 127.005 165.323C128.749 165.84 130.493 166.163 132.237 166.292C133.334 168.294 134.432 170.232 135.595 172.234C136.757 174.3 137.855 176.432 139.212 178.434C140.374 180.177 142.957 178.627 141.989 176.819C140.891 174.752 139.599 172.815 138.372 170.813C137.532 169.327 136.628 167.907 135.789 166.421C136.951 166.421 138.178 166.421 139.341 166.292C139.534 166.55 139.728 166.873 139.922 167.132C141.084 168.875 142.247 170.619 143.474 172.298C144.12 173.202 144.766 174.107 145.412 175.011C146.122 175.98 146.574 176.948 147.866 177.077C148.382 177.077 148.964 176.69 149.093 176.173C149.416 175.011 148.641 174.3 147.93 173.396C147.284 172.557 146.703 171.717 146.057 170.877C144.895 169.263 143.732 167.648 142.634 166.034C143.797 165.905 144.895 165.711 146.057 165.517C146.574 166.227 147.155 166.938 147.672 167.648C150.707 171.394 154.001 174.946 157.618 178.111C159.168 179.467 161.428 177.207 159.878 175.85C156.326 172.75 152.968 169.392 149.932 165.775C149.674 165.452 149.416 165.194 149.157 164.871C150.255 164.613 151.289 164.419 152.387 164.161C153.097 164.936 153.872 165.711 154.582 166.486C157.812 169.78 161.234 172.88 164.916 175.657C166.724 177.077 168.726 174.559 166.853 173.138C163.301 170.425 159.878 167.519 156.649 164.419C156.262 164.096 155.939 163.709 155.551 163.386C156.391 163.192 157.166 162.869 157.812 162.352C157.941 162.288 158.005 162.159 158.134 162.029C158.651 162.546 159.103 162.998 159.62 163.515C162.397 166.292 165.562 169.069 168.855 171.2C169.63 171.717 170.793 171.33 171.245 170.555C171.762 169.65 171.374 168.746 170.599 168.165H170.793Z" fill="#578024"/>
<path d="M173.894 70.5145C175.25 68.2541 175.831 65.5416 174.669 63.152C173.248 60.1812 169.373 58.1791 165.433 57.4041C161.494 56.6937 157.425 56.952 153.421 57.2103C138.437 58.1791 123.325 58.502 108.212 58.0499C100.656 57.8562 93.0353 57.4687 85.479 56.8874C81.6686 56.6291 77.9227 56.3062 74.1123 55.9187C73.531 55.9187 72.304 55.5312 71.7873 55.7249C71.206 55.9187 70.8831 56.8228 70.6248 57.2749C69.8498 58.502 69.1394 59.7937 68.6873 61.0853C68.1061 62.6999 67.8477 64.3791 68.1706 66.0583C68.6873 68.6416 70.4956 70.9666 70.8831 73.5499C71.7873 79.2979 65.7165 84.9166 68.429 90.3416C70.1727 93.8291 75.0165 95.7666 79.4727 97.1229C102.723 104.162 128.298 105.648 152.323 101.902C156.585 101.256 160.848 100.417 164.529 98.7375C168.275 97.0583 171.504 94.475 172.731 91.2458C174.152 87.5 170.471 79.427 170.342 78.7812C170.148 77.9416 172.796 72.1291 173.829 70.4499L173.894 70.5145Z" fill="#66912B"/>
<path d="M133.913 58.179C133.913 58.179 130.168 67.0915 127.649 75.4227C122.87 91.504 127.649 103.71 127.649 103.71C127.649 103.71 105.755 104.808 99.6842 101.514C93.6134 98.2207 108.532 61.6019 108.532 61.6019L133.913 58.179Z" fill="#578024"/>
<path d="M90.7723 57.2749C90.7723 57.2749 109.631 62.2479 107.112 70.5791C102.333 86.6604 107.112 98.8667 107.112 98.8667C107.112 98.8667 85.2181 99.9646 79.1472 96.6708C73.0764 93.3771 86.9618 57.0812 86.9618 57.0812L90.8369 57.2749H90.7723Z" fill="#578024"/>
<path d="M132.818 57.9208C132.172 55.402 128.426 52.8833 126.101 51.8499C117.77 48.0395 92.1946 49.977 88.4488 58.9541C85.8009 65.2187 85.155 70.902 84.1863 77.4895C82.055 92.0208 81.3446 106.617 79.9884 121.213C78.7613 134.517 64.6175 170.425 44.4029 184.569C43.9508 184.892 43.5633 185.279 43.2404 185.667C41.3675 186.765 39.4946 187.863 37.5571 188.896C35.555 189.994 33.5529 191.027 31.5508 191.996C30.5175 192.448 29.5487 192.9 28.5154 193.288C27.5466 193.675 26.3841 193.998 25.6091 194.709C25.2862 195.031 25.3508 195.613 25.7383 195.806C27.6758 196.904 30.3883 195.677 32.2612 194.902C34.4571 193.998 36.5883 192.9 38.7196 191.802C39.6237 191.35 40.4633 190.898 41.3675 190.381C41.4966 190.511 41.6258 190.575 41.755 190.704C42.207 190.963 42.6591 191.286 43.1112 191.544C42.7237 191.867 42.3362 192.19 41.9487 192.513C40.0112 194.063 38.0737 195.548 36.007 196.904C33.9404 198.196 31.7445 199.229 29.5487 200.327C28.7737 200.715 29.0966 202.071 30.0008 202.006C35.0383 201.554 39.5591 198.131 43.3695 195.161C44.2091 194.515 44.9842 193.869 45.8237 193.223C46.5342 193.675 47.2445 194.063 47.955 194.515C47.0508 195.225 46.1467 195.936 45.1779 196.581C42.9821 198.131 40.7862 199.681 38.5258 201.102C36.3299 202.523 33.8112 203.815 32.1966 205.946C32.0029 206.14 32.1966 206.463 32.5195 206.463C35.1674 206.398 37.6862 204.848 39.9466 203.556C42.3362 202.2 44.5966 200.715 46.857 199.165C48.2133 198.196 49.505 197.227 50.7966 196.259C51.7654 196.775 52.7342 197.356 53.7029 197.873C53.1863 198.261 52.6696 198.648 52.1529 199.036C49.9571 200.586 47.632 202.071 45.2425 203.363C42.9175 204.654 40.3987 205.752 38.2029 207.367C37.6862 207.754 37.7508 208.917 38.5904 208.788C41.3675 208.465 43.9508 207.238 46.405 205.946C48.9237 204.654 51.3133 203.169 53.5737 201.554C54.5425 200.844 55.5113 200.134 56.4154 199.423C57.0613 199.746 57.7071 200.134 58.3529 200.456C57.3841 201.296 56.3508 202.136 55.2529 202.846C52.9279 204.396 50.5383 205.881 48.2133 207.431C46.9862 208.206 45.8237 208.981 44.6612 209.886C43.6279 210.661 42.4008 211.371 42.0133 212.727C42.0133 212.921 42.0133 213.179 42.2716 213.179C43.6279 213.438 44.9196 212.598 46.0821 212.017C47.3737 211.371 48.6008 210.596 49.8279 209.886C52.3466 208.4 54.8654 206.915 57.255 205.3C58.7404 204.331 60.0967 203.234 61.3238 202.071C61.4529 202.071 61.5175 202.2 61.6467 202.2C62.0987 202.459 62.6154 202.717 63.0675 202.911C62.1633 203.815 61.1946 204.719 60.1613 205.623C58.1592 207.431 56.0279 209.046 53.8321 210.596C52.6696 211.371 51.5071 212.146 50.4092 212.921C49.3112 213.631 48.2133 214.342 47.4383 215.44C47.18 215.827 47.5029 216.279 47.955 216.279C49.4404 216.279 50.7321 215.698 52.0237 215.052C53.2508 214.471 54.4779 213.761 55.6404 212.986C58.03 211.436 60.2904 209.692 62.4862 207.819C63.7779 206.721 64.9404 205.559 66.1029 204.396C66.4904 204.59 66.9425 204.784 67.33 205.042C66.4904 206.075 65.5863 207.044 64.7467 208.013C63.0029 209.95 61.13 211.823 59.2571 213.696C58.2883 214.6 57.3842 215.504 56.4154 216.409C55.5113 217.248 54.3487 218.281 53.8321 219.444C53.6383 219.961 53.9612 220.477 54.5425 220.348C55.7696 220.154 56.9967 219.25 57.9654 218.475C59.0633 217.636 60.1612 216.796 61.1946 215.892C63.3258 214.084 65.3279 212.081 67.2008 210.079C68.2988 208.917 69.3321 207.754 70.3654 206.527C70.8821 206.786 71.3988 207.044 71.9155 207.302C72.1092 207.431 72.3675 207.496 72.5613 207.625C71.8509 208.594 71.1404 209.498 70.43 210.467C68.8154 212.469 67.1363 214.406 65.4571 216.344C64.6175 217.248 63.7779 218.152 63.0029 219.121C62.2279 220.025 61.0008 221.059 60.9362 222.286C60.9362 222.802 61.3883 223.254 61.905 223.254C63.1321 223.254 64.23 222.027 65.1342 221.252C66.1029 220.413 67.0071 219.444 67.8467 218.54C69.655 216.667 71.3988 214.665 73.0134 212.663C73.9175 211.565 74.7571 210.467 75.5967 209.304C76.2425 209.627 76.8884 209.95 77.5988 210.209C77.3404 210.661 77.0821 211.048 76.8238 211.5C75.5321 213.631 74.1759 215.827 72.8196 217.894C72.1092 218.927 71.4633 220.025 70.8175 221.123C70.2362 222.092 69.3321 223.384 69.3321 224.546C69.3321 224.934 69.7196 225.192 70.0425 225.063C71.205 224.74 72.1092 223.513 72.8196 222.673C73.7238 221.64 74.5634 220.542 75.3384 219.379C76.8884 217.184 78.3738 214.923 79.8592 212.663C80.2467 212.017 80.6988 211.306 81.0863 210.661C81.603 210.596 82.055 210.402 82.5717 210.144C100.397 200.134 117.124 152.083 118.609 136.713C120.03 121.277 120.87 105.777 121.516 90.2771C121.645 86.5958 121.774 82.9146 121.838 79.2333C121.903 76.327 122.161 73.3562 123.647 70.8375C125.907 67.1562 128.813 63.9916 131.655 60.9562C131.849 60.6979 132.107 60.5041 132.301 60.2458C132.882 59.6645 133.076 58.7603 132.688 58.0499L132.818 57.9208Z" fill="#66912B"/>
<path d="M174.669 63.1519C175.831 65.5415 175.186 68.254 173.894 70.5144C172.925 72.1936 170.213 78.0061 170.406 78.8457C170.6 79.4915 174.217 87.5644 172.796 91.3103C171.569 94.5395 168.34 97.1874 164.594 98.802C162.398 99.7707 160.008 100.481 157.554 101.062C188.361 77.554 141.15 85.8853 150.192 83.1728C174.023 76.1332 162.592 57.0165 162.592 57.0165C163.561 57.0811 164.529 57.2102 165.498 57.404C169.438 58.1144 173.313 60.1165 174.733 63.1519H174.669Z" fill="#578024"/>
</svg>
