<svg width="240" height="240" viewBox="0 0 240 240" fill="none" xmlns="http://www.w3.org/2000/svg">
<circle cx="120" cy="120" r="120" fill="white"/>
<g style="mix-blend-mode:multiply" opacity="0.33">
<path d="M183.847 129.258L184.864 94.2158L177.064 73.4731L174.408 73.134L173.616 70.421L166.043 67.8211L137.161 66.9733L137.953 60.2475L134.788 54.0303H130.096L109.919 51.8826L99.0106 58.4954L99.9714 67.2559L95.902 67.7646L71.3724 70.3645L70.5812 73.0774L67.9247 73.4166L60.125 94.1593L61.1424 129.201L60.125 167.352L61.4815 169.952L65.3248 177.526L70.5246 187.699L119.64 190.186L174.408 187.699L181.473 173.852L183.451 169.952L184.807 167.352V163.848H184.694L183.734 129.201L183.847 129.258ZM133.035 63.8647L132.696 66.4646L119.753 64.7691L104.832 66.7472V62.1126L111.332 57.7606L128.74 58.9475L131.622 58.7214L133.035 63.8647Z" fill="#44514B"/>
</g>
<path d="M96.2987 69.2906L94.8291 55.6128L105.737 49L125.915 51.0912H130.606L133.715 57.3649L132.302 69.2906H127.611L128.741 60.9256L127.328 55.7824L124.445 55.9519L107.037 54.8215L100.538 59.1735V63.8082L101.951 69.2906H96.2987Z" fill="#414042"/>
<g style="mix-blend-mode:multiply">
<path d="M106.019 51.3737L98.6152 56.9126L99.4631 63.8645L101.724 68.3296L100.537 63.808V59.1734L107.037 54.8214L124.445 55.9517L127.327 55.7822L122.24 55.0474L106.019 51.3737Z" fill="#231F20"/>
</g>
<path d="M180.569 91.2766L172.826 70.5339L115.459 65.8993L63.7432 70.5339L56 91.2766L57.0173 126.319L56 164.47L66.3431 184.76L115.459 187.247L170.226 184.76L180.569 164.47L179.552 126.319L180.569 91.2766Z" fill="#496E1C"/>
<path d="M169.548 163.113H115.459H67.0213L56.0565 160.965L56 164.47L57.2999 167.07L68.1517 175.321L115.459 178.486L168.418 175.321L179.269 167.07L180.569 164.47V160.909L169.548 163.113Z" fill="#578024"/>
<g style="mix-blend-mode:multiply">
<path d="M171.64 112.754L136.711 114.054L125.576 112.528H115.459H105.342L94.2078 114.054L64.9307 112.754L94.3209 115.354L106.416 114.45L119.529 115.919L125.52 115.58L138.18 117.106L172.318 114.506L176.67 92.5201L171.64 112.754Z" fill="#D2D9E0"/>
</g>
<g style="mix-blend-mode:multiply">
<path d="M61.1992 174.643L67.1338 182.386L116.023 184.986L169.378 179.108L177.234 170.969L170.226 184.76L115.458 187.247L66.3425 184.76L61.1992 174.643Z" fill="#D2D9E0"/>
</g>
<path d="M169.378 67.4819L139.196 64.9385L115.458 61.83L74.764 64.9385L67.1904 67.4819L59.8994 92.5201L64.9297 112.754L94.2068 114.054L105.341 112.528H115.458H125.575L136.71 114.054L171.639 112.754L176.669 92.5201L169.378 67.4819Z" fill="#578024"/>
<path d="M59.8994 92.5201L110.654 95.4026L131.849 92.5201L169.378 93.9896L176.669 92.5201L174.013 103.315L165.93 104.446L128.684 99.6981L111.332 100.15L62.8385 94.1592L60.4081 94.6114L59.8994 92.5201Z" fill="#66912B"/>
<path d="M63.46 106.82L64.9295 112.754L94.2067 114.054L105.341 112.528H115.458H124.84L105.171 111.567L94.0371 111.907L63.46 106.82Z" fill="#92C83E"/>
</svg>
