<svg width="240" height="240" viewBox="0 0 240 240" fill="none" xmlns="http://www.w3.org/2000/svg">
<circle cx="120" cy="120" r="120" fill="white"/>
<g style="mix-blend-mode:multiply" opacity="0.33">
<g style="mix-blend-mode:multiply">
<path d="M167.031 192.716C167.031 196.257 164.119 199.09 160.499 199.09H81.1007C77.4809 199.09 74.5693 196.257 74.5693 192.716L77.0874 43.7549C77.0874 40.2138 79.9989 37.381 83.6187 37.381H163.017C166.637 37.381 169.549 40.2138 169.549 43.7549L167.031 192.716Z" fill="#44514B"/>
</g>
<g style="mix-blend-mode:multiply">
<path d="M115.017 30.4562C115.191 30.4562 115.332 30.3153 115.332 30.1415C115.332 29.9676 115.191 29.8267 115.017 29.8267C114.843 29.8267 114.702 29.9676 114.702 30.1415C114.702 30.3153 114.843 30.4562 115.017 30.4562Z" fill="#44514B"/>
<path opacity="0.5" d="M115.017 30.3775C115.017 30.3775 114.781 30.2988 114.781 30.1415C114.781 29.9841 114.86 29.9054 115.017 29.9054C115.175 29.9054 115.253 29.9841 115.253 30.1415C115.253 30.2988 115.175 30.3775 115.017 30.3775Z" fill="#44514B"/>
</g>
<g style="mix-blend-mode:multiply">
<path d="M115.017 31.9514C115.017 31.9514 114.702 31.794 114.702 31.6366C114.702 31.4792 114.86 31.3218 115.017 31.3218C115.174 31.3218 115.332 31.4792 115.332 31.6366C115.332 31.794 115.174 31.9514 115.017 31.9514Z" fill="#44514B"/>
<path opacity="0.5" d="M115.017 31.8727C115.017 31.8727 114.781 31.794 114.781 31.6366C114.781 31.4792 114.86 31.4005 115.017 31.4005C115.175 31.4005 115.253 31.4792 115.253 31.6366C115.253 31.794 115.175 31.8727 115.017 31.8727Z" fill="#44514B"/>
</g>
<g style="mix-blend-mode:multiply">
<path d="M115.017 31.2432C115.191 31.2432 115.332 31.1022 115.332 30.9284C115.332 30.7546 115.191 30.6136 115.017 30.6136C114.843 30.6136 114.702 30.7546 114.702 30.9284C114.702 31.1022 114.843 31.2432 115.017 31.2432Z" fill="#44514B"/>
<path opacity="0.5" d="M115.017 31.1645C115.017 31.1645 114.781 31.0858 114.781 30.9284C114.781 30.771 114.86 30.6923 115.017 30.6923C115.175 30.6923 115.253 30.771 115.253 30.9284C115.253 31.0858 115.175 31.1645 115.017 31.1645Z" fill="#44514B"/>
</g>
<g style="mix-blend-mode:multiply">
<path d="M115.804 30.4562C115.978 30.4562 116.119 30.3153 116.119 30.1415C116.119 29.9676 115.978 29.8267 115.804 29.8267C115.63 29.8267 115.489 29.9676 115.489 30.1415C115.489 30.3153 115.63 30.4562 115.804 30.4562Z" fill="#44514B"/>
<path opacity="0.5" d="M115.804 30.3775C115.804 30.3775 115.568 30.2988 115.568 30.1415C115.568 29.9841 115.647 29.9054 115.804 29.9054C115.962 29.9054 116.041 29.9841 116.041 30.1415C116.041 30.2988 115.962 30.3775 115.804 30.3775Z" fill="#44514B"/>
</g>
<g style="mix-blend-mode:multiply">
<path d="M115.804 31.9514C115.804 31.9514 115.489 31.794 115.489 31.6366C115.489 31.4792 115.647 31.3218 115.804 31.3218C115.961 31.3218 116.119 31.4792 116.119 31.6366C116.119 31.794 115.961 31.9514 115.804 31.9514Z" fill="#44514B"/>
<path opacity="0.5" d="M115.804 31.8727C115.804 31.8727 115.568 31.794 115.568 31.6366C115.568 31.4792 115.647 31.4005 115.804 31.4005C115.962 31.4005 116.041 31.4792 116.041 31.6366C116.041 31.794 115.962 31.8727 115.804 31.8727Z" fill="#44514B"/>
</g>
<g style="mix-blend-mode:multiply">
<path d="M115.804 31.2432C115.978 31.2432 116.119 31.1022 116.119 30.9284C116.119 30.7546 115.978 30.6136 115.804 30.6136C115.63 30.6136 115.489 30.7546 115.489 30.9284C115.489 31.1022 115.63 31.2432 115.804 31.2432Z" fill="#44514B"/>
<path opacity="0.5" d="M115.804 31.1645C115.804 31.1645 115.568 31.0858 115.568 30.9284C115.568 30.771 115.647 30.6923 115.804 30.6923C115.962 30.6923 116.041 30.771 116.041 30.9284C116.041 31.0858 115.962 31.1645 115.804 31.1645Z" fill="#44514B"/>
</g>
<g style="mix-blend-mode:multiply">
<path d="M116.593 30.4562C116.767 30.4562 116.908 30.3153 116.908 30.1415C116.908 29.9676 116.767 29.8267 116.593 29.8267C116.419 29.8267 116.278 29.9676 116.278 30.1415C116.278 30.3153 116.419 30.4562 116.593 30.4562Z" fill="#44514B"/>
<path opacity="0.5" d="M116.593 30.3775C116.593 30.3775 116.357 30.2988 116.357 30.1415C116.357 29.9841 116.436 29.9054 116.593 29.9054C116.751 29.9054 116.83 29.9841 116.83 30.1415C116.83 30.2988 116.751 30.3775 116.593 30.3775Z" fill="#44514B"/>
</g>
<g style="mix-blend-mode:multiply">
<path d="M116.593 31.9514C116.593 31.9514 116.278 31.794 116.278 31.6366C116.278 31.4792 116.436 31.3218 116.593 31.3218C116.75 31.3218 116.908 31.4792 116.908 31.6366C116.908 31.794 116.75 31.9514 116.593 31.9514Z" fill="#44514B"/>
<path opacity="0.5" d="M116.593 31.8727C116.593 31.8727 116.357 31.794 116.357 31.6366C116.357 31.4792 116.436 31.4005 116.593 31.4005C116.751 31.4005 116.83 31.4792 116.83 31.6366C116.83 31.794 116.751 31.8727 116.593 31.8727Z" fill="#44514B"/>
</g>
<g style="mix-blend-mode:multiply">
<path d="M116.593 31.2432C116.767 31.2432 116.908 31.1022 116.908 30.9284C116.908 30.7546 116.767 30.6136 116.593 30.6136C116.419 30.6136 116.278 30.7546 116.278 30.9284C116.278 31.1022 116.419 31.2432 116.593 31.2432Z" fill="#44514B"/>
<path opacity="0.5" d="M116.593 31.1645C116.593 31.1645 116.357 31.0858 116.357 30.9284C116.357 30.771 116.436 30.6923 116.593 30.6923C116.751 30.6923 116.83 30.771 116.83 30.9284C116.83 31.0858 116.751 31.1645 116.593 31.1645Z" fill="#44514B"/>
</g>
<g style="mix-blend-mode:multiply">
<path d="M117.377 30.4562C117.551 30.4562 117.692 30.3153 117.692 30.1415C117.692 29.9676 117.551 29.8267 117.377 29.8267C117.203 29.8267 117.062 29.9676 117.062 30.1415C117.062 30.3153 117.203 30.4562 117.377 30.4562Z" fill="#44514B"/>
<path opacity="0.5" d="M117.375 30.3777C117.375 30.3777 117.139 30.299 117.139 30.1416C117.139 29.9842 117.217 29.9055 117.375 29.9055C117.532 29.9055 117.611 29.9842 117.611 30.1416C117.611 30.299 117.532 30.3777 117.375 30.3777Z" fill="#44514B"/>
</g>
<g style="mix-blend-mode:multiply">
<path d="M117.377 31.9514C117.377 31.9514 117.062 31.794 117.062 31.6366C117.062 31.4792 117.22 31.3218 117.377 31.3218C117.535 31.3218 117.692 31.4792 117.692 31.6366C117.692 31.794 117.535 31.9514 117.377 31.9514Z" fill="#44514B"/>
<path opacity="0.5" d="M117.375 31.8728C117.375 31.8728 117.139 31.7941 117.139 31.6367C117.139 31.4793 117.217 31.4006 117.375 31.4006C117.532 31.4006 117.611 31.4793 117.611 31.6367C117.611 31.7941 117.532 31.8728 117.375 31.8728Z" fill="#44514B"/>
</g>
<g style="mix-blend-mode:multiply">
<path d="M117.377 31.2432C117.551 31.2432 117.692 31.1022 117.692 30.9284C117.692 30.7546 117.551 30.6136 117.377 30.6136C117.203 30.6136 117.062 30.7546 117.062 30.9284C117.062 31.1022 117.203 31.2432 117.377 31.2432Z" fill="#44514B"/>
<path opacity="0.5" d="M117.375 31.1643C117.375 31.1643 117.139 31.0857 117.139 30.9283C117.139 30.7709 117.217 30.6922 117.375 30.6922C117.532 30.6922 117.611 30.7709 117.611 30.9283C117.611 31.0857 117.532 31.1643 117.375 31.1643Z" fill="#44514B"/>
</g>
<g style="mix-blend-mode:multiply">
<path d="M118.164 30.4562C118.338 30.4562 118.479 30.3153 118.479 30.1415C118.479 29.9676 118.338 29.8267 118.164 29.8267C117.99 29.8267 117.85 29.9676 117.85 30.1415C117.85 30.3153 117.99 30.4562 118.164 30.4562Z" fill="#44514B"/>
<path opacity="0.5" d="M118.165 30.3775C118.165 30.3775 117.929 30.2988 117.929 30.1415C117.929 29.9841 118.007 29.9054 118.165 29.9054C118.322 29.9054 118.401 29.9841 118.401 30.1415C118.401 30.2988 118.322 30.3775 118.165 30.3775Z" fill="#44514B"/>
</g>
<g style="mix-blend-mode:multiply">
<path d="M118.164 31.9514C118.164 31.9514 117.85 31.794 117.85 31.6366C117.85 31.4792 118.007 31.3218 118.164 31.3218C118.322 31.3218 118.479 31.4792 118.479 31.6366C118.479 31.794 118.322 31.9514 118.164 31.9514Z" fill="#44514B"/>
<path opacity="0.5" d="M118.165 31.8727C118.165 31.8727 117.929 31.794 117.929 31.6366C117.929 31.4792 118.007 31.4005 118.165 31.4005C118.322 31.4005 118.401 31.4792 118.401 31.6366C118.401 31.794 118.322 31.8727 118.165 31.8727Z" fill="#44514B"/>
</g>
<g style="mix-blend-mode:multiply">
<path d="M118.164 31.2432C118.338 31.2432 118.479 31.1022 118.479 30.9284C118.479 30.7546 118.338 30.6136 118.164 30.6136C117.99 30.6136 117.85 30.7546 117.85 30.9284C117.85 31.1022 117.99 31.2432 118.164 31.2432Z" fill="#44514B"/>
<path opacity="0.5" d="M118.165 31.1645C118.165 31.1645 117.929 31.0858 117.929 30.9284C117.929 30.771 118.007 30.6923 118.165 30.6923C118.322 30.6923 118.401 30.771 118.401 30.9284C118.401 31.0858 118.322 31.1645 118.165 31.1645Z" fill="#44514B"/>
</g>
<g style="mix-blend-mode:multiply">
<path d="M118.951 30.4562C119.124 30.4562 119.265 30.3153 119.265 30.1414C119.265 29.9676 119.124 29.8267 118.951 29.8267C118.777 29.8267 118.636 29.9676 118.636 30.1414C118.636 30.3153 118.777 30.4562 118.951 30.4562Z" fill="#44514B"/>
<path opacity="0.5" d="M118.951 30.3775C118.951 30.3775 118.715 30.2988 118.715 30.1415C118.715 29.9841 118.794 29.9054 118.951 29.9054C119.108 29.9054 119.187 29.9841 119.187 30.1415C119.187 30.2988 119.108 30.3775 118.951 30.3775Z" fill="#44514B"/>
</g>
<g style="mix-blend-mode:multiply">
<path d="M118.951 31.9513C118.951 31.9513 118.636 31.7939 118.636 31.6365C118.636 31.4792 118.793 31.3218 118.951 31.3218C119.108 31.3218 119.265 31.4792 119.265 31.6365C119.265 31.7939 119.108 31.9513 118.951 31.9513Z" fill="#44514B"/>
<path opacity="0.5" d="M118.951 31.8726C118.951 31.8726 118.715 31.7939 118.715 31.6365C118.715 31.4791 118.794 31.4005 118.951 31.4005C119.108 31.4005 119.187 31.4791 119.187 31.6365C119.187 31.7939 119.108 31.8726 118.951 31.8726Z" fill="#44514B"/>
</g>
<g style="mix-blend-mode:multiply">
<path d="M118.951 31.2432C119.124 31.2432 119.265 31.1022 119.265 30.9284C119.265 30.7546 119.124 30.6136 118.951 30.6136C118.777 30.6136 118.636 30.7546 118.636 30.9284C118.636 31.1022 118.777 31.2432 118.951 31.2432Z" fill="#44514B"/>
<path opacity="0.5" d="M118.951 31.1645C118.951 31.1645 118.715 31.0858 118.715 30.9284C118.715 30.771 118.794 30.6923 118.951 30.6923C119.108 30.6923 119.187 30.771 119.187 30.9284C119.187 31.0858 119.108 31.1645 118.951 31.1645Z" fill="#44514B"/>
</g>
<g style="mix-blend-mode:multiply">
<path d="M119.739 30.4562C119.739 30.4562 119.424 30.2989 119.424 30.1415C119.424 29.9841 119.581 29.8267 119.739 29.8267C119.896 29.8267 120.053 29.9841 120.053 30.1415C120.053 30.2989 119.896 30.4562 119.739 30.4562Z" fill="#44514B"/>
<path opacity="0.5" d="M119.739 30.3775C119.739 30.3775 119.503 30.2988 119.503 30.1415C119.503 29.9841 119.582 29.9054 119.739 29.9054C119.896 29.9054 119.975 29.9841 119.975 30.1415C119.975 30.2988 119.896 30.3775 119.739 30.3775Z" fill="#44514B"/>
</g>
<g style="mix-blend-mode:multiply">
<path d="M119.739 31.9514C119.739 31.9514 119.424 31.794 119.424 31.6366C119.424 31.4792 119.581 31.3218 119.739 31.3218C119.896 31.3218 120.053 31.4792 120.053 31.6366C120.053 31.794 119.896 31.9514 119.739 31.9514Z" fill="#44514B"/>
<path opacity="0.5" d="M119.739 31.8727C119.739 31.8727 119.503 31.794 119.503 31.6366C119.503 31.4792 119.582 31.4005 119.739 31.4005C119.896 31.4005 119.975 31.4792 119.975 31.6366C119.975 31.794 119.896 31.8727 119.739 31.8727Z" fill="#44514B"/>
</g>
<g style="mix-blend-mode:multiply">
<path d="M119.739 31.1644C119.739 31.1644 119.424 31.0071 119.424 30.8497C119.424 30.6923 119.581 30.5349 119.739 30.5349C119.896 30.5349 120.053 30.6923 120.053 30.8497C120.053 31.0071 119.896 31.1644 119.739 31.1644Z" fill="#44514B"/>
<path opacity="0.5" d="M119.739 31.1645C119.739 31.1645 119.503 31.0858 119.503 30.9284C119.503 30.771 119.582 30.6923 119.739 30.6923C119.896 30.6923 119.975 30.771 119.975 30.9284C119.975 31.0858 119.896 31.1645 119.739 31.1645Z" fill="#44514B"/>
</g>
<g style="mix-blend-mode:multiply">
<path d="M120.527 30.4562C120.527 30.4562 120.212 30.2988 120.212 30.1414C120.212 29.984 120.369 29.8267 120.527 29.8267C120.684 29.8267 120.841 29.984 120.841 30.1414C120.841 30.2988 120.684 30.4562 120.527 30.4562Z" fill="#44514B"/>
<path opacity="0.5" d="M120.527 30.3775C120.527 30.3775 120.291 30.2988 120.291 30.1415C120.291 29.9841 120.37 29.9054 120.527 29.9054C120.684 29.9054 120.763 29.9841 120.763 30.1415C120.763 30.2988 120.684 30.3775 120.527 30.3775Z" fill="#44514B"/>
</g>
<g style="mix-blend-mode:multiply">
<path d="M120.527 31.9513C120.527 31.9513 120.212 31.7939 120.212 31.6365C120.212 31.4792 120.369 31.3218 120.527 31.3218C120.684 31.3218 120.841 31.4792 120.841 31.6365C120.841 31.7939 120.684 31.9513 120.527 31.9513Z" fill="#44514B"/>
<path opacity="0.5" d="M120.527 31.8726C120.527 31.8726 120.291 31.7939 120.291 31.6365C120.291 31.4791 120.37 31.4005 120.527 31.4005C120.684 31.4005 120.763 31.4791 120.763 31.6365C120.763 31.7939 120.684 31.8726 120.527 31.8726Z" fill="#44514B"/>
</g>
<g style="mix-blend-mode:multiply">
<path d="M120.527 31.1644C120.527 31.1644 120.212 31.0071 120.212 30.8497C120.212 30.6923 120.369 30.5349 120.527 30.5349C120.684 30.5349 120.841 30.6923 120.841 30.8497C120.841 31.0071 120.684 31.1644 120.527 31.1644Z" fill="#44514B"/>
<path opacity="0.5" d="M120.527 31.1645C120.527 31.1645 120.291 31.0858 120.291 30.9284C120.291 30.771 120.37 30.6923 120.527 30.6923C120.684 30.6923 120.763 30.771 120.763 30.9284C120.763 31.0858 120.684 31.1645 120.527 31.1645Z" fill="#44514B"/>
</g>
<g style="mix-blend-mode:multiply">
<path d="M121.312 30.4562C121.312 30.4562 120.997 30.2989 120.997 30.1415C120.997 29.9841 121.155 29.8267 121.312 29.8267C121.469 29.8267 121.627 29.9841 121.627 30.1415C121.627 30.2989 121.469 30.4562 121.312 30.4562Z" fill="#44514B"/>
<path opacity="0.5" d="M121.309 30.3777C121.309 30.3777 121.073 30.299 121.073 30.1416C121.073 29.9842 121.152 29.9055 121.309 29.9055C121.467 29.9055 121.545 29.9842 121.545 30.1416C121.545 30.299 121.467 30.3777 121.309 30.3777Z" fill="#44514B"/>
</g>
<g style="mix-blend-mode:multiply">
<path d="M121.312 31.9514C121.312 31.9514 120.997 31.794 120.997 31.6366C120.997 31.4792 121.155 31.3218 121.312 31.3218C121.469 31.3218 121.627 31.4792 121.627 31.6366C121.627 31.794 121.469 31.9514 121.312 31.9514Z" fill="#44514B"/>
<path opacity="0.5" d="M121.309 31.8728C121.309 31.8728 121.073 31.7941 121.073 31.6367C121.073 31.4793 121.152 31.4006 121.309 31.4006C121.467 31.4006 121.545 31.4793 121.545 31.6367C121.545 31.7941 121.467 31.8728 121.309 31.8728Z" fill="#44514B"/>
</g>
<g style="mix-blend-mode:multiply">
<path d="M121.312 31.1644C121.312 31.1644 120.997 31.0071 120.997 30.8497C120.997 30.6923 121.155 30.5349 121.312 30.5349C121.469 30.5349 121.627 30.6923 121.627 30.8497C121.627 31.0071 121.469 31.1644 121.312 31.1644Z" fill="#44514B"/>
<path opacity="0.5" d="M121.309 31.1648C121.309 31.1648 121.073 31.0861 121.073 30.9287C121.073 30.7713 121.152 30.6926 121.309 30.6926C121.467 30.6926 121.545 30.7713 121.545 30.9287C121.545 31.0861 121.467 31.1648 121.309 31.1648Z" fill="#44514B"/>
</g>
<g style="mix-blend-mode:multiply">
<path d="M122.099 30.4562C122.273 30.4562 122.414 30.3153 122.414 30.1415C122.414 29.9676 122.273 29.8267 122.099 29.8267C121.925 29.8267 121.784 29.9676 121.784 30.1415C121.784 30.3153 121.925 30.4562 122.099 30.4562Z" fill="#44514B"/>
<path opacity="0.5" d="M122.099 30.3775C122.099 30.3775 121.863 30.2988 121.863 30.1415C121.863 29.9841 121.942 29.9054 122.099 29.9054C122.257 29.9054 122.335 29.9841 122.335 30.1415C122.335 30.2988 122.257 30.3775 122.099 30.3775Z" fill="#44514B"/>
</g>
<g style="mix-blend-mode:multiply">
<path d="M122.099 31.9514C122.099 31.9514 121.784 31.794 121.784 31.6366C121.784 31.4792 121.942 31.3218 122.099 31.3218C122.256 31.3218 122.414 31.4792 122.414 31.6366C122.414 31.794 122.256 31.9514 122.099 31.9514Z" fill="#44514B"/>
<path opacity="0.5" d="M122.099 31.8727C122.099 31.8727 121.863 31.794 121.863 31.6366C121.863 31.4792 121.942 31.4005 122.099 31.4005C122.257 31.4005 122.335 31.4792 122.335 31.6366C122.335 31.794 122.257 31.8727 122.099 31.8727Z" fill="#44514B"/>
</g>
<g style="mix-blend-mode:multiply">
<path d="M122.099 31.2432C122.273 31.2432 122.414 31.1022 122.414 30.9284C122.414 30.7546 122.273 30.6136 122.099 30.6136C121.925 30.6136 121.784 30.7546 121.784 30.9284C121.784 31.1022 121.925 31.2432 122.099 31.2432Z" fill="#44514B"/>
<path opacity="0.5" d="M122.099 31.1645C122.099 31.1645 121.863 31.0858 121.863 30.9284C121.863 30.771 121.942 30.6923 122.099 30.6923C122.257 30.6923 122.335 30.771 122.335 30.9284C122.335 31.0858 122.257 31.1645 122.099 31.1645Z" fill="#44514B"/>
</g>
<g style="mix-blend-mode:multiply">
<path d="M122.886 30.4562C123.06 30.4562 123.201 30.3153 123.201 30.1415C123.201 29.9676 123.06 29.8267 122.886 29.8267C122.712 29.8267 122.571 29.9676 122.571 30.1415C122.571 30.3153 122.712 30.4562 122.886 30.4562Z" fill="#44514B"/>
<path opacity="0.5" d="M122.886 30.3775C122.886 30.3775 122.65 30.2988 122.65 30.1415C122.65 29.9841 122.729 29.9054 122.886 29.9054C123.044 29.9054 123.123 29.9841 123.123 30.1415C123.123 30.2988 123.044 30.3775 122.886 30.3775Z" fill="#44514B"/>
</g>
<g style="mix-blend-mode:multiply">
<path d="M122.886 31.9514C122.886 31.9514 122.571 31.794 122.571 31.6366C122.571 31.4792 122.729 31.3218 122.886 31.3218C123.043 31.3218 123.201 31.4792 123.201 31.6366C123.201 31.794 123.043 31.9514 122.886 31.9514Z" fill="#44514B"/>
<path opacity="0.5" d="M122.886 31.8727C122.886 31.8727 122.65 31.794 122.65 31.6366C122.65 31.4792 122.729 31.4005 122.886 31.4005C123.044 31.4005 123.123 31.4792 123.123 31.6366C123.123 31.794 123.044 31.8727 122.886 31.8727Z" fill="#44514B"/>
</g>
<g style="mix-blend-mode:multiply">
<path d="M122.886 31.2432C123.06 31.2432 123.201 31.1022 123.201 30.9284C123.201 30.7546 123.06 30.6136 122.886 30.6136C122.712 30.6136 122.571 30.7546 122.571 30.9284C122.571 31.1022 122.712 31.2432 122.886 31.2432Z" fill="#44514B"/>
<path opacity="0.5" d="M122.886 31.1645C122.886 31.1645 122.65 31.0858 122.65 30.9284C122.65 30.771 122.729 30.6923 122.886 30.6923C123.044 30.6923 123.123 30.771 123.123 30.9284C123.123 31.0858 123.044 31.1645 122.886 31.1645Z" fill="#44514B"/>
</g>
<g style="mix-blend-mode:multiply">
<path d="M123.673 30.4562C123.847 30.4562 123.988 30.3153 123.988 30.1415C123.988 29.9676 123.847 29.8267 123.673 29.8267C123.499 29.8267 123.358 29.9676 123.358 30.1415C123.358 30.3153 123.499 30.4562 123.673 30.4562Z" fill="#44514B"/>
<path opacity="0.5" d="M123.674 30.3775C123.674 30.3775 123.438 30.2988 123.438 30.1415C123.438 29.9841 123.516 29.9054 123.674 29.9054C123.831 29.9054 123.91 29.9841 123.91 30.1415C123.91 30.2988 123.831 30.3775 123.674 30.3775Z" fill="#44514B"/>
</g>
<g style="mix-blend-mode:multiply">
<path d="M123.673 31.9514C123.673 31.9514 123.358 31.794 123.358 31.6366C123.358 31.4792 123.516 31.3218 123.673 31.3218C123.83 31.3218 123.988 31.4792 123.988 31.6366C123.988 31.794 123.83 31.9514 123.673 31.9514Z" fill="#44514B"/>
<path opacity="0.5" d="M123.674 31.8727C123.674 31.8727 123.438 31.794 123.438 31.6366C123.438 31.4792 123.516 31.4005 123.674 31.4005C123.831 31.4005 123.91 31.4792 123.91 31.6366C123.91 31.794 123.831 31.8727 123.674 31.8727Z" fill="#44514B"/>
</g>
<g style="mix-blend-mode:multiply">
<path d="M123.673 31.2432C123.847 31.2432 123.988 31.1022 123.988 30.9284C123.988 30.7546 123.847 30.6136 123.673 30.6136C123.499 30.6136 123.358 30.7546 123.358 30.9284C123.358 31.1022 123.499 31.2432 123.673 31.2432Z" fill="#44514B"/>
<path opacity="0.5" d="M123.674 31.1645C123.674 31.1645 123.438 31.0858 123.438 30.9284C123.438 30.771 123.516 30.6923 123.674 30.6923C123.831 30.6923 123.91 30.771 123.91 30.9284C123.91 31.0858 123.831 31.1645 123.674 31.1645Z" fill="#44514B"/>
</g>
<g style="mix-blend-mode:multiply">
<path d="M124.461 30.4562C124.635 30.4562 124.776 30.3153 124.776 30.1414C124.776 29.9676 124.635 29.8267 124.461 29.8267C124.287 29.8267 124.146 29.9676 124.146 30.1414C124.146 30.3153 124.287 30.4562 124.461 30.4562Z" fill="#44514B"/>
<path opacity="0.5" d="M124.461 30.3775C124.461 30.3775 124.225 30.2988 124.225 30.1414C124.225 29.984 124.303 29.9053 124.461 29.9053C124.618 29.9053 124.697 29.984 124.697 30.1414C124.697 30.2988 124.618 30.3775 124.461 30.3775Z" fill="#44514B"/>
</g>
<g style="mix-blend-mode:multiply">
<path d="M124.461 31.9514C124.461 31.9514 124.146 31.794 124.146 31.6366C124.146 31.4792 124.304 31.3218 124.461 31.3218C124.619 31.3218 124.776 31.4792 124.776 31.6366C124.776 31.794 124.619 31.9514 124.461 31.9514Z" fill="#44514B"/>
<path opacity="0.5" d="M124.461 31.8727C124.461 31.8727 124.225 31.794 124.225 31.6366C124.225 31.4792 124.303 31.4005 124.461 31.4005C124.618 31.4005 124.697 31.4792 124.697 31.6366C124.697 31.794 124.618 31.8727 124.461 31.8727Z" fill="#44514B"/>
</g>
<g style="mix-blend-mode:multiply">
<path d="M124.461 31.2431C124.635 31.2431 124.776 31.1022 124.776 30.9283C124.776 30.7545 124.635 30.6136 124.461 30.6136C124.287 30.6136 124.146 30.7545 124.146 30.9283C124.146 31.1022 124.287 31.2431 124.461 31.2431Z" fill="#44514B"/>
<path opacity="0.5" d="M124.461 31.1644C124.461 31.1644 124.225 31.0857 124.225 30.9283C124.225 30.771 124.303 30.6923 124.461 30.6923C124.618 30.6923 124.697 30.771 124.697 30.9283C124.697 31.0857 124.618 31.1644 124.461 31.1644Z" fill="#44514B"/>
</g>
<g style="mix-blend-mode:multiply">
<path d="M125.246 30.4562C125.42 30.4562 125.561 30.3153 125.561 30.1415C125.561 29.9676 125.42 29.8267 125.246 29.8267C125.073 29.8267 124.932 29.9676 124.932 30.1415C124.932 30.3153 125.073 30.4562 125.246 30.4562Z" fill="#44514B"/>
<path opacity="0.5" d="M125.244 30.3777C125.244 30.3777 125.008 30.299 125.008 30.1416C125.008 29.9842 125.086 29.9055 125.244 29.9055C125.401 29.9055 125.48 29.9842 125.48 30.1416C125.48 30.299 125.401 30.3777 125.244 30.3777Z" fill="#44514B"/>
</g>
<g style="mix-blend-mode:multiply">
<path d="M125.246 31.9514C125.246 31.9514 124.932 31.794 124.932 31.6366C124.932 31.4792 125.089 31.3218 125.246 31.3218C125.404 31.3218 125.561 31.4792 125.561 31.6366C125.561 31.794 125.404 31.9514 125.246 31.9514Z" fill="#44514B"/>
<path opacity="0.5" d="M125.244 31.8728C125.244 31.8728 125.008 31.7941 125.008 31.6367C125.008 31.4793 125.086 31.4006 125.244 31.4006C125.401 31.4006 125.48 31.4793 125.48 31.6367C125.48 31.7941 125.401 31.8728 125.244 31.8728Z" fill="#44514B"/>
</g>
<g style="mix-blend-mode:multiply">
<path d="M125.246 31.2432C125.42 31.2432 125.561 31.1022 125.561 30.9284C125.561 30.7546 125.42 30.6136 125.246 30.6136C125.073 30.6136 124.932 30.7546 124.932 30.9284C124.932 31.1022 125.073 31.2432 125.246 31.2432Z" fill="#44514B"/>
<path opacity="0.5" d="M125.244 31.1643C125.244 31.1643 125.008 31.0857 125.008 30.9283C125.008 30.7709 125.086 30.6922 125.244 30.6922C125.401 30.6922 125.48 30.7709 125.48 30.9283C125.48 31.0857 125.401 31.1643 125.244 31.1643Z" fill="#44514B"/>
</g>
<g style="mix-blend-mode:multiply">
<path d="M126.033 30.4562C126.207 30.4562 126.348 30.3153 126.348 30.1415C126.348 29.9676 126.207 29.8267 126.033 29.8267C125.86 29.8267 125.719 29.9676 125.719 30.1415C125.719 30.3153 125.86 30.4562 126.033 30.4562Z" fill="#44514B"/>
<path opacity="0.5" d="M126.034 30.3775C126.034 30.3775 125.798 30.2988 125.798 30.1415C125.798 29.9841 125.877 29.9054 126.034 29.9054C126.191 29.9054 126.27 29.9841 126.27 30.1415C126.27 30.2988 126.191 30.3775 126.034 30.3775Z" fill="#44514B"/>
</g>
<g style="mix-blend-mode:multiply">
<path d="M126.033 31.9514C126.033 31.9514 125.719 31.794 125.719 31.6366C125.719 31.4792 125.876 31.3218 126.033 31.3218C126.191 31.3218 126.348 31.4792 126.348 31.6366C126.348 31.794 126.191 31.9514 126.033 31.9514Z" fill="#44514B"/>
<path opacity="0.5" d="M126.034 31.8727C126.034 31.8727 125.798 31.794 125.798 31.6366C125.798 31.4792 125.877 31.4005 126.034 31.4005C126.191 31.4005 126.27 31.4792 126.27 31.6366C126.27 31.794 126.191 31.8727 126.034 31.8727Z" fill="#44514B"/>
</g>
<g style="mix-blend-mode:multiply">
<path d="M126.033 31.2432C126.207 31.2432 126.348 31.1022 126.348 30.9284C126.348 30.7546 126.207 30.6136 126.033 30.6136C125.86 30.6136 125.719 30.7546 125.719 30.9284C125.719 31.1022 125.86 31.2432 126.033 31.2432Z" fill="#44514B"/>
<path opacity="0.5" d="M126.034 31.1645C126.034 31.1645 125.798 31.0858 125.798 30.9284C125.798 30.771 125.877 30.6923 126.034 30.6923C126.191 30.6923 126.27 30.771 126.27 30.9284C126.27 31.0858 126.191 31.1645 126.034 31.1645Z" fill="#44514B"/>
</g>
<g style="mix-blend-mode:multiply">
<path d="M126.821 30.4562C126.995 30.4562 127.135 30.3153 127.135 30.1415C127.135 29.9676 126.995 29.8267 126.821 29.8267C126.647 29.8267 126.506 29.9676 126.506 30.1415C126.506 30.3153 126.647 30.4562 126.821 30.4562Z" fill="#44514B"/>
<path opacity="0.5" d="M126.821 30.3775C126.821 30.3775 126.585 30.2988 126.585 30.1415C126.585 29.9841 126.664 29.9054 126.821 29.9054C126.978 29.9054 127.057 29.9841 127.057 30.1415C127.057 30.2988 126.978 30.3775 126.821 30.3775Z" fill="#44514B"/>
</g>
<g style="mix-blend-mode:multiply">
<path d="M126.821 31.9514C126.821 31.9514 126.506 31.794 126.506 31.6366C126.506 31.4792 126.663 31.3218 126.821 31.3218C126.978 31.3218 127.135 31.4792 127.135 31.6366C127.135 31.794 126.978 31.9514 126.821 31.9514Z" fill="#44514B"/>
<path opacity="0.5" d="M126.821 31.8727C126.821 31.8727 126.585 31.794 126.585 31.6366C126.585 31.4792 126.664 31.4005 126.821 31.4005C126.978 31.4005 127.057 31.4792 127.057 31.6366C127.057 31.794 126.978 31.8727 126.821 31.8727Z" fill="#44514B"/>
</g>
<g style="mix-blend-mode:multiply">
<path d="M126.821 31.2432C126.995 31.2432 127.135 31.1022 127.135 30.9284C127.135 30.7546 126.995 30.6136 126.821 30.6136C126.647 30.6136 126.506 30.7546 126.506 30.9284C126.506 31.1022 126.647 31.2432 126.821 31.2432Z" fill="#44514B"/>
<path opacity="0.5" d="M126.821 31.1645C126.821 31.1645 126.585 31.0858 126.585 30.9284C126.585 30.771 126.664 30.6923 126.821 30.6923C126.978 30.6923 127.057 30.771 127.057 30.9284C127.057 31.0858 126.978 31.1645 126.821 31.1645Z" fill="#44514B"/>
</g>
<g style="mix-blend-mode:multiply">
<path d="M127.608 30.4562C127.782 30.4562 127.923 30.3153 127.923 30.1415C127.923 29.9676 127.782 29.8267 127.608 29.8267C127.434 29.8267 127.293 29.9676 127.293 30.1415C127.293 30.3153 127.434 30.4562 127.608 30.4562Z" fill="#44514B"/>
<path opacity="0.5" d="M127.608 30.3775C127.608 30.3775 127.372 30.2988 127.372 30.1415C127.372 29.9841 127.451 29.9054 127.608 29.9054C127.766 29.9054 127.844 29.9841 127.844 30.1415C127.844 30.2988 127.766 30.3775 127.608 30.3775Z" fill="#44514B"/>
</g>
<g style="mix-blend-mode:multiply">
<path d="M127.608 31.9514C127.608 31.9514 127.293 31.794 127.293 31.6366C127.293 31.4792 127.45 31.3218 127.608 31.3218C127.765 31.3218 127.923 31.4792 127.923 31.6366C127.923 31.794 127.765 31.9514 127.608 31.9514Z" fill="#44514B"/>
<path opacity="0.5" d="M127.608 31.8727C127.608 31.8727 127.372 31.794 127.372 31.6366C127.372 31.4792 127.451 31.4005 127.608 31.4005C127.766 31.4005 127.844 31.4792 127.844 31.6366C127.844 31.794 127.766 31.8727 127.608 31.8727Z" fill="#44514B"/>
</g>
<g style="mix-blend-mode:multiply">
<path d="M127.608 31.2432C127.782 31.2432 127.923 31.1022 127.923 30.9284C127.923 30.7546 127.782 30.6136 127.608 30.6136C127.434 30.6136 127.293 30.7546 127.293 30.9284C127.293 31.1022 127.434 31.2432 127.608 31.2432Z" fill="#44514B"/>
<path opacity="0.5" d="M127.608 31.1645C127.608 31.1645 127.372 31.0858 127.372 30.9284C127.372 30.771 127.451 30.6923 127.608 30.6923C127.766 30.6923 127.844 30.771 127.844 30.9284C127.844 31.0858 127.766 31.1645 127.608 31.1645Z" fill="#44514B"/>
</g>
<g style="mix-blend-mode:multiply">
<path d="M128.397 30.4562C128.571 30.4562 128.711 30.3153 128.711 30.1415C128.711 29.9676 128.571 29.8267 128.397 29.8267C128.223 29.8267 128.082 29.9676 128.082 30.1415C128.082 30.3153 128.223 30.4562 128.397 30.4562Z" fill="#44514B"/>
<path opacity="0.5" d="M128.397 30.3775C128.397 30.3775 128.161 30.2988 128.161 30.1415C128.161 29.9841 128.24 29.9054 128.397 29.9054C128.555 29.9054 128.633 29.9841 128.633 30.1415C128.633 30.2988 128.555 30.3775 128.397 30.3775Z" fill="#44514B"/>
</g>
<g style="mix-blend-mode:multiply">
<path d="M128.397 31.9514C128.397 31.9514 128.082 31.794 128.082 31.6366C128.082 31.4792 128.239 31.3218 128.397 31.3218C128.554 31.3218 128.711 31.4792 128.711 31.6366C128.711 31.794 128.554 31.9514 128.397 31.9514Z" fill="#44514B"/>
<path opacity="0.5" d="M128.397 31.8727C128.397 31.8727 128.161 31.794 128.161 31.6366C128.161 31.4792 128.24 31.4005 128.397 31.4005C128.555 31.4005 128.633 31.4792 128.633 31.6366C128.633 31.794 128.555 31.8727 128.397 31.8727Z" fill="#44514B"/>
</g>
<g style="mix-blend-mode:multiply">
<path d="M128.397 31.2432C128.571 31.2432 128.711 31.1022 128.711 30.9284C128.711 30.7546 128.571 30.6136 128.397 30.6136C128.223 30.6136 128.082 30.7546 128.082 30.9284C128.082 31.1022 128.223 31.2432 128.397 31.2432Z" fill="#44514B"/>
<path opacity="0.5" d="M128.397 31.1645C128.397 31.1645 128.161 31.0858 128.161 30.9284C128.161 30.771 128.24 30.6923 128.397 30.6923C128.555 30.6923 128.633 30.771 128.633 30.9284C128.633 31.0858 128.555 31.1645 128.397 31.1645Z" fill="#44514B"/>
</g>
<g style="mix-blend-mode:multiply">
<path d="M129.181 30.4562C129.355 30.4562 129.496 30.3153 129.496 30.1415C129.496 29.9676 129.355 29.8267 129.181 29.8267C129.007 29.8267 128.866 29.9676 128.866 30.1415C128.866 30.3153 129.007 30.4562 129.181 30.4562Z" fill="#44514B"/>
<path opacity="0.5" d="M129.178 30.3777C129.178 30.3777 128.942 30.299 128.942 30.1416C128.942 29.9842 129.021 29.9055 129.178 29.9055C129.336 29.9055 129.415 29.9842 129.415 30.1416C129.415 30.299 129.336 30.3777 129.178 30.3777Z" fill="#44514B"/>
</g>
<g style="mix-blend-mode:multiply">
<path d="M129.181 31.9514C129.181 31.9514 128.866 31.794 128.866 31.6366C128.866 31.4792 129.024 31.3218 129.181 31.3218C129.338 31.3218 129.496 31.4792 129.496 31.6366C129.496 31.794 129.338 31.9514 129.181 31.9514Z" fill="#44514B"/>
<path opacity="0.5" d="M129.178 31.8728C129.178 31.8728 128.942 31.7941 128.942 31.6367C128.942 31.4793 129.021 31.4006 129.178 31.4006C129.336 31.4006 129.415 31.4793 129.415 31.6367C129.415 31.7941 129.336 31.8728 129.178 31.8728Z" fill="#44514B"/>
</g>
<g style="mix-blend-mode:multiply">
<path d="M129.181 31.2432C129.355 31.2432 129.496 31.1022 129.496 30.9284C129.496 30.7546 129.355 30.6136 129.181 30.6136C129.007 30.6136 128.866 30.7546 128.866 30.9284C128.866 31.1022 129.007 31.2432 129.181 31.2432Z" fill="#44514B"/>
<path opacity="0.5" d="M129.178 31.1643C129.178 31.1643 128.942 31.0857 128.942 30.9283C128.942 30.7709 129.021 30.6922 129.178 30.6922C129.336 30.6922 129.415 30.7709 129.415 30.9283C129.415 31.0857 129.336 31.1643 129.178 31.1643Z" fill="#44514B"/>
</g>
<g style="mix-blend-mode:multiply">
<path d="M129.968 30.4562C130.142 30.4562 130.283 30.3153 130.283 30.1415C130.283 29.9676 130.142 29.8267 129.968 29.8267C129.794 29.8267 129.653 29.9676 129.653 30.1415C129.653 30.3153 129.794 30.4562 129.968 30.4562Z" fill="#44514B"/>
<path opacity="0.5" d="M129.968 30.3775C129.968 30.3775 129.732 30.2988 129.732 30.1415C129.732 29.9841 129.811 29.9054 129.968 29.9054C130.126 29.9054 130.205 29.9841 130.205 30.1415C130.205 30.2988 130.126 30.3775 129.968 30.3775Z" fill="#44514B"/>
</g>
<g style="mix-blend-mode:multiply">
<path d="M129.968 31.9514C129.968 31.9514 129.653 31.794 129.653 31.6366C129.653 31.4792 129.811 31.3218 129.968 31.3218C130.125 31.3218 130.283 31.4792 130.283 31.6366C130.283 31.794 130.125 31.9514 129.968 31.9514Z" fill="#44514B"/>
<path opacity="0.5" d="M129.968 31.8727C129.968 31.8727 129.732 31.794 129.732 31.6366C129.732 31.4792 129.811 31.4005 129.968 31.4005C130.126 31.4005 130.205 31.4792 130.205 31.6366C130.205 31.794 130.126 31.8727 129.968 31.8727Z" fill="#44514B"/>
</g>
<g style="mix-blend-mode:multiply">
<path d="M129.968 31.2432C130.142 31.2432 130.283 31.1022 130.283 30.9284C130.283 30.7546 130.142 30.6136 129.968 30.6136C129.794 30.6136 129.653 30.7546 129.653 30.9284C129.653 31.1022 129.794 31.2432 129.968 31.2432Z" fill="#44514B"/>
<path opacity="0.5" d="M129.968 31.1645C129.968 31.1645 129.732 31.0858 129.732 30.9284C129.732 30.771 129.811 30.6923 129.968 30.6923C130.126 30.6923 130.205 30.771 130.205 30.9284C130.205 31.0858 130.126 31.1645 129.968 31.1645Z" fill="#44514B"/>
</g>
<g style="mix-blend-mode:multiply">
<path d="M130.755 30.4562C130.929 30.4562 131.07 30.3153 131.07 30.1415C131.07 29.9676 130.929 29.8267 130.755 29.8267C130.581 29.8267 130.44 29.9676 130.44 30.1415C130.44 30.3153 130.581 30.4562 130.755 30.4562Z" fill="#44514B"/>
<path opacity="0.5" d="M130.756 30.3775C130.756 30.3775 130.52 30.2988 130.52 30.1415C130.52 29.9841 130.598 29.9054 130.756 29.9054C130.913 29.9054 130.992 29.9841 130.992 30.1415C130.992 30.2988 130.913 30.3775 130.756 30.3775Z" fill="#44514B"/>
</g>
<g style="mix-blend-mode:multiply">
<path d="M130.755 31.9514C130.755 31.9514 130.44 31.794 130.44 31.6366C130.44 31.4792 130.598 31.3218 130.755 31.3218C130.913 31.3218 131.07 31.4792 131.07 31.6366C131.07 31.794 130.913 31.9514 130.755 31.9514Z" fill="#44514B"/>
<path opacity="0.5" d="M130.756 31.8727C130.756 31.8727 130.52 31.794 130.52 31.6366C130.52 31.4792 130.598 31.4005 130.756 31.4005C130.913 31.4005 130.992 31.4792 130.992 31.6366C130.992 31.794 130.913 31.8727 130.756 31.8727Z" fill="#44514B"/>
</g>
<g style="mix-blend-mode:multiply">
<path d="M130.755 31.2432C130.929 31.2432 131.07 31.1022 131.07 30.9284C131.07 30.7546 130.929 30.6136 130.755 30.6136C130.581 30.6136 130.44 30.7546 130.44 30.9284C130.44 31.1022 130.581 31.2432 130.755 31.2432Z" fill="#44514B"/>
<path opacity="0.5" d="M130.756 31.1645C130.756 31.1645 130.52 31.0858 130.52 30.9284C130.52 30.771 130.598 30.6923 130.756 30.6923C130.913 30.6923 130.992 30.771 130.992 30.9284C130.992 31.0858 130.913 31.1645 130.756 31.1645Z" fill="#44514B"/>
</g>
<g style="mix-blend-mode:multiply">
<path d="M131.542 30.4562C131.716 30.4562 131.857 30.3153 131.857 30.1415C131.857 29.9676 131.716 29.8267 131.542 29.8267C131.368 29.8267 131.228 29.9676 131.228 30.1415C131.228 30.3153 131.368 30.4562 131.542 30.4562Z" fill="#44514B"/>
<path opacity="0.5" d="M131.543 30.3775C131.543 30.3775 131.307 30.2988 131.307 30.1415C131.307 29.9841 131.385 29.9054 131.543 29.9054C131.7 29.9054 131.779 29.9841 131.779 30.1415C131.779 30.2988 131.7 30.3775 131.543 30.3775Z" fill="#44514B"/>
</g>
<g style="mix-blend-mode:multiply">
<path d="M131.542 31.9514C131.542 31.9514 131.228 31.794 131.228 31.6366C131.228 31.4792 131.385 31.3218 131.542 31.3218C131.7 31.3218 131.857 31.4792 131.857 31.6366C131.857 31.794 131.7 31.9514 131.542 31.9514Z" fill="#44514B"/>
<path opacity="0.5" d="M131.543 31.8727C131.543 31.8727 131.307 31.794 131.307 31.6366C131.307 31.4792 131.385 31.4005 131.543 31.4005C131.7 31.4005 131.779 31.4792 131.779 31.6366C131.779 31.794 131.7 31.8727 131.543 31.8727Z" fill="#44514B"/>
</g>
<g style="mix-blend-mode:multiply">
<path d="M131.542 31.2432C131.716 31.2432 131.857 31.1022 131.857 30.9284C131.857 30.7546 131.716 30.6136 131.542 30.6136C131.368 30.6136 131.228 30.7546 131.228 30.9284C131.228 31.1022 131.368 31.2432 131.542 31.2432Z" fill="#44514B"/>
<path opacity="0.5" d="M131.543 31.1645C131.543 31.1645 131.307 31.0858 131.307 30.9284C131.307 30.771 131.385 30.6923 131.543 30.6923C131.7 30.6923 131.779 30.771 131.779 30.9284C131.779 31.0858 131.7 31.1645 131.543 31.1645Z" fill="#44514B"/>
</g>
</g>
<g style="mix-blend-mode:multiply" opacity="0.33">
<path d="M173.875 55.5584L173.01 55.2436V59.965L173.875 59.6503V55.5584Z" fill="#44514B"/>
<path d="M173.875 61.5388L173.01 61.2241V73.4211L173.875 73.1063V61.5388Z" fill="#44514B"/>
<path d="M166.006 24.7903H80.6268C76.6136 24.7903 73.3872 28.0953 73.3872 32.1086L70.8691 200.192C70.8691 204.205 74.0954 207.431 78.1087 207.431H163.488C167.501 207.431 170.727 204.126 170.727 200.113L173.245 32.0299C173.245 28.0167 170.019 24.7903 166.006 24.7903Z" fill="#44514B"/>
</g>
<g style="mix-blend-mode:multiply">
<path d="M159.163 184.847C159.163 188.388 156.251 191.221 152.631 191.221H73.2325C69.6127 191.221 66.7012 188.388 66.7012 184.847L69.2192 35.886C69.2192 32.3449 72.1308 29.5121 75.7505 29.5121H155.149C158.769 29.5121 161.681 32.3449 161.681 35.886L159.163 184.847Z" fill="#231F20"/>
</g>
<path d="M166.006 51.7025L165.141 52.096V47.2958L166.006 47.6893V51.7025Z" fill="#505357"/>
<path d="M166.006 65.2372L165.141 65.552V53.355L166.006 53.6697V65.2372Z" fill="#505357"/>
<path d="M162.858 192.322C162.858 196.336 159.632 199.562 155.619 199.562H70.2395C66.2263 199.562 63 196.336 63 192.322L65.518 24.2395C65.518 20.2263 68.7444 17 72.7577 17H158.137C162.15 17 165.376 20.2263 165.376 24.2395L162.858 192.322Z" fill="#EE2038"/>
<path d="M152.552 191.221H72.602C71.5004 191.221 70.6348 190.355 70.6348 189.332L72.2872 28.174C72.2872 27.0723 73.1528 26.2067 74.2545 26.2067H154.204C155.306 26.2067 156.171 27.0723 156.171 28.0953L154.519 189.253C154.519 190.355 153.653 191.221 152.552 191.221Z" fill="#AFB3B6"/>
<path d="M107.145 22.587C107.319 22.587 107.46 22.4461 107.46 22.2723C107.46 22.0984 107.319 21.9575 107.145 21.9575C106.971 21.9575 106.83 22.0984 106.83 22.2723C106.83 22.4461 106.971 22.587 107.145 22.587Z" fill="#505357"/>
<g style="mix-blend-mode:multiply">
<path d="M107.145 22.587C107.319 22.587 107.46 22.4461 107.46 22.2723C107.46 22.0984 107.319 21.9575 107.145 21.9575C106.971 21.9575 106.83 22.0984 106.83 22.2723C106.83 22.4461 106.971 22.587 107.145 22.587Z" fill="#505357"/>
<path opacity="0.5" d="M107.145 22.5083C107.145 22.5083 106.909 22.4296 106.909 22.2723C106.909 22.1149 106.988 22.0362 107.145 22.0362C107.303 22.0362 107.381 22.1149 107.381 22.2723C107.381 22.4296 107.303 22.5083 107.145 22.5083Z" fill="#505357"/>
</g>
<path d="M107.145 24.0822C107.145 24.0822 106.83 23.9248 106.83 23.7674C106.83 23.61 106.988 23.4526 107.145 23.4526C107.302 23.4526 107.46 23.61 107.46 23.7674C107.46 23.9248 107.302 24.0822 107.145 24.0822Z" fill="#505357"/>
<g style="mix-blend-mode:multiply">
<path d="M107.145 24.0822C107.145 24.0822 106.83 23.9248 106.83 23.7674C106.83 23.61 106.988 23.4526 107.145 23.4526C107.302 23.4526 107.46 23.61 107.46 23.7674C107.46 23.9248 107.302 24.0822 107.145 24.0822Z" fill="#505357"/>
<path opacity="0.5" d="M107.145 24.0035C107.145 24.0035 106.909 23.9248 106.909 23.7674C106.909 23.61 106.988 23.5313 107.145 23.5313C107.303 23.5313 107.381 23.61 107.381 23.7674C107.381 23.9248 107.303 24.0035 107.145 24.0035Z" fill="#505357"/>
</g>
<path d="M107.145 23.374C107.319 23.374 107.46 23.233 107.46 23.0592C107.46 22.8854 107.319 22.7444 107.145 22.7444C106.971 22.7444 106.83 22.8854 106.83 23.0592C106.83 23.233 106.971 23.374 107.145 23.374Z" fill="#505357"/>
<g style="mix-blend-mode:multiply">
<path d="M107.145 23.374C107.319 23.374 107.46 23.233 107.46 23.0592C107.46 22.8854 107.319 22.7444 107.145 22.7444C106.971 22.7444 106.83 22.8854 106.83 23.0592C106.83 23.233 106.971 23.374 107.145 23.374Z" fill="#505357"/>
<path opacity="0.5" d="M107.145 23.2953C107.145 23.2953 106.909 23.2166 106.909 23.0592C106.909 22.9018 106.988 22.8231 107.145 22.8231C107.303 22.8231 107.381 22.9018 107.381 23.0592C107.381 23.2166 107.303 23.2953 107.145 23.2953Z" fill="#505357"/>
</g>
<path d="M107.932 22.587C108.106 22.587 108.247 22.4461 108.247 22.2723C108.247 22.0984 108.106 21.9575 107.932 21.9575C107.758 21.9575 107.617 22.0984 107.617 22.2723C107.617 22.4461 107.758 22.587 107.932 22.587Z" fill="#505357"/>
<g style="mix-blend-mode:multiply">
<path d="M107.932 22.587C108.106 22.587 108.247 22.4461 108.247 22.2723C108.247 22.0984 108.106 21.9575 107.932 21.9575C107.758 21.9575 107.617 22.0984 107.617 22.2723C107.617 22.4461 107.758 22.587 107.932 22.587Z" fill="#505357"/>
<path opacity="0.5" d="M107.932 22.5083C107.932 22.5083 107.696 22.4296 107.696 22.2723C107.696 22.1149 107.775 22.0362 107.932 22.0362C108.09 22.0362 108.169 22.1149 108.169 22.2723C108.169 22.4296 108.09 22.5083 107.932 22.5083Z" fill="#505357"/>
</g>
<path d="M107.932 24.0822C107.932 24.0822 107.617 23.9248 107.617 23.7674C107.617 23.61 107.775 23.4526 107.932 23.4526C108.089 23.4526 108.247 23.61 108.247 23.7674C108.247 23.9248 108.089 24.0822 107.932 24.0822Z" fill="#505357"/>
<g style="mix-blend-mode:multiply">
<path d="M107.932 24.0822C107.932 24.0822 107.617 23.9248 107.617 23.7674C107.617 23.61 107.775 23.4526 107.932 23.4526C108.089 23.4526 108.247 23.61 108.247 23.7674C108.247 23.9248 108.089 24.0822 107.932 24.0822Z" fill="#505357"/>
<path opacity="0.5" d="M107.932 24.0035C107.932 24.0035 107.696 23.9248 107.696 23.7674C107.696 23.61 107.775 23.5313 107.932 23.5313C108.09 23.5313 108.169 23.61 108.169 23.7674C108.169 23.9248 108.09 24.0035 107.932 24.0035Z" fill="#505357"/>
</g>
<path d="M107.932 23.374C108.106 23.374 108.247 23.233 108.247 23.0592C108.247 22.8854 108.106 22.7444 107.932 22.7444C107.758 22.7444 107.617 22.8854 107.617 23.0592C107.617 23.233 107.758 23.374 107.932 23.374Z" fill="#505357"/>
<g style="mix-blend-mode:multiply">
<path d="M107.932 23.374C108.106 23.374 108.247 23.233 108.247 23.0592C108.247 22.8854 108.106 22.7444 107.932 22.7444C107.758 22.7444 107.617 22.8854 107.617 23.0592C107.617 23.233 107.758 23.374 107.932 23.374Z" fill="#505357"/>
<path opacity="0.5" d="M107.932 23.2953C107.932 23.2953 107.696 23.2166 107.696 23.0592C107.696 22.9018 107.775 22.8231 107.932 22.8231C108.09 22.8231 108.169 22.9018 108.169 23.0592C108.169 23.2166 108.09 23.2953 107.932 23.2953Z" fill="#505357"/>
</g>
<path d="M108.719 22.587C108.893 22.587 109.034 22.4461 109.034 22.2723C109.034 22.0984 108.893 21.9575 108.719 21.9575C108.545 21.9575 108.404 22.0984 108.404 22.2723C108.404 22.4461 108.545 22.587 108.719 22.587Z" fill="#505357"/>
<g style="mix-blend-mode:multiply">
<path d="M108.719 22.587C108.893 22.587 109.034 22.4461 109.034 22.2723C109.034 22.0984 108.893 21.9575 108.719 21.9575C108.545 21.9575 108.404 22.0984 108.404 22.2723C108.404 22.4461 108.545 22.587 108.719 22.587Z" fill="#505357"/>
<path opacity="0.5" d="M108.718 22.5083C108.718 22.5083 108.482 22.4296 108.482 22.2723C108.482 22.1149 108.561 22.0362 108.718 22.0362C108.876 22.0362 108.955 22.1149 108.955 22.2723C108.955 22.4296 108.876 22.5083 108.718 22.5083Z" fill="#505357"/>
</g>
<path d="M108.719 24.0822C108.719 24.0822 108.404 23.9248 108.404 23.7674C108.404 23.61 108.562 23.4526 108.719 23.4526C108.876 23.4526 109.034 23.61 109.034 23.7674C109.034 23.9248 108.876 24.0822 108.719 24.0822Z" fill="#505357"/>
<g style="mix-blend-mode:multiply">
<path d="M108.719 24.0822C108.719 24.0822 108.404 23.9248 108.404 23.7674C108.404 23.61 108.562 23.4526 108.719 23.4526C108.876 23.4526 109.034 23.61 109.034 23.7674C109.034 23.9248 108.876 24.0822 108.719 24.0822Z" fill="#505357"/>
<path opacity="0.5" d="M108.718 24.0035C108.718 24.0035 108.482 23.9248 108.482 23.7674C108.482 23.61 108.561 23.5313 108.718 23.5313C108.876 23.5313 108.955 23.61 108.955 23.7674C108.955 23.9248 108.876 24.0035 108.718 24.0035Z" fill="#505357"/>
</g>
<path d="M108.719 23.3739C108.893 23.3739 109.034 23.233 109.034 23.0591C109.034 22.8853 108.893 22.7444 108.719 22.7444C108.545 22.7444 108.404 22.8853 108.404 23.0591C108.404 23.233 108.545 23.3739 108.719 23.3739Z" fill="#505357"/>
<g style="mix-blend-mode:multiply">
<path d="M108.719 23.3739C108.893 23.3739 109.034 23.233 109.034 23.0591C109.034 22.8853 108.893 22.7444 108.719 22.7444C108.545 22.7444 108.404 22.8853 108.404 23.0591C108.404 23.233 108.545 23.3739 108.719 23.3739Z" fill="#505357"/>
<path opacity="0.5" d="M108.718 23.2953C108.718 23.2953 108.482 23.2166 108.482 23.0592C108.482 22.9018 108.561 22.8231 108.718 22.8231C108.876 22.8231 108.955 22.9018 108.955 23.0592C108.955 23.2166 108.876 23.2953 108.718 23.2953Z" fill="#505357"/>
</g>
<path d="M109.503 22.5872C109.677 22.5872 109.818 22.4462 109.818 22.2724C109.818 22.0986 109.677 21.9576 109.503 21.9576C109.329 21.9576 109.188 22.0986 109.188 22.2724C109.188 22.4462 109.329 22.5872 109.503 22.5872Z" fill="#505357"/>
<g style="mix-blend-mode:multiply">
<path d="M109.503 22.5872C109.677 22.5872 109.818 22.4462 109.818 22.2724C109.818 22.0986 109.677 21.9576 109.503 21.9576C109.329 21.9576 109.188 22.0986 109.188 22.2724C109.188 22.4462 109.329 22.5872 109.503 22.5872Z" fill="#505357"/>
<path opacity="0.5" d="M109.506 22.5086C109.506 22.5086 109.27 22.4299 109.27 22.2725C109.27 22.1151 109.348 22.0364 109.506 22.0364C109.663 22.0364 109.742 22.1151 109.742 22.2725C109.742 22.4299 109.663 22.5086 109.506 22.5086Z" fill="#505357"/>
</g>
<path d="M109.503 24.0823C109.503 24.0823 109.188 23.9249 109.188 23.7675C109.188 23.6101 109.346 23.4528 109.503 23.4528C109.661 23.4528 109.818 23.6101 109.818 23.7675C109.818 23.9249 109.661 24.0823 109.503 24.0823Z" fill="#505357"/>
<g style="mix-blend-mode:multiply">
<path d="M109.503 24.0823C109.503 24.0823 109.188 23.9249 109.188 23.7675C109.188 23.6101 109.346 23.4528 109.503 23.4528C109.661 23.4528 109.818 23.6101 109.818 23.7675C109.818 23.9249 109.661 24.0823 109.503 24.0823Z" fill="#505357"/>
<path opacity="0.5" d="M109.506 24.0037C109.506 24.0037 109.27 23.925 109.27 23.7676C109.27 23.6102 109.348 23.5316 109.506 23.5316C109.663 23.5316 109.742 23.6102 109.742 23.7676C109.742 23.925 109.663 24.0037 109.506 24.0037Z" fill="#505357"/>
</g>
<path d="M109.503 23.3741C109.677 23.3741 109.818 23.2332 109.818 23.0593C109.818 22.8855 109.677 22.7446 109.503 22.7446C109.329 22.7446 109.188 22.8855 109.188 23.0593C109.188 23.2332 109.329 23.3741 109.503 23.3741Z" fill="#505357"/>
<g style="mix-blend-mode:multiply">
<path d="M109.503 23.3741C109.677 23.3741 109.818 23.2332 109.818 23.0593C109.818 22.8855 109.677 22.7446 109.503 22.7446C109.329 22.7446 109.188 22.8855 109.188 23.0593C109.188 23.2332 109.329 23.3741 109.503 23.3741Z" fill="#505357"/>
<path opacity="0.5" d="M109.506 23.2953C109.506 23.2953 109.27 23.2166 109.27 23.0592C109.27 22.9018 109.348 22.8231 109.506 22.8231C109.663 22.8231 109.742 22.9018 109.742 23.0592C109.742 23.2166 109.663 23.2953 109.506 23.2953Z" fill="#505357"/>
</g>
<path d="M110.293 22.587C110.467 22.587 110.608 22.4461 110.608 22.2723C110.608 22.0984 110.467 21.9575 110.293 21.9575C110.119 21.9575 109.979 22.0984 109.979 22.2723C109.979 22.4461 110.119 22.587 110.293 22.587Z" fill="#505357"/>
<g style="mix-blend-mode:multiply">
<path d="M110.293 22.587C110.467 22.587 110.608 22.4461 110.608 22.2723C110.608 22.0984 110.467 21.9575 110.293 21.9575C110.119 21.9575 109.979 22.0984 109.979 22.2723C109.979 22.4461 110.119 22.587 110.293 22.587Z" fill="#505357"/>
<path opacity="0.5" d="M110.29 22.5086C110.29 22.5086 110.054 22.4299 110.054 22.2725C110.054 22.1151 110.132 22.0364 110.29 22.0364C110.447 22.0364 110.526 22.1151 110.526 22.2725C110.526 22.4299 110.447 22.5086 110.29 22.5086Z" fill="#505357"/>
</g>
<path d="M110.293 24.0822C110.293 24.0822 109.979 23.9248 109.979 23.7674C109.979 23.61 110.136 23.4526 110.293 23.4526C110.451 23.4526 110.608 23.61 110.608 23.7674C110.608 23.9248 110.451 24.0822 110.293 24.0822Z" fill="#505357"/>
<g style="mix-blend-mode:multiply">
<path d="M110.293 24.0822C110.293 24.0822 109.979 23.9248 109.979 23.7674C109.979 23.61 110.136 23.4526 110.293 23.4526C110.451 23.4526 110.608 23.61 110.608 23.7674C110.608 23.9248 110.451 24.0822 110.293 24.0822Z" fill="#505357"/>
<path opacity="0.5" d="M110.29 24.0037C110.29 24.0037 110.054 23.925 110.054 23.7676C110.054 23.6102 110.132 23.5316 110.29 23.5316C110.447 23.5316 110.526 23.6102 110.526 23.7676C110.526 23.925 110.447 24.0037 110.29 24.0037Z" fill="#505357"/>
</g>
<path d="M110.293 23.374C110.467 23.374 110.608 23.233 110.608 23.0592C110.608 22.8854 110.467 22.7444 110.293 22.7444C110.119 22.7444 109.979 22.8854 109.979 23.0592C109.979 23.233 110.119 23.374 110.293 23.374Z" fill="#505357"/>
<g style="mix-blend-mode:multiply">
<path d="M110.293 23.374C110.467 23.374 110.608 23.233 110.608 23.0592C110.608 22.8854 110.467 22.7444 110.293 22.7444C110.119 22.7444 109.979 22.8854 109.979 23.0592C109.979 23.233 110.119 23.374 110.293 23.374Z" fill="#505357"/>
<path opacity="0.5" d="M110.29 23.2953C110.29 23.2953 110.054 23.2166 110.054 23.0592C110.054 22.9018 110.132 22.8231 110.29 22.8231C110.447 22.8231 110.526 22.9018 110.526 23.0592C110.526 23.2166 110.447 23.2953 110.29 23.2953Z" fill="#505357"/>
</g>
<path d="M111.079 22.587C111.253 22.587 111.394 22.4461 111.394 22.2723C111.394 22.0984 111.253 21.9575 111.079 21.9575C110.906 21.9575 110.765 22.0984 110.765 22.2723C110.765 22.4461 110.906 22.587 111.079 22.587Z" fill="#505357"/>
<g style="mix-blend-mode:multiply">
<path d="M111.079 22.587C111.253 22.587 111.394 22.4461 111.394 22.2723C111.394 22.0984 111.253 21.9575 111.079 21.9575C110.906 21.9575 110.765 22.0984 110.765 22.2723C110.765 22.4461 110.906 22.587 111.079 22.587Z" fill="#505357"/>
<path opacity="0.5" d="M111.08 22.5083C111.08 22.5083 110.844 22.4296 110.844 22.2723C110.844 22.1149 110.922 22.0362 111.08 22.0362C111.237 22.0362 111.316 22.1149 111.316 22.2723C111.316 22.4296 111.237 22.5083 111.08 22.5083Z" fill="#505357"/>
</g>
<path d="M111.079 24.0822C111.079 24.0822 110.765 23.9248 110.765 23.7674C110.765 23.61 110.922 23.4526 111.079 23.4526C111.237 23.4526 111.394 23.61 111.394 23.7674C111.394 23.9248 111.237 24.0822 111.079 24.0822Z" fill="#505357"/>
<g style="mix-blend-mode:multiply">
<path d="M111.079 24.0822C111.079 24.0822 110.765 23.9248 110.765 23.7674C110.765 23.61 110.922 23.4526 111.079 23.4526C111.237 23.4526 111.394 23.61 111.394 23.7674C111.394 23.9248 111.237 24.0822 111.079 24.0822Z" fill="#505357"/>
<path opacity="0.5" d="M111.08 24.0035C111.08 24.0035 110.844 23.9248 110.844 23.7674C110.844 23.61 110.922 23.5313 111.08 23.5313C111.237 23.5313 111.316 23.61 111.316 23.7674C111.316 23.9248 111.237 24.0035 111.08 24.0035Z" fill="#505357"/>
</g>
<path d="M111.079 23.374C111.253 23.374 111.394 23.233 111.394 23.0592C111.394 22.8854 111.253 22.7444 111.079 22.7444C110.906 22.7444 110.765 22.8854 110.765 23.0592C110.765 23.233 110.906 23.374 111.079 23.374Z" fill="#505357"/>
<g style="mix-blend-mode:multiply">
<path d="M111.079 23.374C111.253 23.374 111.394 23.233 111.394 23.0592C111.394 22.8854 111.253 22.7444 111.079 22.7444C110.906 22.7444 110.765 22.8854 110.765 23.0592C110.765 23.233 110.906 23.374 111.079 23.374Z" fill="#505357"/>
<path opacity="0.5" d="M111.08 23.2953C111.08 23.2953 110.844 23.2166 110.844 23.0592C110.844 22.9018 110.922 22.8231 111.08 22.8231C111.237 22.8231 111.316 22.9018 111.316 23.0592C111.316 23.2166 111.237 23.2953 111.08 23.2953Z" fill="#505357"/>
</g>
<path d="M111.866 22.587C111.866 22.587 111.552 22.4297 111.552 22.2723C111.552 22.1149 111.709 21.9575 111.866 21.9575C112.024 21.9575 112.181 22.1149 112.181 22.2723C112.181 22.4297 112.024 22.587 111.866 22.587Z" fill="#505357"/>
<g style="mix-blend-mode:multiply">
<path d="M111.866 22.587C111.866 22.587 111.552 22.4297 111.552 22.2723C111.552 22.1149 111.709 21.9575 111.866 21.9575C112.024 21.9575 112.181 22.1149 112.181 22.2723C112.181 22.4297 112.024 22.587 111.866 22.587Z" fill="#505357"/>
<path opacity="0.5" d="M111.867 22.5083C111.867 22.5083 111.631 22.4296 111.631 22.2723C111.631 22.1149 111.71 22.0362 111.867 22.0362C112.024 22.0362 112.103 22.1149 112.103 22.2723C112.103 22.4296 112.024 22.5083 111.867 22.5083Z" fill="#505357"/>
</g>
<path d="M111.866 24.0822C111.866 24.0822 111.552 23.9248 111.552 23.7674C111.552 23.61 111.709 23.4526 111.866 23.4526C112.024 23.4526 112.181 23.61 112.181 23.7674C112.181 23.9248 112.024 24.0822 111.866 24.0822Z" fill="#505357"/>
<g style="mix-blend-mode:multiply">
<path d="M111.866 24.0822C111.866 24.0822 111.552 23.9248 111.552 23.7674C111.552 23.61 111.709 23.4526 111.866 23.4526C112.024 23.4526 112.181 23.61 112.181 23.7674C112.181 23.9248 112.024 24.0822 111.866 24.0822Z" fill="#505357"/>
<path opacity="0.5" d="M111.867 24.0035C111.867 24.0035 111.631 23.9248 111.631 23.7674C111.631 23.61 111.71 23.5313 111.867 23.5313C112.024 23.5313 112.103 23.61 112.103 23.7674C112.103 23.9248 112.024 24.0035 111.867 24.0035Z" fill="#505357"/>
</g>
<path d="M111.866 23.2952C111.866 23.2952 111.552 23.1379 111.552 22.9805C111.552 22.8231 111.709 22.6657 111.866 22.6657C112.024 22.6657 112.181 22.8231 112.181 22.9805C112.181 23.1379 112.024 23.2952 111.866 23.2952Z" fill="#505357"/>
<g style="mix-blend-mode:multiply">
<path d="M111.866 23.2952C111.866 23.2952 111.552 23.1379 111.552 22.9805C111.552 22.8231 111.709 22.6657 111.866 22.6657C112.024 22.6657 112.181 22.8231 112.181 22.9805C112.181 23.1379 112.024 23.2952 111.866 23.2952Z" fill="#505357"/>
<path opacity="0.5" d="M111.867 23.2953C111.867 23.2953 111.631 23.2166 111.631 23.0592C111.631 22.9018 111.71 22.8231 111.867 22.8231C112.024 22.8231 112.103 22.9018 112.103 23.0592C112.103 23.2166 112.024 23.2953 111.867 23.2953Z" fill="#505357"/>
</g>
<path d="M112.654 22.587C112.654 22.587 112.339 22.4297 112.339 22.2723C112.339 22.1149 112.496 21.9575 112.654 21.9575C112.811 21.9575 112.968 22.1149 112.968 22.2723C112.968 22.4297 112.811 22.587 112.654 22.587Z" fill="#505357"/>
<g style="mix-blend-mode:multiply">
<path d="M112.654 22.587C112.654 22.587 112.339 22.4297 112.339 22.2723C112.339 22.1149 112.496 21.9575 112.654 21.9575C112.811 21.9575 112.968 22.1149 112.968 22.2723C112.968 22.4297 112.811 22.587 112.654 22.587Z" fill="#505357"/>
<path opacity="0.5" d="M112.654 22.5083C112.654 22.5083 112.418 22.4296 112.418 22.2723C112.418 22.1149 112.497 22.0362 112.654 22.0362C112.811 22.0362 112.89 22.1149 112.89 22.2723C112.89 22.4296 112.811 22.5083 112.654 22.5083Z" fill="#505357"/>
</g>
<path d="M112.654 24.0822C112.654 24.0822 112.339 23.9248 112.339 23.7674C112.339 23.61 112.496 23.4526 112.654 23.4526C112.811 23.4526 112.968 23.61 112.968 23.7674C112.968 23.9248 112.811 24.0822 112.654 24.0822Z" fill="#505357"/>
<g style="mix-blend-mode:multiply">
<path d="M112.654 24.0822C112.654 24.0822 112.339 23.9248 112.339 23.7674C112.339 23.61 112.496 23.4526 112.654 23.4526C112.811 23.4526 112.968 23.61 112.968 23.7674C112.968 23.9248 112.811 24.0822 112.654 24.0822Z" fill="#505357"/>
<path opacity="0.5" d="M112.654 24.0035C112.654 24.0035 112.418 23.9248 112.418 23.7674C112.418 23.61 112.497 23.5313 112.654 23.5313C112.811 23.5313 112.89 23.61 112.89 23.7674C112.89 23.9248 112.811 24.0035 112.654 24.0035Z" fill="#505357"/>
</g>
<path d="M112.654 23.2952C112.654 23.2952 112.339 23.1379 112.339 22.9805C112.339 22.8231 112.496 22.6657 112.654 22.6657C112.811 22.6657 112.968 22.8231 112.968 22.9805C112.968 23.1379 112.811 23.2952 112.654 23.2952Z" fill="#505357"/>
<g style="mix-blend-mode:multiply">
<path d="M112.654 23.2952C112.654 23.2952 112.339 23.1379 112.339 22.9805C112.339 22.8231 112.496 22.6657 112.654 22.6657C112.811 22.6657 112.968 22.8231 112.968 22.9805C112.968 23.1379 112.811 23.2952 112.654 23.2952Z" fill="#505357"/>
<path opacity="0.5" d="M112.654 23.2953C112.654 23.2953 112.418 23.2166 112.418 23.0592C112.418 22.9018 112.497 22.8231 112.654 22.8231C112.811 22.8231 112.89 22.9018 112.89 23.0592C112.89 23.2166 112.811 23.2953 112.654 23.2953Z" fill="#505357"/>
</g>
<path d="M113.438 22.5872C113.438 22.5872 113.123 22.4298 113.123 22.2724C113.123 22.115 113.28 21.9576 113.438 21.9576C113.595 21.9576 113.753 22.115 113.753 22.2724C113.753 22.4298 113.595 22.5872 113.438 22.5872Z" fill="#505357"/>
<g style="mix-blend-mode:multiply">
<path d="M113.438 22.5872C113.438 22.5872 113.123 22.4298 113.123 22.2724C113.123 22.115 113.28 21.9576 113.438 21.9576C113.595 21.9576 113.753 22.115 113.753 22.2724C113.753 22.4298 113.595 22.5872 113.438 22.5872Z" fill="#505357"/>
<path opacity="0.5" d="M113.44 22.5086C113.44 22.5086 113.204 22.4299 113.204 22.2725C113.204 22.1151 113.283 22.0364 113.44 22.0364C113.598 22.0364 113.676 22.1151 113.676 22.2725C113.676 22.4299 113.598 22.5086 113.44 22.5086Z" fill="#505357"/>
</g>
<path d="M113.438 24.0823C113.438 24.0823 113.123 23.9249 113.123 23.7675C113.123 23.6101 113.28 23.4528 113.438 23.4528C113.595 23.4528 113.753 23.6101 113.753 23.7675C113.753 23.9249 113.595 24.0823 113.438 24.0823Z" fill="#505357"/>
<g style="mix-blend-mode:multiply">
<path d="M113.438 24.0823C113.438 24.0823 113.123 23.9249 113.123 23.7675C113.123 23.6101 113.28 23.4528 113.438 23.4528C113.595 23.4528 113.753 23.6101 113.753 23.7675C113.753 23.9249 113.595 24.0823 113.438 24.0823Z" fill="#505357"/>
<path opacity="0.5" d="M113.44 24.0037C113.44 24.0037 113.204 23.925 113.204 23.7676C113.204 23.6102 113.283 23.5316 113.44 23.5316C113.598 23.5316 113.676 23.6102 113.676 23.7676C113.676 23.925 113.598 24.0037 113.44 24.0037Z" fill="#505357"/>
</g>
<path d="M113.438 23.2954C113.438 23.2954 113.123 23.138 113.123 22.9806C113.123 22.8232 113.28 22.6658 113.438 22.6658C113.595 22.6658 113.753 22.8232 113.753 22.9806C113.753 23.138 113.595 23.2954 113.438 23.2954Z" fill="#505357"/>
<g style="mix-blend-mode:multiply">
<path d="M113.438 23.2954C113.438 23.2954 113.123 23.138 113.123 22.9806C113.123 22.8232 113.28 22.6658 113.438 22.6658C113.595 22.6658 113.753 22.8232 113.753 22.9806C113.753 23.138 113.595 23.2954 113.438 23.2954Z" fill="#505357"/>
<path opacity="0.5" d="M113.44 23.2957C113.44 23.2957 113.204 23.217 113.204 23.0596C113.204 22.9022 113.283 22.8235 113.44 22.8235C113.598 22.8235 113.676 22.9022 113.676 23.0596C113.676 23.217 113.598 23.2957 113.44 23.2957Z" fill="#505357"/>
</g>
<path d="M114.227 22.587C114.401 22.587 114.542 22.4461 114.542 22.2723C114.542 22.0984 114.401 21.9575 114.227 21.9575C114.053 21.9575 113.912 22.0984 113.912 22.2723C113.912 22.4461 114.053 22.587 114.227 22.587Z" fill="#505357"/>
<g style="mix-blend-mode:multiply">
<path d="M114.227 22.587C114.401 22.587 114.542 22.4461 114.542 22.2723C114.542 22.0984 114.401 21.9575 114.227 21.9575C114.053 21.9575 113.912 22.0984 113.912 22.2723C113.912 22.4461 114.053 22.587 114.227 22.587Z" fill="#505357"/>
<path opacity="0.5" d="M114.223 22.5085C114.223 22.5085 113.987 22.4298 113.987 22.2724C113.987 22.1151 114.066 22.0364 114.223 22.0364C114.381 22.0364 114.459 22.1151 114.459 22.2724C114.459 22.4298 114.381 22.5085 114.223 22.5085Z" fill="#505357"/>
</g>
<path d="M114.227 24.0822C114.227 24.0822 113.912 23.9248 113.912 23.7674C113.912 23.61 114.069 23.4526 114.227 23.4526C114.384 23.4526 114.542 23.61 114.542 23.7674C114.542 23.9248 114.384 24.0822 114.227 24.0822Z" fill="#505357"/>
<g style="mix-blend-mode:multiply">
<path d="M114.227 24.0822C114.227 24.0822 113.912 23.9248 113.912 23.7674C113.912 23.61 114.069 23.4526 114.227 23.4526C114.384 23.4526 114.542 23.61 114.542 23.7674C114.542 23.9248 114.384 24.0822 114.227 24.0822Z" fill="#505357"/>
<path opacity="0.5" d="M114.223 24.0036C114.223 24.0036 113.987 23.9249 113.987 23.7676C113.987 23.6102 114.066 23.5315 114.223 23.5315C114.381 23.5315 114.459 23.6102 114.459 23.7676C114.459 23.9249 114.381 24.0036 114.223 24.0036Z" fill="#505357"/>
</g>
<path d="M114.227 23.3739C114.401 23.3739 114.542 23.233 114.542 23.0591C114.542 22.8853 114.401 22.7444 114.227 22.7444C114.053 22.7444 113.912 22.8853 113.912 23.0591C113.912 23.233 114.053 23.3739 114.227 23.3739Z" fill="#505357"/>
<g style="mix-blend-mode:multiply">
<path d="M114.227 23.3739C114.401 23.3739 114.542 23.233 114.542 23.0591C114.542 22.8853 114.401 22.7444 114.227 22.7444C114.053 22.7444 113.912 22.8853 113.912 23.0591C113.912 23.233 114.053 23.3739 114.227 23.3739Z" fill="#505357"/>
<path opacity="0.5" d="M114.223 23.2952C114.223 23.2952 113.987 23.2165 113.987 23.0591C113.987 22.9017 114.066 22.8231 114.223 22.8231C114.381 22.8231 114.459 22.9017 114.459 23.0591C114.459 23.2165 114.381 23.2952 114.223 23.2952Z" fill="#505357"/>
</g>
<path d="M115.014 22.587C115.188 22.587 115.329 22.4461 115.329 22.2723C115.329 22.0984 115.188 21.9575 115.014 21.9575C114.84 21.9575 114.699 22.0984 114.699 22.2723C114.699 22.4461 114.84 22.587 115.014 22.587Z" fill="#505357"/>
<g style="mix-blend-mode:multiply">
<path d="M115.014 22.587C115.188 22.587 115.329 22.4461 115.329 22.2723C115.329 22.0984 115.188 21.9575 115.014 21.9575C114.84 21.9575 114.699 22.0984 114.699 22.2723C114.699 22.4461 114.84 22.587 115.014 22.587Z" fill="#505357"/>
<path opacity="0.5" d="M115.014 22.5083C115.014 22.5083 114.778 22.4296 114.778 22.2723C114.778 22.1149 114.857 22.0362 115.014 22.0362C115.172 22.0362 115.25 22.1149 115.25 22.2723C115.25 22.4296 115.172 22.5083 115.014 22.5083Z" fill="#505357"/>
</g>
<path d="M115.014 24.0822C115.014 24.0822 114.699 23.9248 114.699 23.7674C114.699 23.61 114.857 23.4526 115.014 23.4526C115.171 23.4526 115.329 23.61 115.329 23.7674C115.329 23.9248 115.171 24.0822 115.014 24.0822Z" fill="#505357"/>
<g style="mix-blend-mode:multiply">
<path d="M115.014 24.0822C115.014 24.0822 114.699 23.9248 114.699 23.7674C114.699 23.61 114.857 23.4526 115.014 23.4526C115.171 23.4526 115.329 23.61 115.329 23.7674C115.329 23.9248 115.171 24.0822 115.014 24.0822Z" fill="#505357"/>
<path opacity="0.5" d="M115.014 24.0035C115.014 24.0035 114.778 23.9248 114.778 23.7674C114.778 23.61 114.857 23.5313 115.014 23.5313C115.172 23.5313 115.25 23.61 115.25 23.7674C115.25 23.9248 115.172 24.0035 115.014 24.0035Z" fill="#505357"/>
</g>
<path d="M115.014 23.374C115.188 23.374 115.329 23.233 115.329 23.0592C115.329 22.8854 115.188 22.7444 115.014 22.7444C114.84 22.7444 114.699 22.8854 114.699 23.0592C114.699 23.233 114.84 23.374 115.014 23.374Z" fill="#505357"/>
<g style="mix-blend-mode:multiply">
<path d="M115.014 23.374C115.188 23.374 115.329 23.233 115.329 23.0592C115.329 22.8854 115.188 22.7444 115.014 22.7444C114.84 22.7444 114.699 22.8854 114.699 23.0592C114.699 23.233 114.84 23.374 115.014 23.374Z" fill="#505357"/>
<path opacity="0.5" d="M115.014 23.2953C115.014 23.2953 114.778 23.2166 114.778 23.0592C114.778 22.9018 114.857 22.8231 115.014 22.8231C115.172 22.8231 115.25 22.9018 115.25 23.0592C115.25 23.2166 115.172 23.2953 115.014 23.2953Z" fill="#505357"/>
</g>
<path d="M115.801 22.587C115.975 22.587 116.116 22.4461 116.116 22.2723C116.116 22.0984 115.975 21.9575 115.801 21.9575C115.627 21.9575 115.486 22.0984 115.486 22.2723C115.486 22.4461 115.627 22.587 115.801 22.587Z" fill="#505357"/>
<g style="mix-blend-mode:multiply">
<path d="M115.801 22.587C115.975 22.587 116.116 22.4461 116.116 22.2723C116.116 22.0984 115.975 21.9575 115.801 21.9575C115.627 21.9575 115.486 22.0984 115.486 22.2723C115.486 22.4461 115.627 22.587 115.801 22.587Z" fill="#505357"/>
<path opacity="0.5" d="M115.801 22.5083C115.801 22.5083 115.565 22.4296 115.565 22.2723C115.565 22.1149 115.644 22.0362 115.801 22.0362C115.959 22.0362 116.038 22.1149 116.038 22.2723C116.038 22.4296 115.959 22.5083 115.801 22.5083Z" fill="#505357"/>
</g>
<path d="M115.801 24.0822C115.801 24.0822 115.486 23.9248 115.486 23.7674C115.486 23.61 115.644 23.4526 115.801 23.4526C115.958 23.4526 116.116 23.61 116.116 23.7674C116.116 23.9248 115.958 24.0822 115.801 24.0822Z" fill="#505357"/>
<g style="mix-blend-mode:multiply">
<path d="M115.801 24.0822C115.801 24.0822 115.486 23.9248 115.486 23.7674C115.486 23.61 115.644 23.4526 115.801 23.4526C115.958 23.4526 116.116 23.61 116.116 23.7674C116.116 23.9248 115.958 24.0822 115.801 24.0822Z" fill="#505357"/>
<path opacity="0.5" d="M115.801 24.0035C115.801 24.0035 115.565 23.9248 115.565 23.7674C115.565 23.61 115.644 23.5313 115.801 23.5313C115.959 23.5313 116.038 23.61 116.038 23.7674C116.038 23.9248 115.959 24.0035 115.801 24.0035Z" fill="#505357"/>
</g>
<path d="M115.801 23.374C115.975 23.374 116.116 23.233 116.116 23.0592C116.116 22.8854 115.975 22.7444 115.801 22.7444C115.627 22.7444 115.486 22.8854 115.486 23.0592C115.486 23.233 115.627 23.374 115.801 23.374Z" fill="#505357"/>
<g style="mix-blend-mode:multiply">
<path d="M115.801 23.374C115.975 23.374 116.116 23.233 116.116 23.0592C116.116 22.8854 115.975 22.7444 115.801 22.7444C115.627 22.7444 115.486 22.8854 115.486 23.0592C115.486 23.233 115.627 23.374 115.801 23.374Z" fill="#505357"/>
<path opacity="0.5" d="M115.801 23.2953C115.801 23.2953 115.565 23.2166 115.565 23.0592C115.565 22.9018 115.644 22.8231 115.801 22.8231C115.959 22.8231 116.038 22.9018 116.038 23.0592C116.038 23.2166 115.959 23.2953 115.801 23.2953Z" fill="#505357"/>
</g>
<path d="M116.588 22.587C116.762 22.587 116.903 22.4461 116.903 22.2723C116.903 22.0984 116.762 21.9575 116.588 21.9575C116.414 21.9575 116.273 22.0984 116.273 22.2723C116.273 22.4461 116.414 22.587 116.588 22.587Z" fill="#505357"/>
<g style="mix-blend-mode:multiply">
<path d="M116.588 22.587C116.762 22.587 116.903 22.4461 116.903 22.2723C116.903 22.0984 116.762 21.9575 116.588 21.9575C116.414 21.9575 116.273 22.0984 116.273 22.2723C116.273 22.4461 116.414 22.587 116.588 22.587Z" fill="#505357"/>
<path opacity="0.5" d="M116.589 22.5083C116.589 22.5083 116.353 22.4296 116.353 22.2723C116.353 22.1149 116.431 22.0362 116.589 22.0362C116.746 22.0362 116.825 22.1149 116.825 22.2723C116.825 22.4296 116.746 22.5083 116.589 22.5083Z" fill="#505357"/>
</g>
<path d="M116.588 24.0822C116.588 24.0822 116.273 23.9248 116.273 23.7674C116.273 23.61 116.431 23.4526 116.588 23.4526C116.746 23.4526 116.903 23.61 116.903 23.7674C116.903 23.9248 116.746 24.0822 116.588 24.0822Z" fill="#505357"/>
<g style="mix-blend-mode:multiply">
<path d="M116.588 24.0822C116.588 24.0822 116.273 23.9248 116.273 23.7674C116.273 23.61 116.431 23.4526 116.588 23.4526C116.746 23.4526 116.903 23.61 116.903 23.7674C116.903 23.9248 116.746 24.0822 116.588 24.0822Z" fill="#505357"/>
<path opacity="0.5" d="M116.589 24.0035C116.589 24.0035 116.353 23.9248 116.353 23.7674C116.353 23.61 116.431 23.5313 116.589 23.5313C116.746 23.5313 116.825 23.61 116.825 23.7674C116.825 23.9248 116.746 24.0035 116.589 24.0035Z" fill="#505357"/>
</g>
<path d="M116.588 23.374C116.762 23.374 116.903 23.233 116.903 23.0592C116.903 22.8854 116.762 22.7444 116.588 22.7444C116.414 22.7444 116.273 22.8854 116.273 23.0592C116.273 23.233 116.414 23.374 116.588 23.374Z" fill="#505357"/>
<g style="mix-blend-mode:multiply">
<path d="M116.588 23.374C116.762 23.374 116.903 23.233 116.903 23.0592C116.903 22.8854 116.762 22.7444 116.588 22.7444C116.414 22.7444 116.273 22.8854 116.273 23.0592C116.273 23.233 116.414 23.374 116.588 23.374Z" fill="#505357"/>
<path opacity="0.5" d="M116.589 23.2953C116.589 23.2953 116.353 23.2166 116.353 23.0592C116.353 22.9018 116.431 22.8231 116.589 22.8231C116.746 22.8231 116.825 22.9018 116.825 23.0592C116.825 23.2166 116.746 23.2953 116.589 23.2953Z" fill="#505357"/>
</g>
<path d="M117.372 22.5872C117.546 22.5872 117.687 22.4462 117.687 22.2724C117.687 22.0986 117.546 21.9576 117.372 21.9576C117.199 21.9576 117.058 22.0986 117.058 22.2724C117.058 22.4462 117.199 22.5872 117.372 22.5872Z" fill="#505357"/>
<g style="mix-blend-mode:multiply">
<path d="M117.372 22.5872C117.546 22.5872 117.687 22.4462 117.687 22.2724C117.687 22.0986 117.546 21.9576 117.372 21.9576C117.199 21.9576 117.058 22.0986 117.058 22.2724C117.058 22.4462 117.199 22.5872 117.372 22.5872Z" fill="#505357"/>
<path opacity="0.5" d="M117.375 22.5086C117.375 22.5086 117.139 22.4299 117.139 22.2725C117.139 22.1151 117.217 22.0364 117.375 22.0364C117.532 22.0364 117.611 22.1151 117.611 22.2725C117.611 22.4299 117.532 22.5086 117.375 22.5086Z" fill="#505357"/>
</g>
<path d="M117.372 24.0823C117.372 24.0823 117.058 23.9249 117.058 23.7675C117.058 23.6101 117.215 23.4528 117.372 23.4528C117.53 23.4528 117.687 23.6101 117.687 23.7675C117.687 23.9249 117.53 24.0823 117.372 24.0823Z" fill="#505357"/>
<g style="mix-blend-mode:multiply">
<path d="M117.372 24.0823C117.372 24.0823 117.058 23.9249 117.058 23.7675C117.058 23.6101 117.215 23.4528 117.372 23.4528C117.53 23.4528 117.687 23.6101 117.687 23.7675C117.687 23.9249 117.53 24.0823 117.372 24.0823Z" fill="#505357"/>
<path opacity="0.5" d="M117.375 24.0037C117.375 24.0037 117.139 23.925 117.139 23.7676C117.139 23.6102 117.217 23.5316 117.375 23.5316C117.532 23.5316 117.611 23.6102 117.611 23.7676C117.611 23.925 117.532 24.0037 117.375 24.0037Z" fill="#505357"/>
</g>
<path d="M117.372 23.3741C117.546 23.3741 117.687 23.2332 117.687 23.0593C117.687 22.8855 117.546 22.7446 117.372 22.7446C117.199 22.7446 117.058 22.8855 117.058 23.0593C117.058 23.2332 117.199 23.3741 117.372 23.3741Z" fill="#505357"/>
<g style="mix-blend-mode:multiply">
<path d="M117.372 23.3741C117.546 23.3741 117.687 23.2332 117.687 23.0593C117.687 22.8855 117.546 22.7446 117.372 22.7446C117.199 22.7446 117.058 22.8855 117.058 23.0593C117.058 23.2332 117.199 23.3741 117.372 23.3741Z" fill="#505357"/>
<path opacity="0.5" d="M117.375 23.2953C117.375 23.2953 117.139 23.2166 117.139 23.0592C117.139 22.9018 117.217 22.8231 117.375 22.8231C117.532 22.8231 117.611 22.9018 117.611 23.0592C117.611 23.2166 117.532 23.2953 117.375 23.2953Z" fill="#505357"/>
</g>
<path d="M118.161 22.587C118.335 22.587 118.476 22.4461 118.476 22.2723C118.476 22.0984 118.335 21.9575 118.161 21.9575C117.988 21.9575 117.847 22.0984 117.847 22.2723C117.847 22.4461 117.988 22.587 118.161 22.587Z" fill="#505357"/>
<g style="mix-blend-mode:multiply">
<path d="M118.161 22.587C118.335 22.587 118.476 22.4461 118.476 22.2723C118.476 22.0984 118.335 21.9575 118.161 21.9575C117.988 21.9575 117.847 22.0984 117.847 22.2723C117.847 22.4461 117.988 22.587 118.161 22.587Z" fill="#505357"/>
<path opacity="0.5" d="M118.158 22.5086C118.158 22.5086 117.922 22.4299 117.922 22.2725C117.922 22.1151 118.001 22.0364 118.158 22.0364C118.315 22.0364 118.394 22.1151 118.394 22.2725C118.394 22.4299 118.315 22.5086 118.158 22.5086Z" fill="#505357"/>
</g>
<path d="M118.161 24.0822C118.161 24.0822 117.847 23.9248 117.847 23.7674C117.847 23.61 118.004 23.4526 118.161 23.4526C118.319 23.4526 118.476 23.61 118.476 23.7674C118.476 23.9248 118.319 24.0822 118.161 24.0822Z" fill="#505357"/>
<g style="mix-blend-mode:multiply">
<path d="M118.161 24.0822C118.161 24.0822 117.847 23.9248 117.847 23.7674C117.847 23.61 118.004 23.4526 118.161 23.4526C118.319 23.4526 118.476 23.61 118.476 23.7674C118.476 23.9248 118.319 24.0822 118.161 24.0822Z" fill="#505357"/>
<path opacity="0.5" d="M118.158 24.0037C118.158 24.0037 117.922 23.925 117.922 23.7676C117.922 23.6102 118.001 23.5316 118.158 23.5316C118.315 23.5316 118.394 23.6102 118.394 23.7676C118.394 23.925 118.315 24.0037 118.158 24.0037Z" fill="#505357"/>
</g>
<path d="M118.161 23.374C118.335 23.374 118.476 23.233 118.476 23.0592C118.476 22.8854 118.335 22.7444 118.161 22.7444C117.988 22.7444 117.847 22.8854 117.847 23.0592C117.847 23.233 117.988 23.374 118.161 23.374Z" fill="#505357"/>
<g style="mix-blend-mode:multiply">
<path d="M118.161 23.374C118.335 23.374 118.476 23.233 118.476 23.0592C118.476 22.8854 118.335 22.7444 118.161 22.7444C117.988 22.7444 117.847 22.8854 117.847 23.0592C117.847 23.233 117.988 23.374 118.161 23.374Z" fill="#505357"/>
<path opacity="0.5" d="M118.158 23.2953C118.158 23.2953 117.922 23.2166 117.922 23.0592C117.922 22.9018 118.001 22.8231 118.158 22.8231C118.315 22.8231 118.394 22.9018 118.394 23.0592C118.394 23.2166 118.315 23.2953 118.158 23.2953Z" fill="#505357"/>
</g>
<path d="M118.949 22.587C119.122 22.587 119.263 22.4461 119.263 22.2723C119.263 22.0984 119.122 21.9575 118.949 21.9575C118.775 21.9575 118.634 22.0984 118.634 22.2723C118.634 22.4461 118.775 22.587 118.949 22.587Z" fill="#505357"/>
<g style="mix-blend-mode:multiply">
<path d="M118.949 22.587C119.122 22.587 119.263 22.4461 119.263 22.2723C119.263 22.0984 119.122 21.9575 118.949 21.9575C118.775 21.9575 118.634 22.0984 118.634 22.2723C118.634 22.4461 118.775 22.587 118.949 22.587Z" fill="#505357"/>
<path opacity="0.5" d="M118.949 22.5083C118.949 22.5083 118.713 22.4296 118.713 22.2723C118.713 22.1149 118.792 22.0362 118.949 22.0362C119.106 22.0362 119.185 22.1149 119.185 22.2723C119.185 22.4296 119.106 22.5083 118.949 22.5083Z" fill="#505357"/>
</g>
<path d="M118.949 24.0822C118.949 24.0822 118.634 23.9248 118.634 23.7674C118.634 23.61 118.791 23.4526 118.949 23.4526C119.106 23.4526 119.263 23.61 119.263 23.7674C119.263 23.9248 119.106 24.0822 118.949 24.0822Z" fill="#505357"/>
<g style="mix-blend-mode:multiply">
<path d="M118.949 24.0822C118.949 24.0822 118.634 23.9248 118.634 23.7674C118.634 23.61 118.791 23.4526 118.949 23.4526C119.106 23.4526 119.263 23.61 119.263 23.7674C119.263 23.9248 119.106 24.0822 118.949 24.0822Z" fill="#505357"/>
<path opacity="0.5" d="M118.949 24.0035C118.949 24.0035 118.713 23.9248 118.713 23.7674C118.713 23.61 118.792 23.5313 118.949 23.5313C119.106 23.5313 119.185 23.61 119.185 23.7674C119.185 23.9248 119.106 24.0035 118.949 24.0035Z" fill="#505357"/>
</g>
<path d="M118.949 23.374C119.122 23.374 119.263 23.233 119.263 23.0592C119.263 22.8854 119.122 22.7444 118.949 22.7444C118.775 22.7444 118.634 22.8854 118.634 23.0592C118.634 23.233 118.775 23.374 118.949 23.374Z" fill="#505357"/>
<g style="mix-blend-mode:multiply">
<path d="M118.949 23.374C119.122 23.374 119.263 23.233 119.263 23.0592C119.263 22.8854 119.122 22.7444 118.949 22.7444C118.775 22.7444 118.634 22.8854 118.634 23.0592C118.634 23.233 118.775 23.374 118.949 23.374Z" fill="#505357"/>
<path opacity="0.5" d="M118.949 23.2953C118.949 23.2953 118.713 23.2166 118.713 23.0592C118.713 22.9018 118.792 22.8231 118.949 22.8231C119.106 22.8231 119.185 22.9018 119.185 23.0592C119.185 23.2166 119.106 23.2953 118.949 23.2953Z" fill="#505357"/>
</g>
<path d="M119.736 22.587C119.909 22.587 120.05 22.4461 120.05 22.2723C120.05 22.0984 119.909 21.9575 119.736 21.9575C119.562 21.9575 119.421 22.0984 119.421 22.2723C119.421 22.4461 119.562 22.587 119.736 22.587Z" fill="#505357"/>
<g style="mix-blend-mode:multiply">
<path d="M119.736 22.587C119.909 22.587 120.05 22.4461 120.05 22.2723C120.05 22.0984 119.909 21.9575 119.736 21.9575C119.562 21.9575 119.421 22.0984 119.421 22.2723C119.421 22.4461 119.562 22.587 119.736 22.587Z" fill="#505357"/>
<path opacity="0.5" d="M119.736 22.5083C119.736 22.5083 119.5 22.4296 119.5 22.2723C119.5 22.1149 119.579 22.0362 119.736 22.0362C119.893 22.0362 119.972 22.1149 119.972 22.2723C119.972 22.4296 119.893 22.5083 119.736 22.5083Z" fill="#505357"/>
</g>
<path d="M119.736 24.0822C119.736 24.0822 119.421 23.9248 119.421 23.7674C119.421 23.61 119.578 23.4526 119.736 23.4526C119.893 23.4526 120.05 23.61 120.05 23.7674C120.05 23.9248 119.893 24.0822 119.736 24.0822Z" fill="#505357"/>
<g style="mix-blend-mode:multiply">
<path d="M119.736 24.0822C119.736 24.0822 119.421 23.9248 119.421 23.7674C119.421 23.61 119.578 23.4526 119.736 23.4526C119.893 23.4526 120.05 23.61 120.05 23.7674C120.05 23.9248 119.893 24.0822 119.736 24.0822Z" fill="#505357"/>
<path opacity="0.5" d="M119.736 24.0035C119.736 24.0035 119.5 23.9248 119.5 23.7674C119.5 23.61 119.579 23.5313 119.736 23.5313C119.893 23.5313 119.972 23.61 119.972 23.7674C119.972 23.9248 119.893 24.0035 119.736 24.0035Z" fill="#505357"/>
</g>
<path d="M119.736 23.3739C119.909 23.3739 120.05 23.233 120.05 23.0591C120.05 22.8853 119.909 22.7444 119.736 22.7444C119.562 22.7444 119.421 22.8853 119.421 23.0591C119.421 23.233 119.562 23.3739 119.736 23.3739Z" fill="#505357"/>
<g style="mix-blend-mode:multiply">
<path d="M119.736 23.3739C119.909 23.3739 120.05 23.233 120.05 23.0591C120.05 22.8853 119.909 22.7444 119.736 22.7444C119.562 22.7444 119.421 22.8853 119.421 23.0591C119.421 23.233 119.562 23.3739 119.736 23.3739Z" fill="#505357"/>
<path opacity="0.5" d="M119.736 23.2952C119.736 23.2952 119.5 23.2165 119.5 23.0591C119.5 22.9017 119.579 22.8231 119.736 22.8231C119.893 22.8231 119.972 22.9017 119.972 23.0591C119.972 23.2165 119.893 23.2952 119.736 23.2952Z" fill="#505357"/>
</g>
<path d="M120.523 22.587C120.697 22.587 120.837 22.4461 120.837 22.2723C120.837 22.0984 120.697 21.9575 120.523 21.9575C120.349 21.9575 120.208 22.0984 120.208 22.2723C120.208 22.4461 120.349 22.587 120.523 22.587Z" fill="#505357"/>
<g style="mix-blend-mode:multiply">
<path d="M120.523 22.587C120.697 22.587 120.837 22.4461 120.837 22.2723C120.837 22.0984 120.697 21.9575 120.523 21.9575C120.349 21.9575 120.208 22.0984 120.208 22.2723C120.208 22.4461 120.349 22.587 120.523 22.587Z" fill="#505357"/>
<path opacity="0.5" d="M120.523 22.5083C120.523 22.5083 120.287 22.4296 120.287 22.2723C120.287 22.1149 120.366 22.0362 120.523 22.0362C120.681 22.0362 120.759 22.1149 120.759 22.2723C120.759 22.4296 120.681 22.5083 120.523 22.5083Z" fill="#505357"/>
</g>
<path d="M120.523 24.0822C120.523 24.0822 120.208 23.9248 120.208 23.7674C120.208 23.61 120.365 23.4526 120.523 23.4526C120.68 23.4526 120.837 23.61 120.837 23.7674C120.837 23.9248 120.68 24.0822 120.523 24.0822Z" fill="#505357"/>
<g style="mix-blend-mode:multiply">
<path d="M120.523 24.0822C120.523 24.0822 120.208 23.9248 120.208 23.7674C120.208 23.61 120.365 23.4526 120.523 23.4526C120.68 23.4526 120.837 23.61 120.837 23.7674C120.837 23.9248 120.68 24.0822 120.523 24.0822Z" fill="#505357"/>
<path opacity="0.5" d="M120.523 24.0035C120.523 24.0035 120.287 23.9248 120.287 23.7674C120.287 23.61 120.366 23.5313 120.523 23.5313C120.681 23.5313 120.759 23.61 120.759 23.7674C120.759 23.9248 120.681 24.0035 120.523 24.0035Z" fill="#505357"/>
</g>
<path d="M120.523 23.374C120.697 23.374 120.837 23.233 120.837 23.0592C120.837 22.8854 120.697 22.7444 120.523 22.7444C120.349 22.7444 120.208 22.8854 120.208 23.0592C120.208 23.233 120.349 23.374 120.523 23.374Z" fill="#505357"/>
<g style="mix-blend-mode:multiply">
<path d="M120.523 23.374C120.697 23.374 120.837 23.233 120.837 23.0592C120.837 22.8854 120.697 22.7444 120.523 22.7444C120.349 22.7444 120.208 22.8854 120.208 23.0592C120.208 23.233 120.349 23.374 120.523 23.374Z" fill="#505357"/>
<path opacity="0.5" d="M120.523 23.2953C120.523 23.2953 120.287 23.2166 120.287 23.0592C120.287 22.9018 120.366 22.8231 120.523 22.8231C120.681 22.8231 120.759 22.9018 120.759 23.0592C120.759 23.2166 120.681 23.2953 120.523 23.2953Z" fill="#505357"/>
</g>
<path d="M121.307 22.5872C121.481 22.5872 121.622 22.4462 121.622 22.2724C121.622 22.0986 121.481 21.9576 121.307 21.9576C121.133 21.9576 120.992 22.0986 120.992 22.2724C120.992 22.4462 121.133 22.5872 121.307 22.5872Z" fill="#505357"/>
<g style="mix-blend-mode:multiply">
<path d="M121.307 22.5872C121.481 22.5872 121.622 22.4462 121.622 22.2724C121.622 22.0986 121.481 21.9576 121.307 21.9576C121.133 21.9576 120.992 22.0986 120.992 22.2724C120.992 22.4462 121.133 22.5872 121.307 22.5872Z" fill="#505357"/>
<path opacity="0.5" d="M121.309 22.5086C121.309 22.5086 121.073 22.4299 121.073 22.2725C121.073 22.1151 121.152 22.0364 121.309 22.0364C121.467 22.0364 121.545 22.1151 121.545 22.2725C121.545 22.4299 121.467 22.5086 121.309 22.5086Z" fill="#505357"/>
</g>
<path d="M121.307 24.0823C121.307 24.0823 120.992 23.9249 120.992 23.7675C120.992 23.6101 121.15 23.4528 121.307 23.4528C121.464 23.4528 121.622 23.6101 121.622 23.7675C121.622 23.9249 121.464 24.0823 121.307 24.0823Z" fill="#505357"/>
<g style="mix-blend-mode:multiply">
<path d="M121.307 24.0823C121.307 24.0823 120.992 23.9249 120.992 23.7675C120.992 23.6101 121.15 23.4528 121.307 23.4528C121.464 23.4528 121.622 23.6101 121.622 23.7675C121.622 23.9249 121.464 24.0823 121.307 24.0823Z" fill="#505357"/>
<path opacity="0.5" d="M121.309 24.0037C121.309 24.0037 121.073 23.925 121.073 23.7676C121.073 23.6102 121.152 23.5316 121.309 23.5316C121.467 23.5316 121.545 23.6102 121.545 23.7676C121.545 23.925 121.467 24.0037 121.309 24.0037Z" fill="#505357"/>
</g>
<path d="M121.307 23.3741C121.481 23.3741 121.622 23.2332 121.622 23.0593C121.622 22.8855 121.481 22.7446 121.307 22.7446C121.133 22.7446 120.992 22.8855 120.992 23.0593C120.992 23.2332 121.133 23.3741 121.307 23.3741Z" fill="#505357"/>
<g style="mix-blend-mode:multiply">
<path d="M121.307 23.3741C121.481 23.3741 121.622 23.2332 121.622 23.0593C121.622 22.8855 121.481 22.7446 121.307 22.7446C121.133 22.7446 120.992 22.8855 120.992 23.0593C120.992 23.2332 121.133 23.3741 121.307 23.3741Z" fill="#505357"/>
<path opacity="0.5" d="M121.309 23.2953C121.309 23.2953 121.073 23.2166 121.073 23.0592C121.073 22.9018 121.152 22.8231 121.309 22.8231C121.467 22.8231 121.545 22.9018 121.545 23.0592C121.545 23.2166 121.467 23.2953 121.309 23.2953Z" fill="#505357"/>
</g>
<path d="M122.096 22.587C122.27 22.587 122.411 22.4461 122.411 22.2723C122.411 22.0984 122.27 21.9575 122.096 21.9575C121.922 21.9575 121.781 22.0984 121.781 22.2723C121.781 22.4461 121.922 22.587 122.096 22.587Z" fill="#505357"/>
<g style="mix-blend-mode:multiply">
<path d="M122.096 22.587C122.27 22.587 122.411 22.4461 122.411 22.2723C122.411 22.0984 122.27 21.9575 122.096 21.9575C121.922 21.9575 121.781 22.0984 121.781 22.2723C121.781 22.4461 121.922 22.587 122.096 22.587Z" fill="#505357"/>
<path opacity="0.5" d="M122.093 22.5086C122.093 22.5086 121.856 22.4299 121.856 22.2725C121.856 22.1151 121.935 22.0364 122.093 22.0364C122.25 22.0364 122.329 22.1151 122.329 22.2725C122.329 22.4299 122.25 22.5086 122.093 22.5086Z" fill="#505357"/>
</g>
<path d="M122.096 24.0822C122.096 24.0822 121.781 23.9248 121.781 23.7674C121.781 23.61 121.939 23.4526 122.096 23.4526C122.253 23.4526 122.411 23.61 122.411 23.7674C122.411 23.9248 122.253 24.0822 122.096 24.0822Z" fill="#505357"/>
<g style="mix-blend-mode:multiply">
<path d="M122.096 24.0822C122.096 24.0822 121.781 23.9248 121.781 23.7674C121.781 23.61 121.939 23.4526 122.096 23.4526C122.253 23.4526 122.411 23.61 122.411 23.7674C122.411 23.9248 122.253 24.0822 122.096 24.0822Z" fill="#505357"/>
<path opacity="0.5" d="M122.093 24.0037C122.093 24.0037 121.856 23.925 121.856 23.7676C121.856 23.6102 121.935 23.5316 122.093 23.5316C122.25 23.5316 122.329 23.6102 122.329 23.7676C122.329 23.925 122.25 24.0037 122.093 24.0037Z" fill="#505357"/>
</g>
<path d="M122.096 23.374C122.27 23.374 122.411 23.233 122.411 23.0592C122.411 22.8854 122.27 22.7444 122.096 22.7444C121.922 22.7444 121.781 22.8854 121.781 23.0592C121.781 23.233 121.922 23.374 122.096 23.374Z" fill="#505357"/>
<g style="mix-blend-mode:multiply">
<path d="M122.096 23.374C122.27 23.374 122.411 23.233 122.411 23.0592C122.411 22.8854 122.27 22.7444 122.096 22.7444C121.922 22.7444 121.781 22.8854 121.781 23.0592C121.781 23.233 121.922 23.374 122.096 23.374Z" fill="#505357"/>
<path opacity="0.5" d="M122.093 23.2953C122.093 23.2953 121.856 23.2166 121.856 23.0592C121.856 22.9018 121.935 22.8231 122.093 22.8231C122.25 22.8231 122.329 22.9018 122.329 23.0592C122.329 23.2166 122.25 23.2953 122.093 23.2953Z" fill="#505357"/>
</g>
<path d="M122.883 22.587C123.057 22.587 123.198 22.4461 123.198 22.2723C123.198 22.0984 123.057 21.9575 122.883 21.9575C122.709 21.9575 122.568 22.0984 122.568 22.2723C122.568 22.4461 122.709 22.587 122.883 22.587Z" fill="#505357"/>
<g style="mix-blend-mode:multiply">
<path d="M122.883 22.587C123.057 22.587 123.198 22.4461 123.198 22.2723C123.198 22.0984 123.057 21.9575 122.883 21.9575C122.709 21.9575 122.568 22.0984 122.568 22.2723C122.568 22.4461 122.709 22.587 122.883 22.587Z" fill="#505357"/>
<path opacity="0.5" d="M122.884 22.5083C122.884 22.5083 122.647 22.4296 122.647 22.2723C122.647 22.1149 122.726 22.0362 122.884 22.0362C123.041 22.0362 123.12 22.1149 123.12 22.2723C123.12 22.4296 123.041 22.5083 122.884 22.5083Z" fill="#505357"/>
</g>
<path d="M122.883 24.0822C122.883 24.0822 122.568 23.9248 122.568 23.7674C122.568 23.61 122.726 23.4526 122.883 23.4526C123.041 23.4526 123.198 23.61 123.198 23.7674C123.198 23.9248 123.041 24.0822 122.883 24.0822Z" fill="#505357"/>
<g style="mix-blend-mode:multiply">
<path d="M122.883 24.0822C122.883 24.0822 122.568 23.9248 122.568 23.7674C122.568 23.61 122.726 23.4526 122.883 23.4526C123.041 23.4526 123.198 23.61 123.198 23.7674C123.198 23.9248 123.041 24.0822 122.883 24.0822Z" fill="#505357"/>
<path opacity="0.5" d="M122.884 24.0035C122.884 24.0035 122.647 23.9248 122.647 23.7674C122.647 23.61 122.726 23.5313 122.884 23.5313C123.041 23.5313 123.12 23.61 123.12 23.7674C123.12 23.9248 123.041 24.0035 122.884 24.0035Z" fill="#505357"/>
</g>
<path d="M122.883 23.374C123.057 23.374 123.198 23.233 123.198 23.0592C123.198 22.8854 123.057 22.7444 122.883 22.7444C122.709 22.7444 122.568 22.8854 122.568 23.0592C122.568 23.233 122.709 23.374 122.883 23.374Z" fill="#505357"/>
<g style="mix-blend-mode:multiply">
<path d="M122.883 23.374C123.057 23.374 123.198 23.233 123.198 23.0592C123.198 22.8854 123.057 22.7444 122.883 22.7444C122.709 22.7444 122.568 22.8854 122.568 23.0592C122.568 23.233 122.709 23.374 122.883 23.374Z" fill="#505357"/>
<path opacity="0.5" d="M122.884 23.2953C122.884 23.2953 122.647 23.2166 122.647 23.0592C122.647 22.9018 122.726 22.8231 122.884 22.8231C123.041 22.8231 123.12 22.9018 123.12 23.0592C123.12 23.2166 123.041 23.2953 122.884 23.2953Z" fill="#505357"/>
</g>
<path d="M123.67 22.587C123.844 22.587 123.985 22.4461 123.985 22.2723C123.985 22.0984 123.844 21.9575 123.67 21.9575C123.496 21.9575 123.355 22.0984 123.355 22.2723C123.355 22.4461 123.496 22.587 123.67 22.587Z" fill="#505357"/>
<g style="mix-blend-mode:multiply">
<path d="M123.67 22.587C123.844 22.587 123.985 22.4461 123.985 22.2723C123.985 22.0984 123.844 21.9575 123.67 21.9575C123.496 21.9575 123.355 22.0984 123.355 22.2723C123.355 22.4461 123.496 22.587 123.67 22.587Z" fill="#505357"/>
<path opacity="0.5" d="M123.671 22.5083C123.671 22.5083 123.435 22.4296 123.435 22.2723C123.435 22.1149 123.513 22.0362 123.671 22.0362C123.828 22.0362 123.907 22.1149 123.907 22.2723C123.907 22.4296 123.828 22.5083 123.671 22.5083Z" fill="#505357"/>
</g>
<path d="M123.67 24.0822C123.67 24.0822 123.355 23.9248 123.355 23.7674C123.355 23.61 123.513 23.4526 123.67 23.4526C123.828 23.4526 123.985 23.61 123.985 23.7674C123.985 23.9248 123.828 24.0822 123.67 24.0822Z" fill="#505357"/>
<g style="mix-blend-mode:multiply">
<path d="M123.67 24.0822C123.67 24.0822 123.355 23.9248 123.355 23.7674C123.355 23.61 123.513 23.4526 123.67 23.4526C123.828 23.4526 123.985 23.61 123.985 23.7674C123.985 23.9248 123.828 24.0822 123.67 24.0822Z" fill="#505357"/>
<path opacity="0.5" d="M123.671 24.0035C123.671 24.0035 123.435 23.9248 123.435 23.7674C123.435 23.61 123.513 23.5313 123.671 23.5313C123.828 23.5313 123.907 23.61 123.907 23.7674C123.907 23.9248 123.828 24.0035 123.671 24.0035Z" fill="#505357"/>
</g>
<path d="M123.67 23.374C123.844 23.374 123.985 23.233 123.985 23.0592C123.985 22.8854 123.844 22.7444 123.67 22.7444C123.496 22.7444 123.355 22.8854 123.355 23.0592C123.355 23.233 123.496 23.374 123.67 23.374Z" fill="#505357"/>
<g style="mix-blend-mode:multiply">
<path d="M123.67 23.374C123.844 23.374 123.985 23.233 123.985 23.0592C123.985 22.8854 123.844 22.7444 123.67 22.7444C123.496 22.7444 123.355 22.8854 123.355 23.0592C123.355 23.233 123.496 23.374 123.67 23.374Z" fill="#505357"/>
<path opacity="0.5" d="M123.671 23.2953C123.671 23.2953 123.435 23.2166 123.435 23.0592C123.435 22.9018 123.513 22.8231 123.671 22.8231C123.828 22.8231 123.907 22.9018 123.907 23.0592C123.907 23.2166 123.828 23.2953 123.671 23.2953Z" fill="#505357"/>
</g>
<path d="M114.857 28.4102C113.912 28.4102 113.047 29.1971 113.047 30.22C113.047 31.243 113.834 32.0299 114.857 32.0299C115.88 32.0299 116.667 31.243 116.667 30.22C116.667 29.1971 115.88 28.4102 114.857 28.4102Z" fill="#505357"/>
<path d="M114.857 31.3217C114.228 31.3217 113.677 30.7708 113.677 30.1413C113.677 29.5118 114.228 28.9609 114.857 28.9609C115.487 28.9609 116.037 29.5118 116.037 30.1413C116.037 30.7708 115.487 31.3217 114.857 31.3217Z" fill="#767A7E"/>
<path d="M115.487 30.22C115.487 30.22 115.172 30.8495 114.857 30.8495C114.542 30.8495 114.228 30.5347 114.228 30.22C114.228 29.9052 114.542 29.5905 114.857 29.5905C115.172 29.5905 115.487 29.9052 115.487 30.22Z" fill="#AFB3B6"/>
</svg>
