<svg width="240" height="240" viewBox="0 0 240 240" fill="none" xmlns="http://www.w3.org/2000/svg">
<circle cx="120" cy="120" r="120" fill="white"/>
<g style="mix-blend-mode:multiply" opacity="0.33">
<path d="M206.142 74.5016V73.923H220.028V58.429H32.4287V73.923H46.3155V78.3591V188.939H206.142V78.3591V74.5016Z" fill="#44514B"/>
</g>
<path d="M199.713 59.8434H39.8867V182.51H199.713V59.8434Z" fill="#EE2038"/>
<path d="M199.713 58.1076H39.8867V71.9301H199.713V58.1076Z" fill="#9B1122"/>
<path d="M213.6 52H26V67.494H213.6V52Z" fill="#EE2038"/>
<path d="M184.026 105.104H55.5732V161.679H184.026V105.104Z" fill="#1E1D21"/>
<path d="M101.027 141.364C100.834 134.163 91.6402 127.284 91.0616 119.119C90.033 122.462 88.8758 128.634 88.8758 132.106C88.8758 135.578 91.3189 138.406 90.033 146.893C89.4544 150.493 85.9185 155.251 84.1183 156.472C83.9255 157.244 83.7326 158.079 83.4111 158.851C83.7326 158.851 84.1183 158.979 84.4397 158.979C88.2971 159.365 98.8408 157.051 103.92 155.701C102.12 152.036 101.091 145.993 100.962 141.428L101.027 141.364Z" fill="#F37039"/>
<path d="M97.5557 144.385C97.5557 142.007 97.9415 139.628 97.3629 137.249C96.5271 133.777 93.6983 131.334 91.1267 129.084C92.4125 131.27 93.5054 133.52 94.084 136.028C94.3412 137.121 94.9198 139.628 94.084 140.592C94.2769 140.399 92.4125 138.213 92.1554 138.021C92.3482 138.149 92.6697 140.271 92.7339 140.592C93.0554 141.685 93.1839 142.778 93.1839 143.871C93.1839 144.643 93.3125 146.7 92.4125 147.021C92.2196 146.7 91.2553 145.221 91.3195 144.835C90.9981 146.7 91.1267 148.629 90.741 150.557C90.0981 153.9 88.4907 156.793 86.7549 159.686C86.7549 159.686 87.5907 159.944 87.6549 159.944C87.9764 159.944 88.2979 159.944 88.6194 159.815C88.9408 159.686 89.1336 159.494 89.4551 159.365C89.7122 159.301 90.0337 159.236 90.3551 159.172C91.1909 158.915 91.9624 158.722 92.7982 158.401C94.4055 157.822 96.0127 157.243 97.62 156.536C98.3272 156.215 99.6773 155.893 100.127 155.25C100.642 154.608 100.127 153.643 99.7416 153C98.5201 150.622 97.8129 147.986 97.5557 145.285C97.5557 145.028 97.5557 144.707 97.5557 144.45V144.385Z" fill="#F7A637"/>
<path d="M102.956 155.379C99.3562 149.979 98.9705 132.62 105.207 124.648C105.85 130.306 106.042 137.442 108.743 140.721C107.971 120.469 122.244 126.577 125.265 111.533C130.666 119.762 130.666 124.327 131.501 128.956C132.337 133.585 130.987 142.2 132.209 142.264C134.845 142.392 136.066 140.014 137.545 137.056C139.666 144.578 134.33 154.029 133.109 156.215C130.087 155.829 109.835 160.908 103.021 155.379H102.956Z" fill="#F37039"/>
<path d="M107.071 156.793C108.421 157.822 110.221 157.629 111.7 157.565C112.407 157.565 113.114 157.436 113.822 157.308C114.4 157.243 114.915 157.051 115.493 157.243C116.008 157.372 116.522 157.372 117.1 157.308C117.808 157.308 118.579 157.179 119.286 157.115C122.179 156.922 125.072 156.665 128.03 156.343C129.894 156.15 131.437 154.672 132.466 152.743C133.302 151.264 133.752 149.4 133.623 147.6C133.237 148.436 132.337 148.436 131.759 147.986C130.923 147.343 130.73 145.864 130.666 144.771C130.344 141.942 130.409 138.985 129.251 136.478C128.994 137.635 127.066 141.492 126.294 138.728C125.973 137.571 126.294 135.642 126.423 134.42C126.551 132.684 126.808 131.013 126.808 129.213C126.873 126.255 126.551 123.169 125.33 120.534C124.301 125.548 122.501 129.92 119.929 133.906C118.579 135.963 117.422 135.513 117.679 132.813C117.679 132.17 118.386 127.22 118.901 127.091C113.757 128.57 112.6 138.021 111.186 143.164C110.414 146.057 108.486 146.893 106.621 144.835C105.014 143.1 104.692 140.785 103.6 138.728C101.928 142.778 103.535 149.079 104.885 152.936C105.335 154.222 105.914 155.443 106.75 156.343C106.878 156.472 107.007 156.601 107.135 156.665L107.071 156.793Z" fill="#F7A637"/>
<path d="M131.5 156.729C134.522 151.779 134.457 148.564 134.972 144.45C135.679 138.535 142.301 127.863 145.194 125.163C144.037 134.099 147.573 136.992 147.573 142.778C147.573 147.536 148.023 150.879 148.473 150.879C151.88 150.879 147.38 145.285 153.423 138.278C152.009 143.678 156.959 147.214 155.352 151.714C154.387 154.415 152.137 157.629 150.53 158.401C145.901 158.272 134.843 156.472 131.564 156.729H131.5Z" fill="#F37039"/>
<path d="M139.408 143.871C139.408 143.871 140.437 145.093 140.373 145.285C141.401 141.814 142.237 138.342 142.88 134.806C143.202 137.635 143.909 140.335 144.23 143.164C144.552 145.735 144.423 148.436 143.973 151.007C143.973 151.264 143.973 152.357 144.487 152.1C144.616 152.036 144.68 151.907 144.809 151.779C144.937 151.522 145.323 151.136 145.645 151.007C146.545 150.686 146.223 151.779 146.159 152.293C146.159 152.872 146.159 153.965 146.93 154.093C147.252 154.093 147.509 154.029 147.83 153.9C149.18 153.257 150.145 152.165 150.916 150.879C151.688 149.529 152.266 147.986 152.459 146.443C152.524 145.735 152.588 145.093 152.459 144.45V144.321C152.524 144.45 152.652 144.514 152.716 144.643C153.038 145.157 153.231 145.735 153.359 146.25C153.617 147.021 153.681 147.857 153.745 148.693C153.745 148.821 153.745 148.95 153.745 149.079C153.745 150.557 153.488 152.036 152.974 153.386C152.459 154.736 151.688 156.022 150.724 157.115C150.273 157.565 149.823 158.015 149.181 158.272C148.473 158.529 147.702 158.529 146.93 158.529C145.194 158.529 143.394 158.465 141.659 158.401C141.144 158.401 140.758 158.272 140.437 157.822C140.051 157.308 139.73 156.729 139.473 156.086C138.894 154.865 138.444 153.579 138.251 152.229C137.994 150.879 137.994 149.529 138.123 148.179C138.251 146.828 138.637 145.478 139.215 144.257C139.28 144.128 139.344 144 139.473 143.871H139.408Z" fill="#F7A637"/>
<path d="M66.1182 158.079C69.1398 153.129 69.0755 148.243 69.5898 144.128C70.297 138.213 76.9189 127.541 79.812 124.841C78.6547 133.777 82.1908 136.671 82.1908 142.457C82.1908 147.214 82.6408 150.557 83.0908 150.557C86.4982 150.557 81.9979 144.964 88.0412 137.956C86.6268 143.357 91.5771 146.893 89.9699 151.393C89.0055 154.093 86.7553 157.308 85.1481 158.079C80.5192 157.951 69.4612 157.822 66.1824 158.079H66.1182Z" fill="#F37039"/>
<path d="M73.9612 143.485C73.9612 143.485 74.9898 144.707 74.9255 144.9C75.9541 141.428 76.7899 137.956 77.4328 134.42C77.7543 137.249 78.4615 139.949 78.7829 142.778C79.1044 145.35 78.9758 148.05 78.5257 150.621C78.5257 150.879 78.5257 151.972 79.0401 151.714C79.1686 151.65 79.2329 151.522 79.3615 151.393C79.4901 151.136 79.8759 150.75 80.1973 150.621C81.0974 150.3 80.7759 151.393 80.7116 151.907C80.7116 152.486 80.7116 153.579 81.4831 153.707C81.8046 153.707 82.0617 153.643 82.3832 153.515C83.7333 152.872 84.6976 151.779 85.4691 150.493C86.2406 149.143 86.8192 147.6 87.0121 146.057C87.0764 145.35 87.1407 144.707 87.0121 144.064V143.935C87.0764 144.064 87.2049 144.128 87.2692 144.257C87.5907 144.771 87.7836 145.35 87.9122 145.864C88.1693 146.635 88.2336 147.471 88.2979 148.307C88.2979 148.436 88.2979 148.564 88.2979 148.693C88.2979 150.171 88.0408 151.65 87.5264 153C87.0121 154.35 86.2406 155.636 85.2762 156.729C84.8262 157.179 84.3761 157.629 83.7332 157.886C83.026 158.143 82.2546 158.143 81.4831 158.143C79.7473 158.143 77.9471 158.079 76.2113 158.015C75.6969 158.015 75.3112 157.886 74.9897 157.436C74.604 156.922 74.2826 156.343 74.0254 155.7C73.4468 154.479 72.9967 153.193 72.8039 151.843C72.5467 150.493 72.5467 149.143 72.6753 147.793C72.8038 146.443 73.1897 145.093 73.7683 143.871C73.8326 143.742 73.8968 143.614 74.0254 143.485H73.9612Z" fill="#F7A637"/>
<path d="M153.36 156.729C152.525 154.029 154.518 150.814 154.646 149.593C154.968 146.636 157.989 133.327 160.689 129.856C160.111 137.956 162.297 141.621 161.332 146.7C160.497 150.943 161.847 154.029 163.39 156.151C160.689 156.729 155.546 157.951 153.36 156.729Z" fill="#F37039"/>
<path d="M156.317 147.986C156.639 144.643 157.796 141.428 159.275 138.471C158.889 140.914 158.76 143.421 158.889 145.864C159.275 145.607 159.661 145.414 160.046 145.157C159.661 145.414 159.725 147.857 159.725 148.307C159.725 149.4 159.853 150.493 160.046 151.586C160.239 152.679 160.561 153.707 161.011 154.736C161.396 155.765 162.103 156.665 162.489 157.629C161.589 157.629 160.689 157.436 159.789 157.501C157.346 157.565 157.025 155.443 156.639 153.515C156.253 151.714 156.189 149.85 156.382 148.05L156.317 147.986Z" fill="#F7A637"/>
<path d="M161.524 158.144C160.688 155.572 160.495 149.207 161.845 145.671C164.546 138.856 166.731 138.856 170.717 133.713C173.675 141.557 164.031 150.75 168.403 157.436C165.51 157.758 163.324 158.208 161.524 158.144Z" fill="#F37039"/>
<path d="M162.103 154.093C161.846 151.072 163.71 148.564 165.189 145.928C166.282 144 166.796 141.814 167.053 139.628C167.632 141.749 168.082 143.614 167.568 145.8C166.861 148.886 164.739 151.264 166.218 154.543C166.732 155.7 167.503 156.729 168.211 157.693C168.146 157.629 166.218 158.015 166.089 158.015C165.382 158.144 164.803 158.465 164.096 158.144C163.325 157.758 162.746 156.665 162.489 155.893C162.296 155.25 162.167 154.672 162.103 154.093Z" fill="#F7A637"/>
<path d="M168.982 157.243C167.761 156.215 166.603 155.572 166.539 152.55C166.411 146.635 172.261 142.649 172.775 139.178C173.804 140.528 173.675 141.685 173.547 142.457C173.29 144.064 171.682 146.378 171.94 147.986C172.197 149.593 173.161 151.329 174.19 152.422C174.833 149.657 174.64 147.086 174.19 145.607C176.376 147.471 177.147 150.364 178.047 152.422C177.597 150.043 177.726 148.114 178.047 146.893C178.304 145.735 180.04 142.907 182.226 142.199C180.233 144.835 179.719 147.15 180.362 148.371C181.776 151.2 182.933 154.093 181.133 156.086C179.012 155.958 171.168 157.372 169.111 157.243H168.982Z" fill="#F37039"/>
<path d="M169.111 150.043C169.111 149.657 169.111 149.271 169.111 148.886C169.368 149.336 169.626 149.85 169.883 150.364C169.883 149.336 169.818 148.243 169.947 147.214C170.076 146.507 170.268 145.864 170.59 145.221C170.911 144.578 171.426 144 171.876 143.421C171.747 144.064 171.426 144.643 171.233 145.285C171.04 145.928 171.04 146.636 171.04 147.278C171.04 147.921 171.168 148.564 171.297 149.207C171.426 149.786 171.554 150.557 172.004 151.007C172.069 150.879 172.197 150.686 172.197 150.557C172.197 150.686 172.519 151.2 172.583 151.393C172.711 151.65 172.904 151.972 173.097 152.229C173.29 152.55 174.061 153.965 174.64 153.515C174.769 153.45 174.833 153.322 174.833 153.193C175.347 151.843 175.347 150.686 175.283 149.336C175.283 149.4 175.797 149.786 175.862 149.85C176.247 150.3 176.569 150.814 176.762 151.329C177.019 151.907 177.147 152.486 177.469 153.065C177.597 153.322 177.79 153.579 178.048 153.707C179.141 154.286 179.14 152.357 179.076 151.779C178.948 150.686 178.498 149.593 178.562 148.436C178.562 147.986 178.819 147.536 179.269 147.278C179.269 147.407 179.205 147.6 179.205 147.728C179.333 149.271 180.105 150.75 180.169 152.293C180.169 152.422 180.169 152.55 180.169 152.615C180.362 152.486 180.555 152.293 180.748 152.036C180.876 152.936 181.005 153.707 180.748 154.608C180.555 155.315 180.233 156.151 179.719 156.665C179.14 157.179 178.305 156.922 177.598 156.793C176.697 156.601 175.733 156.536 174.769 156.665C174.512 156.665 174.319 156.665 174.062 156.793C173.804 156.793 173.676 156.922 173.419 156.793C173.162 156.665 172.969 156.472 172.776 156.343C172.326 156.022 171.94 155.636 171.554 155.25C170.268 153.9 169.24 152.1 169.047 150.172L169.111 150.043Z" fill="#F7A637"/>
<path d="M58.66 158.465C57.4385 157.115 56.2812 156.215 56.2169 152.229C56.0884 144.321 61.9388 138.985 62.4531 134.42C63.4818 136.285 63.3532 137.763 63.2247 138.792C62.9675 140.914 61.3602 144 61.6174 146.121C61.8746 148.243 62.8389 150.621 63.8675 152.1C64.5104 148.436 64.3175 144.964 63.8675 142.971C66.0534 145.414 66.8249 149.336 67.725 152.1C67.2749 148.886 67.9821 143.035 67.725 144.707C67.2107 147.6 68.0464 148.564 71.9038 138.471C69.9108 142.007 69.3965 145.028 70.0394 146.764C71.4538 150.557 72.611 154.415 70.8109 157.051C68.6893 156.858 60.8459 158.786 58.7886 158.593L58.66 158.465Z" fill="#F37039"/>
<path d="M58.7244 148.821C58.7244 148.307 58.7244 147.793 58.7244 147.278C58.9816 147.921 59.2388 148.629 59.496 149.271C59.496 147.857 59.4316 146.443 59.5602 145.028C59.6888 144.128 59.8817 143.164 60.2032 142.328C60.5246 141.428 61.0389 140.657 61.489 139.885C61.489 139.885 61.489 139.885 61.489 139.821C61.3604 140.721 61.0389 141.428 60.846 142.328C60.6531 143.164 60.6531 144.128 60.6531 145.028C60.6531 145.928 60.7818 146.764 60.9104 147.664C61.0389 148.5 61.1675 149.464 61.6176 150.107C61.6819 149.914 61.8104 149.721 61.8104 149.464C61.8104 149.657 62.1319 150.364 62.1962 150.557C62.3247 150.943 62.5176 151.329 62.7105 151.65C62.9034 152.1 63.6748 154.029 64.2534 153.386C64.382 153.257 64.4463 153.065 64.4463 152.936C64.9606 151.2 64.9606 149.593 64.8963 147.728C64.8963 147.857 65.4106 148.307 65.4749 148.436C65.8607 149.014 66.1821 149.721 66.375 150.429C66.6322 151.2 66.7607 151.972 67.0822 152.743C67.2108 153.065 67.4036 153.386 67.6608 153.579C68.7537 154.286 68.7537 151.779 68.6895 151.007C68.5609 149.529 68.1108 148.05 68.1751 146.507C68.1751 145.864 68.4323 145.285 68.8823 144.964C68.8823 145.157 68.8181 145.35 68.8181 145.543C68.9466 147.664 69.7181 149.529 69.7824 151.65C69.7824 151.779 69.7824 151.972 69.7824 152.1C69.9752 151.907 70.1682 151.65 70.3611 151.329C70.4896 152.55 70.6182 153.515 70.3611 154.736C70.1682 155.7 69.8467 156.793 69.3324 157.436C68.7538 158.144 67.918 157.822 67.2108 157.629C66.3107 157.372 65.3464 157.308 64.382 157.436C64.1248 157.436 63.932 157.501 63.6748 157.565C63.4176 157.629 63.289 157.693 63.0319 157.565C62.7747 157.436 62.5819 157.115 62.389 156.922C61.939 156.472 61.5532 155.958 61.1675 155.443C59.8817 153.579 58.853 151.264 58.6602 148.693L58.7244 148.821Z" fill="#F7A637"/>
<path d="M183.64 155.443C183.64 155.443 183.254 155.379 182.997 155.25C182.869 155.25 182.74 155.186 182.676 155.058C182.676 154.993 182.547 154.929 182.483 154.865C182.419 154.865 182.354 154.865 182.226 154.865C182.097 154.929 181.969 154.993 181.84 155.058C181.583 155.186 181.326 155.186 181.069 155.186C180.683 155.186 180.361 155.058 179.976 154.865C179.718 154.736 179.526 154.543 179.333 154.35C179.14 154.158 179.011 153.965 178.818 153.9C178.626 153.9 178.433 154.029 178.24 154.222C177.854 154.543 177.468 154.929 177.018 154.929C176.44 154.929 175.925 154.222 175.347 154.415C175.025 154.543 174.832 154.8 174.511 154.929C174.382 154.993 174.189 154.993 174.061 154.929C173.932 154.929 173.868 154.736 173.739 154.736C173.675 154.736 173.611 154.736 173.547 154.865C173.354 155.058 173.225 155.443 173.032 155.7C172.389 156.729 171.811 155.443 171.104 155.572C170.911 155.572 170.718 155.829 170.525 155.958C170.139 156.215 169.818 156.086 169.689 155.443C169.689 155.25 169.689 154.993 169.689 154.736C169.625 153.193 168.596 154.479 168.082 154.286C167.889 154.222 167.76 154.029 167.568 153.836C167.31 153.579 167.053 153.643 166.796 153.836C165.51 154.608 164.417 156.086 163.067 156.665C162.489 156.922 161.91 156.986 161.331 156.858C161.074 156.793 160.817 156.601 160.624 156.343C160.496 156.086 160.367 155.765 160.11 155.7C159.917 155.7 159.788 155.7 159.596 155.7C159.403 155.7 159.21 155.572 159.081 155.379C158.953 155.186 158.888 154.993 158.824 154.8C158.631 154.415 158.31 154.286 157.988 154.35C157.795 154.35 157.603 154.35 157.474 154.222C157.41 154.093 157.345 153.9 157.281 153.772C157.024 153.065 156.381 153.515 155.995 153.643C155.095 153.965 154.195 154.415 153.295 154.865C153.102 154.929 152.909 155.058 152.716 155.058C152.074 155.186 151.431 154.8 150.981 154.222C150.723 153.836 150.466 153.193 150.145 152.936C149.823 152.679 149.373 152.872 149.052 153.065C148.73 153.257 148.345 153.579 147.959 153.579C147.573 153.579 147.187 153.322 146.737 153.257C145.837 153.193 145.002 154.222 144.166 154.029C143.587 153.9 143.073 153.193 142.43 153.065C141.98 153 141.53 153.193 141.144 153.515C140.694 153.836 140.244 154.158 139.858 154.479C139.408 154.865 138.894 155.25 138.38 155.315C137.93 155.379 137.415 155.315 136.965 155.315C136.387 155.315 135.872 155.636 135.294 155.572C134.779 155.572 134.329 155.315 133.879 154.865C133.108 154.093 132.465 152.872 131.501 152.679C131.115 152.615 130.729 152.679 130.343 152.679C129.893 152.679 129.508 152.55 129.122 152.422C128.736 152.357 128.286 152.293 127.9 152.55C127.643 152.743 127.386 153.065 127.129 153.129C126.807 153.193 126.55 153 126.229 152.872C126.164 152.872 126.036 152.872 125.972 152.807C125.65 152.743 125.393 152.807 125.072 152.807C124.429 153 123.979 153.515 123.464 154.158C123.079 154.608 122.629 154.993 122.114 155.186C121.6 155.315 121.086 155.186 120.571 155.25C120.314 155.25 120.057 155.315 119.735 155.25C119.478 155.25 119.157 155.122 119.028 154.8C118.835 154.543 118.771 154.158 118.578 153.836C118.385 153.579 118.128 153.515 117.871 153.515C117.614 153.515 117.421 153.579 117.164 153.515C116.714 153.515 116.328 153.386 115.878 153.322C115.428 153.322 115.042 153.322 114.592 153.257C114.399 153.257 114.206 153.257 114.078 153.257C113.949 153.257 113.821 153.065 113.756 153C113.564 152.807 113.371 152.55 113.178 152.486C112.406 152.1 111.892 153.193 111.249 153.515C110.928 153.707 110.606 153.707 110.349 153.836C110.156 153.9 109.963 154.029 109.77 154.158C109.642 154.286 109.449 154.479 109.256 154.543C108.999 154.672 108.742 154.543 108.485 154.543C108.227 154.543 108.035 154.543 107.777 154.479C107.327 154.415 106.877 154.35 106.492 154.158C105.784 153.836 105.206 153.45 104.434 153.579C104.049 153.643 103.727 153.772 103.341 153.9C101.67 154.286 99.9982 153.257 98.391 154.093C98.2624 154.093 98.1339 154.222 98.0696 154.286C97.8767 154.415 97.6839 154.608 97.5553 154.8C97.2338 155.186 96.8481 155.636 96.4624 155.829C95.8194 156.151 95.1765 155.829 94.5336 155.572C93.8907 155.315 93.2478 154.929 92.6691 154.415C92.4763 154.286 92.2835 154.093 92.1549 153.9C91.962 153.643 91.7691 153.322 91.512 153.129C91.2548 153 90.9976 152.872 90.6762 152.807C90.1618 152.615 89.6476 152.422 89.1332 152.422C88.6189 152.422 88.0403 152.486 87.5902 152.872C87.2045 153.193 86.883 153.772 86.3687 153.965C86.2401 153.965 86.1116 153.965 85.983 154.029C85.4687 154.029 84.89 154.222 84.3757 154.029C83.99 153.9 83.6685 153.707 83.2828 153.579C82.7042 153.45 82.0613 153.643 81.6113 154.158C81.547 154.222 81.4826 154.35 81.3541 154.35C81.2255 154.35 81.0327 154.286 80.9041 154.158C80.7112 153.965 80.454 153.772 80.1969 153.965C80.004 154.158 79.9397 154.608 79.6825 154.736C79.2325 155.058 78.7825 153.965 78.461 153.707C78.2681 153.579 78.0752 153.515 77.8181 153.515C77.4966 153.515 77.1752 153.322 76.8537 153.515C76.6609 153.643 76.468 153.772 76.2752 153.836C76.018 153.836 75.8251 153.707 75.568 153.643C75.1179 153.45 74.6678 153.386 74.2821 153.515C73.832 153.643 73.4463 153.965 73.1891 154.479C72.932 154.929 72.8034 155.443 72.6106 155.958C72.4177 156.408 72.032 156.793 71.6462 156.729C71.3891 156.665 71.2604 156.408 71.0675 156.151C70.7461 155.636 70.4247 155.122 69.9746 154.8C69.846 154.736 69.7818 154.608 69.6532 154.543C69.3318 154.35 68.946 154.286 68.6246 154.479C68.496 154.543 68.3674 154.672 68.3031 154.736C67.5959 155.379 66.8244 156.343 65.9886 156.536C65.6029 156.601 65.2172 156.472 64.8315 156.343C64.8315 156.343 64.7028 156.343 64.6385 156.279C64.1885 156.086 63.7385 155.893 63.3527 155.572C62.9027 155.186 62.4527 154.672 62.1955 154.029C62.067 153.643 61.9384 153.129 61.6169 152.936C61.4241 152.807 61.2311 152.807 61.0383 152.807C60.7168 152.807 60.3311 152.807 59.9453 152.807C59.6239 152.872 59.3668 153.129 59.1096 153.129C58.8525 153.129 58.6596 152.936 58.4024 153.129C58.2095 153.257 58.0809 153.579 57.9523 153.836C57.9523 153.836 57.9524 153.965 57.8881 154.029C57.7595 154.286 57.5666 154.415 57.3737 154.415C57.1809 154.415 56.9237 154.415 56.7308 154.415C56.4094 154.415 56.0236 154.415 55.7021 154.415C55.5736 154.415 55.445 154.415 55.3164 154.415V161.487H183.383V154.929L183.64 155.443Z" fill="#C5D7DA"/>
<path d="M59.8159 159.879C60.2016 160.008 60.6517 159.815 60.9732 159.558C61.6804 159.108 62.3876 158.594 62.5804 157.822C62.6447 157.565 62.6447 157.243 62.4518 157.051C62.259 156.793 61.809 156.729 61.4875 156.793C61.1018 156.793 60.716 156.922 60.3946 157.051C60.0731 157.179 59.8159 157.436 59.5588 157.694C59.4302 157.886 59.3016 158.015 59.2373 158.272C59.2373 158.529 59.2373 158.851 59.2373 159.108C59.2373 159.429 59.4302 159.815 59.7516 159.944L59.8159 159.879Z" fill="#A2BDC3"/>
<path d="M69.7167 158.915C69.7167 158.915 69.9738 158.851 70.0381 158.786C70.1667 158.722 70.231 158.594 70.231 158.465C70.231 158.272 70.1024 158.144 69.9095 158.015C69.6524 157.886 69.3952 157.758 69.0737 157.693C68.8165 157.693 68.5594 157.693 68.3665 157.822C67.9808 158.144 68.3022 158.722 68.688 158.915C69.0094 159.044 69.3952 158.979 69.6524 158.915H69.7167Z" fill="#A2BDC3"/>
<path d="M86.6887 159.301C87.0102 159.301 87.3959 159.301 87.7174 159.236C88.3603 159.108 89.0032 159.044 89.7104 158.915C90.3533 158.786 91.3176 158.658 91.5747 157.951C91.639 157.693 91.6391 157.436 91.6391 157.179C91.6391 156.793 91.6391 156.408 91.6391 156.022C91.6391 155.508 91.0605 155.25 90.6104 155.122C88.746 154.608 86.753 155.7 85.7886 157.308C85.4672 157.822 85.4029 158.594 85.9172 158.979C86.1101 159.172 86.4315 159.236 86.6887 159.301Z" fill="#A2BDC3"/>
<path d="M99.9326 155.379C99.4183 155.636 99.0326 156.086 98.8397 156.601C98.7111 156.986 98.7754 157.436 99.0325 157.758C99.354 158.144 99.8684 158.144 100.383 158.208C100.833 158.208 101.218 158.208 101.668 158.272C101.861 158.272 102.054 158.272 102.183 158.401C102.247 158.465 102.311 158.594 102.376 158.658C102.633 158.979 103.147 159.108 103.597 158.979C103.983 158.851 104.304 158.465 104.562 158.079C104.754 157.693 104.883 157.243 104.754 156.858C104.626 156.215 104.047 155.765 103.469 155.572C103.019 155.443 102.504 155.379 101.99 155.379C101.604 155.379 101.218 155.186 100.833 155.186C100.576 155.186 100.318 155.186 100.061 155.379H99.9326Z" fill="#A2BDC3"/>
<path d="M116.97 158.722C117.484 158.722 117.998 158.594 118.448 158.401C118.77 158.272 119.156 158.015 119.156 157.694C119.156 157.372 118.963 157.115 118.706 156.922C118.384 156.665 117.934 156.536 117.548 156.536C117.098 156.536 116.648 156.601 116.327 156.793C116.07 156.922 115.748 157.179 115.62 157.501C115.491 157.822 115.62 158.079 115.748 158.336C116.005 158.658 116.455 158.786 116.841 158.722H116.97Z" fill="#A2BDC3"/>
<path d="M139.986 159.108C139.986 159.108 139.986 159.044 139.986 158.979C139.858 158.658 139.858 158.336 139.986 158.015C140.308 156.922 141.722 155.7 142.815 155.636C143.586 155.636 145.194 156.022 145.194 156.986C145.194 157.372 144.808 157.758 144.551 158.015C144.229 158.401 143.908 158.722 143.586 159.044C143.458 159.172 143.265 159.301 143.072 159.429C142.558 159.622 141.979 159.494 141.465 159.622C141.143 159.687 140.886 159.622 140.565 159.622C140.5 159.622 140.372 159.622 140.308 159.558C140.308 159.558 140.243 159.494 140.179 159.429C140.115 159.365 140.05 159.236 139.986 159.108Z" fill="#A2BDC3"/>
<path d="M147.765 159.236C147.765 159.236 147.958 158.915 147.958 158.722C147.958 158.336 147.893 157.822 147.508 157.693C147.186 157.565 146.8 157.693 146.479 157.822C146.158 157.951 145.9 158.079 145.707 158.401C145.579 158.594 145.515 158.915 145.579 159.172C145.579 159.365 145.772 159.494 145.965 159.558C146.222 159.686 146.543 159.751 146.865 159.686C147.186 159.686 147.572 159.558 147.765 159.301V159.236Z" fill="#A2BDC3"/>
<path d="M154.773 158.336C154.966 158.786 155.416 159.108 155.93 159.301C156.638 159.622 157.409 159.944 158.181 159.751C158.695 159.622 159.145 159.236 159.659 159.044C160.238 158.851 160.431 158.529 160.045 158.015C159.081 156.729 157.795 155.765 156.38 155.058C155.866 154.865 155.352 154.8 155.288 155.443C155.288 155.765 155.288 156.086 155.159 156.408C155.095 156.793 154.902 157.115 154.773 157.501C154.645 157.822 154.645 158.079 154.773 158.336Z" fill="#A2BDC3"/>
<path d="M162.874 159.429C162.874 159.429 163.26 159.172 163.26 158.915C163.26 158.658 163.067 158.401 162.81 158.336C162.36 158.144 161.845 158.272 161.524 158.594C161.331 158.786 161.202 159.108 161.524 159.236C161.781 159.429 162.038 159.558 162.36 159.558C162.553 159.558 162.745 159.558 162.874 159.429Z" fill="#A2BDC3"/>
<path d="M165.638 159.044C166.152 159.365 167.181 159.044 167.438 158.529C167.824 157.886 167.503 157.179 166.924 156.793C166.602 156.601 166.152 156.472 165.767 156.472C165.381 156.472 164.931 156.729 164.802 157.115C164.609 157.501 164.802 157.886 164.931 158.208C165.124 158.465 165.317 158.722 165.574 158.915C165.574 158.915 165.574 158.915 165.638 158.915V159.044Z" fill="#A2BDC3"/>
<path d="M175.473 158.979C175.794 158.979 176.18 158.851 176.437 158.594C176.695 158.336 176.887 157.951 176.759 157.629C176.694 157.372 176.437 157.115 176.18 157.051C176.116 157.051 175.987 156.986 175.923 156.986C175.409 156.793 174.702 156.665 174.123 156.922C173.544 157.179 173.03 158.015 173.48 158.594C173.737 158.915 174.187 158.979 174.509 158.979C174.83 158.979 175.151 158.979 175.473 158.979Z" fill="#A2BDC3"/>
<path d="M178.11 158.465C178.11 158.465 177.66 158.465 177.403 158.465C177.21 158.465 177.017 158.401 176.824 158.272C176.632 158.144 176.503 158.015 176.503 157.822C176.503 157.629 176.503 157.501 176.696 157.308C176.824 157.115 177.082 156.986 177.339 156.922C177.789 156.922 178.432 157.179 178.689 157.501C179.01 157.951 178.624 158.401 178.174 158.465H178.11Z" fill="#A2BDC3"/>
<path d="M123.656 157.758C123.656 157.758 123.785 157.758 123.849 157.822C124.106 157.822 124.428 157.822 124.557 157.565C124.749 157.243 124.556 156.858 124.814 156.536C124.878 156.408 125.007 156.343 125.071 156.215C125.457 155.765 124.878 155.572 124.492 155.636C124.235 155.636 124.042 155.829 123.849 156.022C123.656 156.215 123.464 156.536 123.335 156.793C123.271 156.986 123.206 157.179 123.335 157.372C123.335 157.501 123.528 157.629 123.656 157.758Z" fill="#A2BDC3"/>
<path d="M131.305 157.822C131.305 157.822 131.819 157.822 131.755 157.5C131.755 157.372 131.691 157.308 131.627 157.243C131.305 156.858 130.084 156.086 129.569 156.665C129.441 156.793 129.505 157.05 129.569 157.179C129.827 157.5 130.341 157.436 130.727 157.629C130.791 157.629 131.112 157.758 131.305 157.822Z" fill="#A2BDC3"/>
<path d="M186.405 165.473H181.712V107.74H57.9528V165.473H53.2597L53.1953 102.725H186.405V165.473Z" fill="#26244C"/>
<g style="mix-blend-mode:screen">
<path d="M66.5664 161.68L95.4971 106.904H90.4182L61.5518 161.68H66.5664Z" fill="#2E2E2D"/>
</g>
<g style="mix-blend-mode:screen">
<path d="M72.8682 161.679H92.7339L121.665 106.904H101.735L72.8682 161.679Z" fill="#2E2E2D"/>
</g>
<g style="mix-blend-mode:screen">
<path d="M153.103 161.68H173.033L182.033 144.578V106.904L153.103 161.68Z" fill="#2E2E2D"/>
</g>
<path d="M53.1953 102.725H57.8886L57.9528 160.458H181.712V102.725H186.405V165.473H53.2597L53.1953 102.725Z" fill="#26244C"/>
</svg>
