<svg width="103" height="103" viewBox="0 0 103 103" fill="none" xmlns="http://www.w3.org/2000/svg">
<path d="M102.581 33.507C103.366 32.4735 102.314 31.1816 100.911 31.4215C91.6638 33.0364 82.269 34.0145 72.8466 34.3467C70.8994 34.4205 68.8507 34.4389 67.1065 33.6915C65.0762 32.8149 63.8211 31.0432 62.7691 29.3084C56.8443 19.5088 53.9927 7.98364 45.8069 -0.321125C44.7272 -1.40997 42.6508 -1.08701 42.2078 0.297119C38.2487 12.6435 35.2771 25.2299 33.3483 37.9269L1.77741 41.1104C0.39312 41.2489 -0.197564 42.716 0.799123 43.5557C6.12401 48.0403 11.5228 52.2112 16.82 56.8157C18.878 58.5966 20.9821 60.4513 22.0157 62.7951C23.1139 65.2958 22.8647 68.064 22.5325 70.7216C21.2405 81.0564 19.0072 91.3082 15.8418 101.338C15.5003 102.427 16.903 103.332 18.0012 102.713C30.6444 95.6174 38.7102 90.5792 51.7594 82.459C68.2508 88.0416 78.8083 91.4097 94.1647 96.1987C96.1396 96.817 98.1884 95.276 97.7454 93.5228C94.5984 80.9549 89.9564 68.6546 83.9302 56.8803C93.0849 48.4279 95.8166 42.3469 102.581 33.507Z" fill="white"/>
<path d="M60.1123 32.8704C63.6929 43.482 56.6608 49.8305 49.6563 56.1883C43.104 62.7214 37.2808 69.5498 47.626 82.902C44.0453 72.2811 51.0775 65.9418 58.0728 59.5933C64.6251 53.0509 70.4483 46.2318 60.1123 32.8796" fill="#EA0029"/>
<path d="M50.8653 19.0566C61.2105 32.4089 55.3873 39.2372 48.835 45.7703C41.8398 52.1281 34.8076 58.4581 38.3883 69.0882C28.043 55.736 33.8663 48.9077 40.4093 42.3746C47.4138 36.026 54.446 29.6775 50.8561 19.0566" fill="#80BC00"/>
<g style="mix-blend-mode:multiply">
<path d="M50.6622 56.1237L50.6068 56.1606C41.2583 58.7259 31.7252 61.1066 22.2843 63.6257C22.2105 63.3673 22.1367 63.072 22.0167 62.8229C20.9739 60.4699 18.8697 58.6244 16.8025 56.825C11.5053 52.2389 6.12507 48.0588 0.818635 43.5466C0.504864 43.279 0.33877 42.9745 0.320312 42.6792C17.2086 46.1857 33.7647 50.6241 49.9332 56.0683C50.127 56.0776 50.4222 56.0683 50.653 56.1145L50.6622 56.1237Z" fill="#DDDDDD"/>
</g>
<g style="mix-blend-mode:multiply">
<path d="M68.8328 34.1992C62.6497 41.3321 56.5219 48.9263 50.7264 56.0408C48.4285 37.3458 46.0752 18.2264 42.6514 -0.422436C43.4912 -1.15141 44.9493 -1.17909 45.7983 -0.330161C54.0025 7.98384 56.8634 19.4998 62.7881 29.3179C63.8402 31.0526 65.086 32.8335 67.0886 33.7102C67.6516 33.9593 68.2145 34.1162 68.8328 34.1992Z" fill="#DDDDDD"/>
</g>
<g style="mix-blend-mode:multiply">
<path d="M102.582 33.4982C95.8081 42.3289 93.1133 48.4098 83.9401 56.8807C84.1062 57.2221 84.2724 57.5266 84.4293 57.868C73.1796 57.3974 61.9207 57.0099 50.708 56.124C63.831 51.538 77.1387 46.0476 89.2097 39.6898C93.7409 37.2999 98.106 34.6516 102.776 32.3909C102.886 32.7323 102.849 33.1383 102.573 33.4982H102.582Z" fill="#DDDDDD"/>
</g>
<g style="mix-blend-mode:multiply">
<path d="M51.7695 82.4593C51.4465 82.2748 52.0925 82.6439 51.7695 82.4593C39.1171 90.5795 30.636 95.627 18.0113 102.695C17.4023 103.027 16.7286 102.944 16.2764 102.575C28.4581 87.6821 40.1599 71.7923 50.7082 56.1609C51.2527 62.8785 51.2896 75.5387 51.7695 82.4593Z" fill="#DDDDDD"/>
</g>
<g style="mix-blend-mode:multiply">
<path d="M97.4323 95.1655C96.814 96.079 95.5035 96.6142 94.1838 96.1897C79.1505 91.5206 66.5904 87.5528 51.7693 82.4684C51.2894 75.5478 51.2525 62.8876 50.708 56.17V56.1331C53.6427 57.4526 55.8114 59.132 58.2016 61.1159C71.4169 72.3366 84.4754 83.6772 97.4231 95.1655H97.4323Z" fill="#DDDDDD"/>
</g>
<path style="mix-blend-mode:soft-light" opacity="0.68" d="M50.7165 56.1238V56.1607C40.159 71.7921 28.4664 87.6727 16.2754 102.575C15.9155 102.298 15.7125 101.828 15.8601 101.348C19.0163 91.3175 21.2681 81.0565 22.514 70.7309C22.8277 68.3502 23.0585 65.8773 22.3017 63.6258C31.7426 61.1159 41.2757 58.7259 50.6242 56.1607C50.6242 56.1607 50.6704 56.1607 50.6796 56.1238H50.7257H50.7165Z" fill="url(#paint0_linear_989_31457)"/>
<g style="mix-blend-mode:hard-light" opacity="0.73">
<path d="M50.5975 55.3857C50.3576 55.3303 49.8038 55.884 49.8315 56.0409C33.6631 50.5966 17.2178 46.1951 0.329474 42.6886C0.246417 41.9781 0.800138 41.2307 1.77837 41.1292L33.3401 37.9549V37.835C39.0895 43.9436 44.8666 49.2402 50.5975 55.3949V55.3857Z" fill="#E5E3E3"/>
</g>
<defs>
<linearGradient id="paint0_linear_989_31457" x1="20.9973" y1="64.6762" x2="37.698" y2="84.2394" gradientUnits="userSpaceOnUse">
<stop stop-color="white"/>
<stop offset="0.4" stop-color="#FEFEFC"/>
<stop offset="0.63" stop-color="#FEFBF4"/>
<stop offset="0.82" stop-color="#FDF8E6"/>
<stop offset="0.99" stop-color="#FCF2D2"/>
<stop offset="1" stop-color="#FCF2D1"/>
</linearGradient>
</defs>
</svg>
