<svg width="141" height="118" viewBox="0 0 141 118" fill="none" xmlns="http://www.w3.org/2000/svg">
<g filter="url(#filter0_d_989_31474)">
<path d="M121.581 33.507C122.366 32.4735 121.314 31.1816 119.911 31.4215C110.664 33.0364 101.269 34.0145 91.8466 34.3467C89.8994 34.4205 87.8507 34.4389 86.1065 33.6915C84.0762 32.8149 82.8211 31.0432 81.7691 29.3084C75.8443 19.5088 72.9927 7.98364 64.8069 -0.321125C63.7272 -1.40997 61.6508 -1.08701 61.2078 0.297119C57.2487 12.6435 54.2771 25.2299 52.3483 37.9269L20.7774 41.1104C19.3931 41.2489 18.8024 42.716 19.7991 43.5557C25.124 48.0403 30.5228 52.2112 35.82 56.8157C37.878 58.5966 39.9821 60.4513 41.0157 62.7951C42.1139 65.2958 41.8647 68.064 41.5325 70.7216C40.2405 81.0564 38.0072 91.3082 34.8418 101.338C34.5003 102.427 35.903 103.332 37.0012 102.713C49.6444 95.6174 57.7102 90.5792 70.7594 82.459C87.2508 88.0416 97.8083 91.4097 113.165 96.1987C115.14 96.817 117.188 95.276 116.745 93.5228C113.598 80.9549 108.956 68.6546 102.93 56.8803C112.085 48.4279 114.817 42.3469 121.581 33.507Z" fill="#FFDE52"/>
<mask id="mask0_989_31474" style="mask-type:luminance" maskUnits="userSpaceOnUse" x="19" y="-1" width="103" height="104">
<path d="M121.582 33.5067C122.367 32.4732 121.315 31.1814 119.912 31.4213C110.665 33.0361 101.27 34.0142 91.8476 34.3464C89.9004 34.4202 87.8517 34.4387 86.1075 33.6913C84.0772 32.8147 82.8221 31.043 81.77 29.3082C75.8453 19.5086 72.9936 7.9834 64.8079 -0.321369C63.7282 -1.41022 61.6518 -1.08725 61.2088 0.296875C57.2497 12.6433 54.2781 25.2296 52.3493 37.9267L20.7784 41.1102C19.3941 41.2486 18.8034 42.7158 19.8001 43.5555C25.125 48.0401 30.5238 52.2109 35.821 56.8154C37.8789 58.5963 39.983 60.4511 41.0167 62.7949C42.1149 65.2955 41.8657 68.0638 41.5334 70.7213C40.2414 81.0561 38.0081 91.3079 34.8427 101.338C34.5013 102.427 35.904 103.331 37.0022 102.713C49.6453 95.6172 57.7111 90.5789 70.7603 82.4587C87.2518 88.0414 97.8093 91.4094 113.166 96.1985C115.141 96.8167 117.189 95.2757 116.746 93.5225C113.599 80.9546 108.957 68.6544 102.931 56.88C112.086 48.4276 114.818 42.3467 121.582 33.5067Z" fill="white"/>
</mask>
<g mask="url(#mask0_989_31474)">
<path d="M79.1123 32.8704C82.6929 43.482 75.6608 49.8305 68.6563 56.1883C62.104 62.7214 56.2808 69.5498 66.626 82.902C63.0453 72.2811 70.0775 65.9418 77.0728 59.5933C83.6251 53.0509 89.4483 46.2318 79.1123 32.8796" fill="#EA0029"/>
<path d="M69.8653 19.0566C80.2105 32.4089 74.3873 39.2372 67.835 45.7703C60.8398 52.1281 53.8076 58.4581 57.3883 69.0882C47.043 55.736 52.8663 48.9077 59.4093 42.3746C66.4138 36.026 73.446 29.6775 69.8561 19.0566" fill="#80BC00"/>
<g style="mix-blend-mode:multiply">
<path d="M69.6622 56.1237L69.6068 56.1606C60.2583 58.7259 50.7252 61.1066 41.2843 63.6257C41.2105 63.3673 41.1367 63.072 41.0167 62.8229C39.9739 60.4699 37.8697 58.6244 35.8025 56.825C30.5053 52.2389 25.1251 48.0588 19.8186 43.5466C19.5049 43.279 19.3388 42.9745 19.3203 42.6792C36.2086 46.1857 52.7647 50.6241 68.9332 56.0683C69.127 56.0776 69.4222 56.0683 69.653 56.1145L69.6622 56.1237Z" fill="#DDDDDD"/>
</g>
<g style="mix-blend-mode:multiply">
<path d="M87.8328 34.1992C81.6497 41.3321 75.5219 48.9263 69.7264 56.0408C67.4285 37.3458 65.0752 18.2264 61.6514 -0.422436C62.4912 -1.15141 63.9493 -1.17909 64.7983 -0.330161C73.0025 7.98384 75.8634 19.4998 81.7881 29.3179C82.8402 31.0526 84.086 32.8335 86.0886 33.7102C86.6516 33.9593 87.2145 34.1162 87.8328 34.1992Z" fill="#DDDDDD"/>
</g>
<g style="mix-blend-mode:multiply">
<path d="M121.582 33.4982C114.808 42.3289 112.113 48.4098 102.94 56.8807C103.106 57.2221 103.272 57.5266 103.429 57.868C92.1796 57.3974 80.9207 57.0099 69.708 56.124C82.831 51.538 96.1387 46.0476 108.21 39.6898C112.741 37.2999 117.106 34.6516 121.776 32.3909C121.886 32.7323 121.849 33.1383 121.573 33.4982H121.582Z" fill="#DDDDDD"/>
</g>
<g style="mix-blend-mode:multiply">
<path d="M70.7695 82.4593C70.4465 82.2748 71.0925 82.6439 70.7695 82.4593C58.1171 90.5795 49.636 95.627 37.0113 102.695C36.4023 103.027 35.7286 102.944 35.2764 102.575C47.4581 87.6821 59.1599 71.7923 69.7082 56.1609C70.2527 62.8785 70.2896 75.5387 70.7695 82.4593Z" fill="#DDDDDD"/>
</g>
<g style="mix-blend-mode:multiply">
<path d="M116.432 95.1655C115.814 96.079 114.504 96.6142 113.184 96.1897C98.1505 91.5206 85.5904 87.5528 70.7693 82.4684C70.2894 75.5478 70.2525 62.8876 69.708 56.17V56.1331C72.6427 57.4526 74.8114 59.132 77.2016 61.1159C90.4169 72.3366 103.475 83.6772 116.423 95.1655H116.432Z" fill="#DDDDDD"/>
</g>
<path style="mix-blend-mode:soft-light" opacity="0.68" d="M69.7165 56.1238V56.1607C59.159 71.7921 47.4664 87.6727 35.2754 102.575C34.9155 102.298 34.7125 101.828 34.8601 101.348C38.0163 91.3175 40.2681 81.0565 41.514 70.7309C41.8277 68.3502 42.0585 65.8773 41.3017 63.6258C50.7426 61.1159 60.2757 58.7259 69.6242 56.1607C69.6242 56.1607 69.6704 56.1607 69.6796 56.1238H69.7257H69.7165Z" fill="url(#paint0_linear_989_31474)"/>
<g style="mix-blend-mode:hard-light" opacity="0.73">
<path d="M69.5975 55.3857C69.3576 55.3303 68.8038 55.884 68.8315 56.0409C52.6631 50.5966 36.2178 46.1951 19.3295 42.6886C19.2464 41.9781 19.8001 41.2307 20.7784 41.1292L52.3401 37.9549V37.835C58.0895 43.9436 63.8666 49.2402 69.5975 55.3949V55.3857Z" fill="#E5E3E3"/>
</g>
</g>
</g>
<defs>
<filter id="filter0_d_989_31474" x="0.668217" y="-23.3329" width="139.815" height="141.155" filterUnits="userSpaceOnUse" color-interpolation-filters="sRGB">
<feFlood flood-opacity="0" result="BackgroundImageFix"/>
<feColorMatrix in="SourceAlpha" type="matrix" values="0 0 0 0 0 0 0 0 0 0 0 0 0 0 0 0 0 0 127 0" result="hardAlpha"/>
<feOffset dy="-3.72671"/>
<feGaussianBlur stdDeviation="9.31677"/>
<feComposite in2="hardAlpha" operator="out"/>
<feColorMatrix type="matrix" values="0 0 0 0 1 0 0 0 0 0.905882 0 0 0 0 0.498039 0 0 0 1 0"/>
<feBlend mode="normal" in2="BackgroundImageFix" result="effect1_dropShadow_989_31474"/>
<feBlend mode="normal" in="SourceGraphic" in2="effect1_dropShadow_989_31474" result="shape"/>
</filter>
<linearGradient id="paint0_linear_989_31474" x1="39.9973" y1="64.6762" x2="56.698" y2="84.2394" gradientUnits="userSpaceOnUse">
<stop stop-color="white"/>
<stop offset="0.4" stop-color="#FEFEFC"/>
<stop offset="0.63" stop-color="#FEFBF4"/>
<stop offset="0.82" stop-color="#FDF8E6"/>
<stop offset="0.99" stop-color="#FCF2D2"/>
<stop offset="1" stop-color="#FCF2D1"/>
</linearGradient>
</defs>
</svg>
